O cube
v 0.5 -0.5 -0.5
v -0.5 -0.5 -0.5
v -0.5 -0.25 -0.5
v 0.5 -0.25 -0.5
v 0.5 -0.5 -0.25
v -0.5 -0.5 -0.25
v -0.5 -0.25 -0.25
v 0.5 -0.25 -0.25
v 0.5 -0.5 0
v -0.5 -0.5 0
v -0.5 -0.25 0
v 0.5 -0.25 0
v 0.5 -0.5 0.25
v -0.5 -0.5 0.25
v -0.5 -0.25 0.25
v 0.5 -0.25 0.25
v 0.5 -0.5 0.5
v -0.5 -0.5 0.5
v -0.5 -0.25 0.5
v 0.5 -0.25 0.5

vt 0.75 0
vt 1 0
vt 1 1
vt 0.75 1
vt 0 0
vt 1 0.25
vt 0 0.25

vn 0 0 -1
vn -1 0 0
vn 0 0 1
vn 1 0 0
vn 0 1 0
vn 0 -1 0

s off
f 1/4/1 2/1/1 3/2/1 4/3/1
f 2/5/2 18/2/2 19/6/2 3/7/2
f 18/2/3 17/3/3 20/4/3 19/1/3
f 17/6/4 1/7/4 4/5/4 20/2/4
f 4/2/5 3/3/5 7/4/5 8/1/5
f 8/6/5 7/7/5 11/5/5 12/2/5
f 12/4/5 11/1/5 15/2/5 16/3/5
f 16/5/5 15/2/5 19/6/5 20/7/5
f 2/6/6 1/7/6 5/5/6 6/2/6
f 6/2/6 5/3/6 9/4/6 10/1/6
f 10/5/6 9/2/6 13/6/6 14/7/6
f 14/4/6 13/1/6 17/2/6 18/3/6

--More to add