O cube
v 0.4125 -0.375 -0.3
v 1.01251 -0.375 0.89999
v 1.1625 -0.375 0.825
v 0.56249 -0.375 -0.37499
v 0.56249 -0.5 -0.37499
v 1.1625 -0.5 0.825
v 1.01251 -0.5 0.89999
v 0.4125 -0.5 -0.3
v 0.4125 1.375 -0.3
v 0.4875 1.375 -0.15
v 0.6375 1.375 -0.225
v 0.56249 1.375 -0.37499
v 0.6375 -0.375 -0.225
v 0.4875 -0.375 -0.15
v 0.6525 0.4 0.18
v 0.7725 0.4 0.42
v 0.9225 0.4 0.345
v 0.8025 0.4 0.105
v 0.8025 -0.375 0.105
v 0.9225 -0.375 0.345
v 0.7725 -0.375 0.42
v 0.6525 -0.375 0.18
v 0.9375 1.375 0.75
v 1.01251 1.375 0.89999
v 1.1625 1.375 0.825
v 1.0875 1.375 0.675
v 1.0875 -0.375 0.675
v 0.9375 -0.375 0.75
v 0.4875 0.45 -0.15
v 0.9375 0.45 0.75
v 1.0875 0.45 0.675
v 0.6375 0.45 -0.225
v 0.6375 0.4 -0.225
v 1.0875 0.4 0.675
v 0.9375 0.4 0.75
v 0.4875 0.4 -0.15
v 0.4875 0.55 -0.15
v 0.8625 0.55 0.6
v 1.01251 0.55 0.52501
v 0.6375 0.55 -0.225
v 1.01251 0.45 0.52501
v 0.8625 0.45 0.6
v 0.4875 0.6 -0.15
v 0.9375 0.6 0.75
v 1.0875 0.6 0.675
v 0.6375 0.6 -0.225
v 1.0875 0.55 0.675
v 0.9375 0.55 0.75
v 0.6525 1.375 0.18
v 0.7725 1.375 0.42
v 0.9225 1.375 0.345
v 0.8025 1.375 0.105
v 0.8025 0.6 0.105
v 0.9225 0.6 0.345
v 0.7725 0.6 0.42
v 0.6525 0.6 0.18
v 0.4125 1.5 -0.3
v 1.01251 1.5 0.89999
v 1.1625 1.5 0.825
v 0.56249 1.5 -0.37499
v 0.54749 0.4 -0.18
v 0.7125 0.4 0.15
v 0.7425 0.4 0.135
v 0.57751 0.4 -0.195
v 0.57751 -0.375 -0.195
v 0.7425 -0.375 0.135
v 0.7125 -0.375 0.15
v 0.54749 -0.375 -0.18
v 0.8325 0.4 0.39
v 0.99749 0.4 0.72
v 1.02751 0.4 0.705
v 0.8625 0.4 0.375
v 0.8625 -0.375 0.375
v 1.02751 -0.375 0.705
v 0.99749 -0.375 0.72
v 0.8325 -0.375 0.39
v 0.54749 1.375 -0.18
v 0.7125 1.375 0.15
v 0.7425 1.375 0.135
v 0.57751 1.375 -0.195
v 0.57751 0.6 -0.195
v 0.7425 0.6 0.135
v 0.7125 0.6 0.15
v 0.54749 0.6 -0.18
v 0.8325 1.375 0.39
v 0.99749 1.375 0.72
v 1.02751 1.375 0.705
v 0.8625 1.375 0.375
v 0.8625 0.6 0.375
v 1.02751 0.6 0.705
v 0.99749 0.6 0.72
v 0.8325 0.6 0.39

vt 0.000000 0.000000
vt 1.000000 0.000000
vt 1.000000 0.125000
vt 0.000000 0.125000
vt 0.000000 0.875000
vt 1.000000 0.875000
vt 1.000000 1.000000
vt 0.000000 1.000000
vt 0.125000 0.000000
vt 0.125000 0.125000
vt 0.875000 0.000000
vt 0.875000 0.125000
vt 0.125000 0.875000
vt 0.125000 1.000000
vt 0.125000 1.875000
vt 0.000000 1.875000
vt 1.000000 1.875000
vt 0.875000 1.875000
vt 0.400000 0.000000
vt 0.600000 0.000000
vt 0.600000 0.125000
vt 0.400000 0.125000
vt 0.400000 0.875000
vt 0.600000 0.875000
vt 0.600000 1.000000
vt 0.400000 1.000000
vt 0.125000 0.900000
vt 0.000000 0.900000
vt 1.000000 0.900000
vt 0.875000 0.900000
vt 0.600000 0.900000
vt 0.400000 0.900000
vt 0.875000 0.875000
vt 0.875000 1.000000
vt 0.125000 0.950000
vt 0.000000 0.950000
vt 1.000000 0.950000
vt 0.875000 0.950000
vt 0.750000 0.000000
vt 0.750000 0.125000
vt 0.750000 0.875000
vt 0.750000 1.000000
vt 0.125000 1.050000
vt 0.000000 1.050000
vt 1.000000 1.050000
vt 0.875000 1.050000
vt 0.250000 0.950000
vt 0.250000 1.050000
vt 0.750000 0.950000
vt 0.750000 1.050000
vt 0.125000 1.100000
vt 0.000000 1.100000
vt 1.000000 1.100000
vt 0.875000 1.100000
vt 0.400000 1.100000
vt 0.600000 1.100000
vt 0.600000 1.875000
vt 0.400000 1.875000
vt 0.125000 2.000000
vt 0.000000 2.000000
vt 1.000000 2.000000
vt 0.875000 2.000000
vt 0.125000 0.050000
vt 0.400000 0.050000
vt 0.400000 0.075000
vt 0.125000 0.075000
vt 0.125000 0.925000
vt 0.400000 0.925000
vt 0.400000 0.950000
vt 0.050000 0.125000
vt 0.075000 0.125000
vt 0.075000 0.900000
vt 0.050000 0.900000
vt 0.925000 0.125000
vt 0.950000 0.125000
vt 0.950000 0.900000
vt 0.925000 0.900000
vt 0.600000 0.050000
vt 0.875000 0.050000
vt 0.875000 0.075000
vt 0.600000 0.075000
vt 0.600000 0.925000
vt 0.875000 0.925000
vt 0.600000 0.950000
vt 0.050000 1.100000
vt 0.075000 1.100000
vt 0.075000 1.875000
vt 0.050000 1.875000
vt 0.925000 1.100000
vt 0.950000 1.100000
vt 0.950000 1.875000
vt 0.925000 1.875000
vn 0 1 0
vn 0 -1 0
vn 0 0 1
vn 0 0 -1
vn 1 0 0
vn -1 0 0

f 1/1/1 2/2/1 3/3/1 4/4/1
f 5/5/2 6/6/2 7/7/2 8/8/2
f 7/1/3 6/9/3 3/10/3 2/4/3
f 5/11/4 8/2/4 1/3/4 4/12/4
f 6/1/5 5/2/5 4/3/5 3/4/5
f 8/1/6 7/2/6 2/3/6 1/4/6
f 9/1/1 10/9/1 11/10/1 12/4/1
f 4/5/2 13/13/2 14/14/2 1/8/2
f 14/4/3 13/10/3 11/15/3 10/16/3
f 4/12/4 1/3/4 9/17/4 12/18/4
f 13/12/5 4/3/5 12/17/5 11/18/5
f 1/4/6 14/10/6 10/15/6 9/16/6
f 15/19/1 16/20/1 17/21/1 18/22/1
f 19/23/2 20/24/2 21/25/2 22/26/2
f 21/4/3 20/10/3 17/27/3 16/28/3
f 19/12/4 22/3/4 15/29/4 18/30/4
f 20/22/5 19/21/5 18/31/5 17/32/5
f 22/22/6 21/21/6 16/31/6 15/32/6
f 23/11/1 24/2/1 25/3/1 26/12/1
f 27/33/2 3/6/2 2/7/2 28/34/2
f 2/4/3 3/10/3 25/15/3 24/16/3
f 27/12/4 28/3/4 23/17/4 26/18/4
f 3/4/5 27/10/5 26/15/5 25/16/5
f 28/12/6 2/3/6 24/17/6 23/18/6
f 29/9/1 30/11/1 31/12/1 32/10/1
f 33/13/2 34/33/2 35/34/2 36/14/2
f 35/28/3 34/27/3 31/35/3 30/36/3
f 33/30/4 36/29/4 29/37/4 32/38/4
f 34/27/5 33/30/5 32/38/5 31/35/5
f 36/27/6 35/30/6 30/38/6 29/35/6
f 37/9/1 38/39/1 39/40/1 40/10/1
f 32/13/2 41/41/2 42/42/2 29/14/2
f 42/36/3 41/35/3 39/43/3 38/44/3
f 32/38/4 29/37/4 37/45/4 40/46/4
f 41/47/5 32/38/5 40/46/5 39/48/5
f 29/35/6 42/49/6 38/50/6 37/43/6
f 43/9/1 44/11/1 45/12/1 46/10/1
f 40/13/2 47/33/2 48/34/2 37/14/2
f 48/44/3 47/43/3 45/51/3 44/52/3
f 40/46/4 37/45/4 43/53/4 46/54/4
f 47/43/5 40/46/5 46/54/5 45/51/5
f 37/43/6 48/46/6 44/54/6 43/51/6
f 49/19/1 50/20/1 51/21/1 52/22/1
f 53/23/2 54/24/2 55/25/2 56/26/2
f 55/52/3 54/51/3 51/15/3 50/16/3
f 53/54/4 56/53/4 49/17/4 52/18/4
f 54/55/5 53/56/5 52/57/5 51/58/5
f 56/55/6 55/56/6 50/57/6 49/58/6
f 57/1/1 58/2/1 59/3/1 60/4/1
f 12/5/2 25/6/2 24/7/2 9/8/2
f 24/16/3 25/15/3 59/59/3 58/60/3
f 12/18/4 9/17/4 57/61/4 60/62/4
f 25/16/5 12/17/5 60/61/5 59/60/5
f 9/16/6 24/17/6 58/61/6 57/60/6
f 61/63/1 62/64/1 63/65/1 64/66/1
f 65/67/2 66/68/2 67/69/2 68/35/2
f 67/70/3 66/71/3 63/72/3 62/73/3
f 65/74/4 68/75/4 61/76/4 64/77/4
f 66/21/5 65/12/5 64/30/5 63/31/5
f 68/10/6 67/22/6 62/32/6 61/27/6
f 69/78/1 70/79/1 71/80/1 72/81/1
f 73/82/2 74/83/2 75/38/2 76/84/2
f 75/70/3 74/71/3 71/72/3 70/73/3
f 73/74/4 76/75/4 69/76/4 72/77/4
f 74/10/5 73/22/5 72/32/5 71/27/5
f 76/21/6 75/12/6 70/30/6 69/31/6
f 77/63/1 78/64/1 79/65/1 80/66/1
f 81/67/2 82/68/2 83/69/2 84/35/2
f 83/85/3 82/86/3 79/87/3 78/88/3
f 81/89/4 84/90/4 77/91/4 80/92/4
f 82/56/5 81/54/5 80/18/5 79/57/5
f 84/51/6 83/55/6 78/58/6 77/15/6
f 85/78/1 86/79/1 87/80/1 88/81/1
f 89/82/2 90/83/2 91/38/2 92/84/2
f 91/85/3 90/86/3 87/87/3 86/88/3
f 89/89/4 92/90/4 85/91/4 88/92/4
f 90/51/5 89/55/5 88/58/5 87/15/5
f 92/56/6 91/54/6 86/18/6 85/57/6
