# Blender 4.0.2
# www.blender.org
mtllib Axes.mtl
o vsn_mesh_0_
v 0.49081 -0.13098 -0.26049
v 0.45 -0.11508 -0.26967
v 0.49026 0.17347 0.26733
v 0.45 0.18915 0.25828
v 0.45 -0.11508 -0.26967
v 0.40919 -0.13098 -0.26049
v 0.45 0.18915 0.25828
v 0.40974 0.17347 0.26733
v 0.40919 -0.13098 -0.26049
v 0.40919 -0.14688 -0.25131
v 0.40974 0.17347 0.26733
v 0.40974 0.15778 0.27639
v 0.45 -0.11508 -0.26967
v 0.49081 -0.13098 -0.26049
v 0.45 -0.14688 -0.25131
v 0.40919 -0.13098 -0.26049
v 0.48881 0.25671 0.42331
v 0.45 0.26728 0.4172
v 0.45 0.24613 0.42941
v 0.45 0.26728 0.4172
v 0.41119 0.25671 0.42331
v 0.45 0.24613 0.42941
v 0.41119 0.24613 0.42941
v 0.40009 0.19245 0.33644
v 0.39969 0.22633 0.39512
v 0.40009 0.21189 0.32521
v 0.39969 0.24593 0.3838
v 0.40919 0.23941 0.31824
v 0.39969 0.28824 0.35937
v 0.45 0.25917 0.30683
v 0.45 0.31664 0.34298
v 0.49081 0.23941 0.31824
v 0.45 0.25917 0.30683
v 0.50031 0.28824 0.35937
v 0.45 0.31664 0.34298
v 0.40009 0.21189 0.32521
v 0.40919 0.23941 0.31824
v 0.45 0.23134 0.31399
v 0.45 0.25917 0.30683
v 0.40009 0.21189 0.32521
v 0.39969 0.24593 0.3838
v 0.40919 0.23941 0.31824
v 0.39969 0.28824 0.35937
v 0.39969 0.24593 0.3838
v 0.45 0.26553 0.37249
v 0.39969 0.28824 0.35937
v 0.45 0.31664 0.34298
v 0.49991 0.21189 0.32521
v 0.45 0.23134 0.31399
v 0.49081 0.23941 0.31824
v 0.45 0.25917 0.30683
v 0.50031 0.24593 0.3838
v 0.50031 0.28824 0.35937
v 0.49991 0.21189 0.32521
v 0.49081 0.23941 0.31824
v 0.50031 0.24593 0.3838
v 0.50031 0.28824 0.35937
v 0.45 0.26553 0.37249
v 0.45 0.26728 0.4172
v 0.50031 0.24593 0.3838
v 0.48881 0.25671 0.42331
v 0.45 0.26553 0.37249
v 0.39969 0.24593 0.3838
v 0.45 0.26728 0.4172
v 0.41119 0.25671 0.42331
v 0.39969 0.24593 0.3838
v 0.39969 0.22633 0.39512
v 0.41119 0.25671 0.42331
v 0.41119 0.24613 0.42941
v 0.40092 0.1603 0.28075
v 0.40009 0.19245 0.33644
v 0.40092 0.17942 0.26971
v 0.40009 0.21189 0.32521
v 0.45 0.19854 0.25868
v 0.40092 0.17942 0.26971
v 0.45 0.23134 0.31399
v 0.40009 0.21189 0.32521
v 0.45 0.19854 0.25868
v 0.45 0.23134 0.31399
v 0.49908 0.17942 0.26971
v 0.49991 0.21189 0.32521
v 0.40974 0.15778 0.27639
v 0.40092 0.1603 0.28075
v 0.40974 0.17347 0.26733
v 0.40092 0.17942 0.26971
v 0.45 0.18915 0.25828
v 0.40974 0.17347 0.26733
v 0.45 0.18915 0.25828
v 0.49026 0.17347 0.26733
v 0.49081 -0.14688 -0.25131
v 0.49081 -0.13098 -0.26049
v 0.49026 0.15778 0.27639
v 0.49026 0.17347 0.26733
v 0.49026 0.15778 0.27639
v 0.49026 0.17347 0.26733
v 0.49908 0.1603 0.28075
v 0.49908 0.17942 0.26971
v 0.49991 0.19245 0.33644
v 0.49991 0.21189 0.32521
v 0.50031 0.22633 0.39512
v 0.50031 0.24593 0.3838
v 0.48881 0.24613 0.42941
v 0.50031 0.22633 0.39512
v 0.48881 0.25671 0.42331
v 0.50031 0.24593 0.3838
v 0.45 0.24613 0.42941
v 0.48881 0.24613 0.42941
v 0.48881 0.25671 0.42331
v 0.49081 -0.13098 -0.26049
v 0.49081 -0.14688 -0.25131
v 0.45 -0.14688 -0.25131
v 0.40919 -0.14688 -0.25131
v 0.40919 -0.13098 -0.26049
v 0.49081 -0.16278 -0.24213
v 0.49026 0.1421 0.28544
v 0.45 -0.17867 -0.23295
v 0.45 0.12642 0.2945
v 0.45 -0.17867 -0.23295
v 0.45 0.12642 0.2945
v 0.40919 -0.16278 -0.24213
v 0.40974 0.1421 0.28544
v 0.40919 -0.16278 -0.24213
v 0.40974 0.1421 0.28544
v 0.40919 -0.14688 -0.25131
v 0.40974 0.15778 0.27639
v 0.45 -0.17867 -0.23295
v 0.49081 -0.16278 -0.24213
v 0.40919 -0.16278 -0.24213
v 0.48881 0.23556 0.43552
v 0.45 0.22498 0.44162
v 0.45 0.22498 0.44162
v 0.45 0.24613 0.42941
v 0.41119 0.23556 0.43552
v 0.41119 0.24613 0.42941
v 0.39969 0.20673 0.40643
v 0.39969 0.22633 0.39512
v 0.40009 0.17301 0.34766
v 0.40009 0.19245 0.33644
v 0.45 0.13602 0.44726
v 0.39969 0.16442 0.43086
v 0.45 0.13346 0.37941
v 0.40919 0.15322 0.368
v 0.49081 0.15322 0.368
v 0.50031 0.16442 0.43086
v 0.45 0.13346 0.37941
v 0.45 0.13602 0.44726
v 0.45 0.13346 0.37941
v 0.40919 0.15322 0.368
v 0.45 0.15358 0.35888
v 0.40009 0.17301 0.34766
v 0.40009 0.17301 0.34766
v 0.40919 0.15322 0.368
v 0.39969 0.20673 0.40643
v 0.39969 0.16442 0.43086
v 0.39969 0.20673 0.40643
v 0.39969 0.16442 0.43086
v 0.45 0.18714 0.41775
v 0.45 0.13602 0.44726
v 0.49991 0.17301 0.34766
v 0.49081 0.15322 0.368
v 0.45 0.15358 0.35888
v 0.45 0.13346 0.37941
v 0.50031 0.16442 0.43086
v 0.50031 0.20673 0.40643
v 0.50031 0.16442 0.43086
v 0.49081 0.15322 0.368
v 0.50031 0.20673 0.40643
v 0.49991 0.17301 0.34766
v 0.48881 0.23556 0.43552
v 0.45 0.22498 0.44162
v 0.50031 0.20673 0.40643
v 0.45 0.18714 0.41775
v 0.45 0.18714 0.41775
v 0.45 0.22498 0.44162
v 0.39969 0.20673 0.40643
v 0.41119 0.23556 0.43552
v 0.39969 0.20673 0.40643
v 0.41119 0.23556 0.43552
v 0.39969 0.22633 0.39512
v 0.41119 0.24613 0.42941
v 0.40009 0.17301 0.34766
v 0.40009 0.19245 0.33644
v 0.40092 0.14118 0.29179
v 0.40092 0.1603 0.28075
v 0.45 0.12207 0.30283
v 0.45 0.15358 0.35888
v 0.40092 0.14118 0.29179
v 0.40009 0.17301 0.34766
v 0.49991 0.17301 0.34766
v 0.45 0.15358 0.35888
v 0.49908 0.14118 0.29179
v 0.45 0.12207 0.30283
v 0.40092 0.14118 0.29179
v 0.40092 0.1603 0.28075
v 0.40974 0.1421 0.28544
v 0.40974 0.15778 0.27639
v 0.45 0.12642 0.2945
v 0.40974 0.1421 0.28544
v 0.49026 0.1421 0.28544
v 0.45 0.12642 0.2945
v 0.49081 -0.14688 -0.25131
v 0.49026 0.15778 0.27639
v 0.49081 -0.16278 -0.24213
v 0.49026 0.1421 0.28544
v 0.49908 0.14118 0.29179
v 0.49026 0.1421 0.28544
v 0.49908 0.1603 0.28075
v 0.49026 0.15778 0.27639
v 0.49991 0.17301 0.34766
v 0.49991 0.19245 0.33644
v 0.50031 0.20673 0.40643
v 0.50031 0.22633 0.39512
v 0.48881 0.24613 0.42941
v 0.48881 0.23556 0.43552
v 0.50031 0.22633 0.39512
v 0.50031 0.20673 0.40643
v 0.45 0.24613 0.42941
v 0.48881 0.23556 0.43552
v 0.48881 0.24613 0.42941
v 0.49081 -0.16278 -0.24213
v 0.45 -0.14688 -0.25131
v 0.49081 -0.14688 -0.25131
v 0.40919 -0.14688 -0.25131
v 0.40919 -0.16278 -0.24213
v 0.43487 0.05982 0.35585
v 0.43487 0.12556 0.46972
v 0.43487 0.15364 0.31318
v 0.43487 0.21248 0.41508
v 0.43487 0.12556 0.46972
v 0.46627 0.12556 0.46972
v 0.43487 0.21248 0.41508
v 0.46627 0.21248 0.41508
v 0.46627 0.05982 0.35585
v 0.46627 0.15364 0.31318
v 0.46627 0.12556 0.46972
v 0.46627 0.21248 0.41508
v 0.46627 0.05982 0.35585
v 0.43487 0.05982 0.35585
v 0.46627 0.15364 0.31318
v 0.43487 0.15364 0.31318
v 0.46627 0.01048 0.36689
v 0.43487 0.01048 0.36689
v 0.43487 0.01048 0.36689
v 0.43487 0.09044 0.50538
v 0.43487 0.09044 0.50538
v 0.46627 0.09044 0.50538
v 0.46627 0.09044 0.50538
v 0.46627 0.01048 0.36689
v 0.46627 0.01048 0.36689
v 0.46627 -0.05383 0.36887
v 0.43487 0.01048 0.36689
v 0.43487 -0.05383 0.36887
v 0.43487 -0.05383 0.36887
v 0.43487 0.05352 0.5548
v 0.43487 0.09044 0.50538
v 0.43487 0.05352 0.5548
v 0.46627 0.09044 0.50538
v 0.46627 0.05352 0.5548
v 0.46627 0.05352 0.5548
v 0.46627 -0.05383 0.36887
v 0.46627 -0.05383 0.36887
v 0.45057 -0.07155 0.41312
v 0.43487 -0.05383 0.36887
v 0.45057 -0.07155 0.41312
v 0.45057 0.00359 0.54326
v 0.43487 -0.05383 0.36887
v 0.43487 0.05352 0.5548
v 0.43487 0.05352 0.5548
v 0.45057 0.00359 0.54326
v 0.46627 0.05352 0.5548
v 0.46627 0.05352 0.5548
v 0.45057 0.00359 0.54326
v 0.46627 -0.05383 0.36887
v 0.45057 -0.07155 0.41312
vn 0.4102 0.79017 -0.45539
vn 0.364 0.46898 -0.8047
vn 0.3637 0.46915 -0.8048
vn -0.4102 0.79017 -0.45539
vn -0.3636 0.46915 -0.8048
vn -0.3637 0.46907 -0.80475
vn -1 0.00045 0.00078
vn -0.8652 -0.25053 -0.43433
vn -0.8652 -0.2507 -0.43423
vn -0 -0.5 -0.86603
vn -0 0.5 0.86603
vn -1 -0.0047 -0.00814
vn -0.4802 0.4873 -0.72937
vn 0.4802 0.4873 -0.72937
vn -0.1445 -0.2223 -0.96423
vn -0.9869 0.06153 -0.14903
vn -0.9869 0.06148 -0.14912
vn 0.1445 -0.2223 -0.96423
vn 0.9869 0.06153 -0.14903
vn 0.3357 0.93728 -0.09358
vn 0.3356 0.93737 -0.09363
vn -0.3357 0.93728 -0.09358
vn -0.3356 0.93737 -0.09363
vn -0.9603 0.1394 0.24145
vn -0.3638 0.46907 -0.80475
vn -0.3637 0.46915 -0.8048
vn -0.4102 0.78448 -0.46504
vn 0.3638 0.46907 -0.80475
vn 0.4102 0.78448 -0.46504
vn 0.3637 0.46907 -0.80475
vn 1 0.00045 0.00078
vn 0.8652 -0.2507 -0.43423
vn 0.8652 -0.25053 -0.43433
vn 1 -0.0047 -0.00814
vn 0.9603 0.1394 0.24145
vn 0.4102 -0.78947 0.45661
vn 0.3637 -0.93155 0.0039
vn 0.3636 -0.93155 0.0039
vn -0.4102 -0.78947 0.45661
vn -0.3637 -0.93147 0.00385
vn -0.364 -0.93138 0.0038
vn -0.4802 -0.8753 0.05733
vn 0.4802 -0.8753 0.05733
vn -0.1445 -0.7239 -0.67463
vn -0.9869 -0.15983 -0.02123
vn 0.1445 -0.7239 -0.67463
vn 0.9869 -0.15983 -0.02123
vn 0.9869 -0.15988 -0.02132
vn 0.3356 -0.54977 0.76497
vn -0.3356 -0.54977 0.76497
vn -0.4102 -0.79498 0.44686
vn 0.4102 -0.79498 0.44686
vn 0.3637 -0.93147 0.00385
vn -0.3638 -0.93147 0.00385
vn 0.3638 -0.93147 0.00385
vn 0.8652 -0.25087 -0.43413
vn -0 0.62648 0.77949
vn -0 0.53221 0.84662
vn -0 -0.31797 -0.94814
vn -0 -0.41399 -0.91026
vn -0 -0.21838 -0.97585
vn -0 0.71236 0.70185
vn -0 -0.0307 -0.99957
vn -0 0.80122 0.59835
vn -0 -0.92834 -0.37173
vn -0.9223 -0.33463 0.1932
vn -0 -0.2252 0.97434
vn 0.9224 -0.33463 0.1932
vt -1.262880 0.385529
vt -1.262880 0.252924
vt 1.771410 0.385529
vt 1.771410 0.252924
vt -1.262880 0.120320
vt 1.771410 0.120320
vt -1.262880 0.071498
vt 1.771410 0.071498
vt 0.380958 0.198812
vt 0.360754 0.242926
vt 0.341420 0.198396
vt 0.361621 0.154563
vt 0.458098 0.728185
vt 0.425125 0.666775
vt 0.491070 0.666775
vt 0.377153 0.697590
vt 0.403789 0.747198
vt 0.430448 0.698056
vt 0.430448 0.747725
vt 0.098394 0.343830
vt 0.027834 0.343830
vt 0.098394 0.387408
vt 0.027834 0.387408
vt 0.902174 0.264465
vt 0.901468 0.389743
vt 0.773113 0.256652
vt 0.776588 0.389071
vt 0.636324 0.262128
vt 0.639479 0.389570
vt 0.098394 0.348085
vt 0.098394 0.244923
vt 0.222047 0.247395
vt 0.222399 0.389085
vt 0.275847 0.262599
vt 0.320173 0.388795
vt 0.620747 0.388339
vt 0.691855 0.264476
vt 0.773179 0.388795
vt 0.875700 0.265116
vt 0.098394 0.138599
vt 0.098394 0.141760
vt 0.621996 0.126683
vt 0.773949 0.127135
vt 0.221959 0.246152
vt 0.276025 0.261780
vt 0.222311 0.389707
vt 0.321287 0.389314
vt 0.357142 0.651281
vt 0.357142 0.738457
vt 0.259954 0.651344
vt 0.282890 0.738457
vt 0.453392 0.651281
vt 0.431394 0.738457
vt 0.408871 0.650993
vt 0.454662 0.651344
vt 0.430869 0.738169
vt 0.454662 0.738520
vt 0.176412 0.343830
vt 0.176412 0.387408
vt 0.176412 0.244923
vt 0.176412 0.348085
vt 0.176412 0.138599
vt 0.182530 0.348085
vt 0.182530 0.396408
vt 0.176412 0.396408
vt 0.182530 0.244923
vt 0.182530 0.141760
vt -1.262880 0.434350
vt 1.771410 0.434350
vt 0.182530 0.090165
vt 0.176412 0.090165
vt 0.098394 0.090165
vt 0.027834 0.090165
vt 0.027834 0.138599
vt 0.325557 0.743048
vt 0.325557 0.646942
vt 0.351308 0.743048
vt 0.376595 0.647012
vt 0.491070 0.728185
vt 0.340922 0.242716
vt 0.341915 0.154356
vt 0.501322 0.794643
vt 0.502255 0.857126
vt 0.631744 0.798814
vt 0.634438 0.855406
vt 0.745537 0.841674
vt 0.746582 0.805015
vt 0.576490 0.841674
vt 0.576490 0.805015
vt 0.542943 0.795111
vt 0.665193 0.799706
vt 0.542586 0.854654
vt 0.665442 0.852741
vt 0.614066 0.868951
vt 0.613559 0.776382
vt 0.469369 0.868951
vt 0.469965 0.776382
vt 0.691309 0.868951
vt 0.691309 0.776382
vt 0.441078 0.787874
vt 0.441064 0.863455
vt 0.871281 0.841674
vt 0.871281 0.805015
vt 0.484299 0.860813
vt 0.485101 0.788229
vt 0.769718 0.868951
vt 0.769718 0.776382
vt 0.371492 0.774221
vt 0.369704 0.875015
vt 0.539979 0.841820
vt 0.693489 0.841820
vt 0.539979 0.804874
vt 0.693489 0.804874
vt 0.415344 0.872085
vt 0.417008 0.774385
vt 0.853587 0.822666
vt 0.325542 0.787977
vt 0.323489 0.858191
vt 0.690604 0.857651
vt 0.772500 0.822176
vt 0.690604 0.786702
vt 0.369953 0.856125
vt 0.371392 0.787632
s 1
usemtl d_ax_mat
f 1/1/1 2/2/1 3/3/2
f 3/3/2 2/2/1 4/4/3
f 5/2/4 6/5/4 7/4/5
f 7/4/5 6/5/4 8/6/6
f 9/5/7 10/7/7 11/6/8
f 11/6/8 10/7/7 12/8/9
s 0
f 13/9/10 14/10/10 15/11/10
f 16/12/10 13/9/10 15/11/10
f 17/13/11 18/14/11 19/15/11
f 20/16/11 21/17/11 22/18/11
f 21/17/11 23/19/11 22/18/11
s 1
f 24/20/12 25/21/7 26/22/12
f 26/22/12 25/21/7 27/23/7
s 0
f 28/24/13 29/25/13 30/26/13
f 30/26/13 29/25/13 31/27/13
f 32/28/14 33/26/14 34/29/14
f 34/29/14 33/26/14 35/27/14
f 36/30/15 37/30/15 38/31/15
f 38/31/15 37/30/15 39/31/15
f 40/32/16 41/33/16 42/34/17
f 42/34/16 41/33/16 43/35/16
f 44/36/11 45/37/11 46/38/11
f 46/38/11 45/37/11 47/39/11
f 48/40/18 49/31/18 50/41/18
f 50/41/18 49/31/18 51/31/18
f 52/42/11 53/43/11 45/37/11
f 45/37/11 53/43/11 47/39/11
f 54/44/19 55/45/19 56/46/19
f 56/46/19 55/45/19 57/47/19
f 58/48/20 59/49/20 60/50/20
f 60/50/21 59/49/20 61/51/20
f 62/48/22 63/52/22 64/49/23
f 64/49/23 63/52/23 65/53/23
f 66/54/24 67/55/24 68/56/24
f 68/56/24 67/55/24 69/57/24
s 1
f 70/58/9 71/20/12 72/59/9
f 72/59/9 71/20/12 73/22/12
f 74/60/25 75/61/26 76/31/27
f 76/31/27 75/61/26 77/30/27
f 78/60/28 79/31/29 80/62/3
f 80/62/3 79/31/29 81/40/29
s 0
f 82/63/9 83/61/9 84/64/9
f 84/64/9 83/61/9 85/65/9
f 86/66/6 87/63/6 74/60/6
f 74/60/6 87/63/6 75/61/6
f 88/66/30 78/60/30 89/67/30
f 89/67/30 78/60/30 80/62/30
s 1
f 90/68/31 91/1/31 92/69/32
f 92/69/32 91/1/31 93/3/32
s 0
f 94/70/32 95/67/32 96/71/33
f 96/71/32 95/67/32 97/62/32
s 1
f 96/71/32 97/62/32 98/72/34
f 98/72/34 97/62/32 99/40/34
f 98/72/34 99/40/34 100/73/31
f 100/73/31 99/40/34 101/74/31
s 0
f 102/75/35 103/76/35 104/77/35
f 104/77/35 103/76/35 105/78/35
f 106/15/11 107/79/11 108/13/11
f 109/10/10 110/80/10 111/11/10
f 112/81/10 113/12/10 111/11/10
s 1
f 114/1/36 115/3/37 116/2/36
f 116/2/36 115/3/37 117/4/38
f 118/2/39 119/4/40 120/5/39
f 120/5/39 119/4/40 121/6/41
f 122/5/7 123/6/9 124/7/7
f 124/7/7 123/6/9 125/8/9
s 0
f 126/9/10 111/11/10 127/10/10
f 128/12/10 111/11/10 126/9/10
f 129/13/11 106/15/11 130/14/11
f 131/16/11 132/18/11 133/17/11
f 133/17/11 132/18/11 134/19/11
s 1
f 135/23/7 136/21/7 137/22/12
f 137/22/12 136/21/7 138/20/12
s 0
f 139/27/42 140/25/42 141/26/42
f 141/26/42 140/25/42 142/24/42
f 143/28/43 144/29/43 145/26/43
f 145/26/43 144/29/43 146/27/43
f 147/31/44 148/30/44 149/31/44
f 149/31/44 148/30/44 150/30/44
f 151/32/45 152/34/45 153/33/45
f 153/33/45 152/34/45 154/35/45
f 155/36/11 156/38/11 157/37/11
f 157/37/11 156/38/11 158/39/11
f 159/40/46 160/41/46 161/31/46
f 161/31/46 160/41/46 162/31/46
f 158/39/11 163/43/11 157/37/11
f 157/37/11 163/43/11 164/42/11
f 165/47/47 166/45/47 167/46/47
f 167/46/47 166/45/48 168/44/47
f 169/51/49 170/49/49 171/50/49
f 171/50/49 170/49/49 172/48/49
f 173/48/50 174/49/50 175/52/50
f 175/52/50 174/49/50 176/53/50
f 177/54/24 178/56/24 179/55/24
f 179/55/24 178/56/24 180/57/24
s 1
f 181/22/12 182/20/12 183/59/9
f 183/59/9 182/20/12 184/58/9
f 185/60/40 186/31/51 187/61/40
f 187/61/40 186/31/51 188/30/51
f 189/40/52 190/31/52 191/62/53
f 191/62/53 190/31/52 192/60/53
s 0
f 193/65/9 194/61/9 195/64/9
f 195/64/9 194/61/9 196/63/9
f 197/66/40 185/60/40 198/63/54
f 198/63/40 185/60/40 187/61/40
f 191/62/53 192/60/53 199/67/53
f 199/67/55 192/60/53 200/66/53
s 1
f 201/68/31 202/69/32 203/1/31
f 203/1/31 202/69/32 204/3/56
s 0
f 205/62/32 206/67/32 207/71/32
f 207/71/32 206/67/32 208/70/32
s 1
f 209/40/34 205/62/32 210/72/34
f 210/72/34 205/62/32 207/71/32
f 211/74/31 209/40/34 212/73/31
f 212/73/31 209/40/34 210/72/34
s 0
f 213/75/35 214/77/35 215/76/35
f 215/76/35 214/77/35 216/78/35
f 217/15/11 218/13/11 219/79/11
f 220/10/10 221/11/10 222/80/10
f 223/81/10 221/11/10 224/12/10
f 225/82/7 226/83/7 227/84/7
f 227/84/7 226/83/7 228/85/7
s 1
f 229/86/57 230/87/57 231/88/58
f 231/88/58 230/87/57 232/89/58
s 0
f 233/90/31 234/91/31 235/92/31
f 235/92/31 234/91/31 236/93/31
s 1
f 237/94/59 238/95/59 239/96/60
f 239/96/60 238/95/59 240/97/60
f 237/94/59 241/98/61 238/95/59
f 238/95/59 241/98/61 242/99/61
s 0
f 243/100/7 244/101/7 225/82/7
f 225/82/7 244/101/7 226/83/7
s 1
f 229/86/57 245/102/62 230/87/57
f 230/87/57 245/102/62 246/103/62
s 0
f 235/92/31 247/104/31 233/90/31
f 233/90/31 247/104/31 248/105/31
f 249/98/63 250/106/63 251/99/63
f 251/99/63 250/106/63 252/107/63
f 253/108/7 254/109/7 243/100/7
f 243/100/7 254/109/7 244/101/7
f 255/110/64 256/111/64 257/112/64
f 257/112/64 256/111/64 258/113/64
f 247/104/31 259/114/31 248/105/31
f 248/105/31 259/114/31 260/115/31
f 261/106/65 262/116/65 263/107/65
f 264/117/66 265/118/66 266/108/66
f 266/108/66 265/118/66 267/109/66
f 268/119/67 269/120/67 270/121/67
f 271/114/68 272/122/68 273/115/68
f 273/115/68 272/122/68 274/123/68
