O cube
v -0.45424 -0.36435 -0.45424
v -0.45424 -0.36435 0.45424
v 0.45424 -0.36435 0.45424
v 0.45424 -0.36435 -0.45424
v -0.45621 0.35788 -0.45621
v -0.45621 0.35788 0.45621
v 0.45621 0.35788 0.45621
v 0.45621 0.35788 -0.45621
v -0.23332 -0.2737 -0.23332
v -0.23332 -0.2737 0.23332
v 0.23332 -0.2737 0.23332
v 0.23332 -0.2737 -0.23332
v -0.23483 0.28148 -0.23483
v -0.23483 0.28148 0.23483
v 0.23483 0.28148 0.23483
v 0.23483 0.28148 -0.23483
v -0.46806 -0.31291 -0.46806
v -0.46806 -0.31291 0.46806
v 0.46806 -0.31291 0.46806
v 0.46806 -0.31291 -0.46806
v -0.44032 0.4041 -0.44032
v -0.44032 0.4041 0.44032
v 0.44032 0.4041 0.44032
v 0.44032 0.4041 -0.44032
v -0.24415 -0.3236 -0.24415
v -0.24415 -0.3236 0.24415
v 0.24415 -0.3236 0.24415
v 0.24415 -0.3236 -0.24415
v -0.22622 0.23206 -0.22622
v -0.22622 0.23206 0.22622
v 0.22622 0.23206 0.22622
v 0.22622 0.23206 -0.22622
v -0.47942 -0.25659 -0.47942
v -0.47942 -0.25659 0.47942
v 0.47942 -0.25659 0.47942
v 0.47942 -0.25659 -0.47942
v -0.4223 0.44271 -0.4223
v -0.4223 0.44271 0.4223
v 0.4223 0.44271 0.4223
v 0.4223 0.44271 -0.4223
v -0.25765 -0.37148 -0.25765
v -0.25765 -0.37148 0.25765
v 0.25765 -0.37148 0.25765
v 0.25765 -0.37148 -0.25765
v -0.2198 0.18371 -0.2198
v -0.2198 0.18371 0.2198
v 0.2198 0.18371 0.2198
v 0.2198 0.18371 -0.2198
v -0.4883 -0.19665 -0.4883
v -0.4883 -0.19665 0.4883
v 0.4883 -0.19665 0.4883
v 0.4883 -0.19665 -0.4883
v -0.40247 0.4723 -0.40247
v -0.40247 0.4723 0.40247
v 0.40247 0.4723 0.40247
v 0.40247 0.4723 -0.40247
v -0.27382 -0.41495 -0.27382
v -0.27382 -0.41495 0.27382
v 0.27382 -0.41495 0.27382
v 0.27382 -0.41495 -0.27382
v -0.2152 0.13706 -0.2152
v -0.2152 0.13706 0.2152
v 0.2152 0.13706 0.2152
v 0.2152 0.13706 -0.2152
v -0.49468 -0.13414 -0.49468
v -0.49468 -0.13414 0.49468
v 0.49468 -0.13414 0.49468
v 0.49468 -0.13414 -0.49468
v -0.3813 0.49161 -0.3813
v -0.3813 0.49161 0.3813
v 0.3813 0.49161 0.3813
v 0.3813 0.49161 -0.3813
v -0.29241 -0.45144 -0.29241
v -0.29241 -0.45144 0.29241
v 0.29241 -0.45144 0.29241
v 0.29241 -0.45144 -0.29241
v -0.21212 0.09208 -0.21212
v -0.21212 0.09208 0.21212
v 0.21212 0.09208 0.21212
v 0.21212 0.09208 -0.21212
v -0.49857 -0.0699 -0.49857
v -0.49857 -0.0699 0.49857
v 0.49857 -0.0699 0.49857
v 0.49857 -0.0699 -0.49857
v -0.35935 0.49976 -0.35935
v -0.35935 0.49976 0.35935
v 0.35935 0.49976 0.35935
v 0.35935 0.49976 -0.35935
v -0.31289 -0.47869 -0.31289
v -0.31289 -0.47869 0.31289
v 0.31289 -0.47869 0.31289
v 0.31289 -0.47869 -0.31289
v -0.21032 0.04824 -0.21032
v -0.21032 0.04824 0.21032
v 0.21032 0.04824 0.21032
v 0.21032 0.04824 -0.21032
v -0.5 0 -0.5
v -0.5 0 0.5
v 0.5 0 0.5
v 0.5 0 -0.5
v -0.33722 0.49631 -0.33722
v -0.33722 0.49631 0.33722
v 0.33722 0.49631 0.33722
v 0.33722 0.49631 -0.33722
v -0.33452 -0.49509 -0.33452
v -0.33452 -0.49509 0.33452
v 0.33452 -0.49509 0.33452
v 0.33452 -0.49509 -0.33452
v -0.20965 0.00468 -0.20965
v -0.20965 0.00468 0.20965
v 0.20965 0.00468 0.20965
v 0.20965 0.00468 -0.20965
v -0.49876 0.06526 -0.49876
v -0.49876 0.06526 0.49876
v 0.49876 0.06526 0.49876
v 0.49876 0.06526 -0.49876
v -0.3155 0.48131 -0.3155
v -0.3155 0.48131 0.3155
v 0.3155 0.48131 0.3155
v 0.3155 0.48131 -0.3155
v -0.35663 -0.49996 -0.35663
v -0.35663 -0.49996 0.35663
v 0.35663 -0.49996 0.35663
v 0.35663 -0.49996 -0.35663
v -0.21008 -0.03892 -0.21008
v -0.21008 -0.03892 0.21008
v 0.21008 -0.03892 0.21008
v 0.21008 -0.03892 -0.21008
v -0.49505 0.12941 -0.49505
v -0.49505 0.12941 0.49505
v 0.49505 0.12941 0.49505
v 0.49505 0.12941 -0.49505
v -0.29487 0.45539 -0.29487
v -0.29487 0.45539 0.29487
v 0.29487 0.45539 0.29487
v 0.29487 0.45539 -0.29487
v -0.37863 -0.49323 -0.37863
v -0.37863 -0.49323 0.37863
v 0.37863 -0.49323 0.37863
v 0.37863 -0.49323 -0.37863
v -0.21165 -0.08287 -0.21165
v -0.21165 -0.08287 0.21165
v 0.21165 -0.08287 0.21165
v 0.21165 -0.08287 -0.21165
v -0.48892 0.19155 -0.48892
v -0.48892 0.19155 0.48892
v 0.48892 0.19155 0.48892
v 0.48892 0.19155 -0.48892
v -0.27609 0.42009 -0.27609
v -0.27609 0.42009 0.27609
v 0.27609 0.42009 0.27609
v 0.27609 0.42009 -0.27609
v -0.3999 -0.47529 -0.3999
v -0.3999 -0.47529 0.3999
v 0.3999 -0.47529 0.3999
v 0.3999 -0.47529 -0.3999
v -0.21448 -0.12804 -0.21448
v -0.21448 -0.12804 0.21448
v 0.21448 -0.12804 0.21448
v 0.21448 -0.12804 -0.21448
v -0.48039 0.25094 -0.48039
v -0.48039 0.25094 0.48039
v 0.48039 0.25094 0.48039
v 0.48039 0.25094 -0.48039
v -0.25968 0.37768 -0.25968
v -0.25968 0.37768 0.25968
v 0.25968 0.37768 0.25968
v 0.25968 0.37768 -0.25968
v -0.41988 -0.44698 -0.41988
v -0.41988 -0.44698 0.41988
v 0.41988 -0.44698 0.41988
v 0.41988 -0.44698 -0.41988
v -0.21882 -0.17498 -0.21882
v -0.21882 -0.17498 0.21882
v 0.21882 -0.17498 0.21882
v 0.21882 -0.17498 -0.21882
v -0.46947 0.30673 -0.46947
v -0.46947 0.30673 0.46947
v 0.46947 0.30673 0.46947
v 0.46947 0.30673 -0.46947
v -0.24592 0.33067 -0.24592
v -0.24592 0.33067 0.24592
v 0.24592 0.33067 0.24592
v 0.24592 0.33067 -0.24592
v -0.43811 -0.40953 -0.43811
v -0.43811 -0.40953 0.43811
v 0.43811 -0.40953 0.43811
v 0.43811 -0.40953 -0.43811
v -0.22499 -0.22373 -0.22499
v -0.22499 -0.22373 0.22499
v 0.22499 -0.22373 0.22499
v 0.22499 -0.22373 -0.22499

vt 0 0.75
vt 0.25 0.75
vt 0.25 1
vt 0 1
vt 0.25 0.75
vt 0.5 0.75
vt 0.5 1
vt 0.25 1
vt 0.5 0.75
vt 0.75 0.75
vt 0.75 1
vt 0.5 1
vt 0.75 0.75
vt 1 0.75
vt 1 1
vt 0.75 1
vt 0 0.5
vt 0.25 0.5
vt 0.25 0.75
vt 0 0.75
vt 0.25 0.5
vt 0.5 0.5
vt 0.5 0.75
vt 0.25 0.75
vt 0.5 0.5
vt 0.75 0.5
vt 0.75 0.75
vt 0.5 0.75
vt 0.75 0.5
vt 1 0.5
vt 1 0.75
vt 0.75 0.75
vt 0 0.25
vt 0.25 0.25
vt 0.25 0.5
vt 0 0.5
vt 0.25 0.25
vt 0.5 0.25
vt 0.5 0.5
vt 0.25 0.5
vt 0.5 0.25
vt 0.75 0.25
vt 0.75 0.5
vt 0.5 0.5
vt 0.75 0.25
vt 1 0.25
vt 1 0.5
vt 0.75 0.5

vn -1 -0.00272 0
vn 0 -0.00272 1
vn 1 -0.00272 0
vn 0 -0.00272 -1
vn 0.37962 -0.92514 0
vn 0 -0.92514 -0.37962
vn -0.37962 -0.92514 0
vn 0 -0.92514 0.37962
vn 1 0.00272 0
vn 0 0.00272 -1
vn -1 0.00272 0
vn 0 0.00272 1
vn 0.32623 0.94529 0
vn 0 0.94529 -0.32623
vn -0.32623 0.94529 0
vn 0 0.94529 0.32623
vn -0.70711 0 -0.70711
vn -0.70711 0 0.70711
vn 0.70711 0 0.70711
vn 0.70711 0 -0.70711
vn -0.1065 0.99431 0
vn 0 0.99431 0.1065
vn 0.1065 0.99431 0
vn 0 0.99431 -0.1065
vn -0.99904 -0.04374 0
vn 0 -0.04374 0.99904
vn 0.99904 -0.04374 0
vn 0 -0.04374 -0.99904
vn 0.65714 -0.75376 0
vn 0 -0.75376 -0.65714
vn -0.65714 -0.75376 0
vn 0 -0.75376 0.65714
vn 0.99929 0.03774 0
vn 0 0.03774 -0.99929
vn -0.99929 0.03774 0
vn 0 0.03774 0.99929
vn -0.70711 0 -0.70711
vn -0.70711 0 0.70711
vn 0.70711 0 0.70711
vn 0.70711 0 -0.70711
vn -0.49797 0.86719 0
vn 0 0.86719 0.49797
vn 0.49797 0.86719 0
vn 0 0.86719 -0.49797
vn -0.99626 -0.08638 0
vn 0 -0.08638 0.99626
vn 0.99626 -0.08638 0
vn 0 -0.08638 -0.99626
vn 0.80416 -0.59441 0
vn 0 -0.59441 -0.80416
vn -0.80416 -0.59441 0
vn 0 -0.59441 0.80416
vn 0.99728 0.07374 0
vn 0 0.07374 -0.99728
vn -0.99728 0.07374 0
vn 0 0.07374 0.99728
vn -0.70711 0 -0.70711
vn -0.70711 0 0.70711
vn 0.70711 0 0.70711
vn 0.70711 0 -0.70711
vn -0.73181 0.6815 0
vn 0 0.6815 0.73181
vn 0.73181 0.6815 0
vn 0 0.6815 -0.73181
vn -0.99121 -0.13233 0
vn 0 -0.13233 0.99121
vn 0.99121 -0.13233 0
vn 0 -0.13233 -0.99121
vn 0.88212 -0.47102 0
vn 0 -0.47102 -0.88212
vn -0.88212 -0.47102 0
vn 0 -0.47102 0.88212
vn 0.99374 0.11169 0
vn 0 0.11169 -0.99374
vn -0.99374 0.11169 0
vn 0 0.11169 0.99374
vn -0.70711 0 -0.70711
vn -0.70711 0 0.70711
vn 0.70711 0 0.70711
vn 0.70711 0 -0.70711
vn -0.85215 0.5233 0
vn 0 0.5233 0.85215
vn 0.85215 0.5233 0
vn 0 0.5233 -0.85215
vn -0.98296 -0.1838 0
vn 0 -0.1838 0.98296
vn 0.98296 -0.1838 0
vn 0 -0.1838 -0.98296
vn 0.92625 -0.3769 0
vn 0 -0.3769 -0.92625
vn -0.92625 -0.3769 0
vn 0 -0.3769 0.92625
vn 0.98826 0.15281 0
vn 0 0.15281 -0.98826
vn -0.98826 0.15281 0
vn 0 0.15281 0.98826
vn -0.70711 0 -0.70711
vn -0.70711 0 0.70711
vn 0.70711 0 0.70711
vn 0.70711 0 -0.70711
vn -0.91516 0.4031 0
vn 0 0.4031 0.91516
vn 0.91516 0.4031 0
vn 0 0.4031 -0.91516
vn -0.96981 -0.24386 0
vn 0 -0.24386 0.96981
vn 0.96981 -0.24386 0
vn 0 -0.24386 -0.96981
vn 0.95301 -0.30293 0
vn 0 -0.30293 -0.95301
vn -0.95301 -0.30293 0
vn 0 -0.30293 0.95301
vn 0.98008 0.1986 0
vn 0 0.1986 -0.98008
vn -0.98008 0.1986 0
vn 0 0.1986 0.98008
vn -0.70711 0 -0.70711
vn -0.70711 0 0.70711
vn 0.70711 0 0.70711
vn 0.70711 0 -0.70711
vn -0.9502 0.31165 0
vn 0 0.31165 0.9502
vn 0.9502 0.31165 0
vn 0 0.31165 -0.9502
vn -0.94843 -0.317 0
vn 0 -0.317 0.94843
vn 0.94843 -0.317 0
vn 0 -0.317 -0.94843
vn 0.97017 -0.24242 0
vn 0 -0.24242 -0.97017
vn -0.97017 -0.24242 0
vn 0 -0.24242 0.97017
vn 0.96794 0.25117 0
vn 0 0.25117 -0.96794
vn -0.96794 0.25117 0
vn 0 0.25117 0.96794
vn -0.70711 0 -0.70711
vn -0.70711 0 0.70711
vn 0.70711 0 0.70711
vn 0.70711 0 -0.70711
vn -0.97141 0.23742 0
vn 0 0.23742 0.97141
vn 0.97141 0.23742 0
vn 0 0.23742 -0.97141
vn -0.91048 -0.41355 0
vn 0 -0.41355 0.91048
vn 0.91048 -0.41355 0
vn 0 -0.41355 -0.91048
vn 0.98157 -0.19108 0
vn 0 -0.19108 -0.98157
vn -0.98157 -0.19108 0
vn 0 -0.19108 0.98157
vn 0.94961 0.31343 0
vn 0 0.31343 -0.94961
vn -0.94961 0.31343 0
vn 0 0.31343 0.94961
vn -0.70711 0 -0.70711
vn -0.70711 0 0.70711
vn 0.70711 0 0.70711
vn 0.70711 0 -0.70711
vn -0.98398 0.17828 0
vn 0 0.17828 0.98398
vn 0.98398 0.17828 0
vn 0 0.17828 -0.98398
vn -0.84325 -0.53753 0
vn 0 -0.53753 0.84325
vn 0.84325 -0.53753 0
vn 0 -0.53753 -0.84325
vn 0.98927 -0.14613 0
vn 0 -0.14613 -0.98927
vn -0.98927 -0.14613 0
vn 0 -0.14613 0.98927
vn 0.92085 0.38993 0
vn 0 0.38993 -0.92085
vn -0.92085 0.38993 0
vn 0 0.38993 0.92085
vn -0.70711 0 -0.70711
vn -0.70711 0 0.70711
vn 0.70711 0 0.70711
vn 0.70711 0 -0.70711
vn -0.99187 0.12726 0
vn 0 0.12726 0.99187
vn 0.99187 0.12726 0
vn 0 0.12726 -0.99187
vn -0.71331 -0.70085 0
vn 0 -0.70085 0.71331
vn 0.71331 -0.70085 0
vn 0 -0.70085 -0.71331
vn 0.99441 -0.1056 0
vn 0 -0.1056 -0.99441
vn -0.99441 -0.1056 0
vn 0 -0.1056 0.99441
vn 0.87302 0.48769 0
vn 0 0.48769 -0.87302
vn -0.87302 0.48769 0
vn 0 0.48769 0.87302
vn -0.70711 0 -0.70711
vn -0.70711 0 0.70711
vn 0.70711 0 0.70711
vn 0.70711 0 -0.70711
vn -0.99668 0.08142 0
vn 0 0.08142 0.99668
vn 0.99668 0.08142 0
vn 0 0.08142 -0.99668
vn -0.45998 -0.88793 0
vn 0 -0.88793 0.45998
vn 0.45998 -0.88793 0
vn 0 -0.88793 -0.45998
vn 0.99768 -0.06802 0
vn 0 -0.06802 -0.99768
vn -0.99768 -0.06802 0
vn 0 -0.06802 0.99768
vn 0.78779 0.61594 0
vn 0 0.61594 -0.78779
vn -0.78779 0.61594 0
vn 0 0.61594 0.78779
vn -0.70711 0 -0.70711
vn -0.70711 0 0.70711
vn 0.70711 0 0.70711
vn 0.70711 0 -0.70711
vn -0.99925 0.03866 0
vn 0 0.03866 0.99925
vn 0.99925 0.03866 0
vn 0 0.03866 -0.99925
vn -0.04771 -0.99886 0
vn 0 -0.99886 0.04771
vn 0.04771 -0.99886 0
vn 0 -0.99886 -0.04771
vn 0.99948 -0.03224 0
vn 0 -0.03224 -0.99948
vn -0.99948 -0.03224 0
vn 0 -0.03224 0.99948
vn 0.62638 0.77951 0
vn 0 0.77951 -0.62638
vn -0.62638 0.77951 0
vn 0 0.77951 0.62638
vn -0.70711 0 -0.70711
vn -0.70711 0 0.70711
vn -0.99925 0.03866 0
vn 0 0.03866 0.99925

s off
f 1/1/1 2/2/1 6/3/1 5/4/1
f 2/1/2 3/2/2 7/3/2 6/4/2
f 3/1/3 4/2/3 8/3/3 7/4/3
f 4/1/4 1/2/4 5/3/4 8/4/4
f 9/1/5 10/2/5 2/3/5 1/4/5
f 10/1/6 11/2/6 3/3/6 2/4/6
f 11/1/7 12/2/7 4/3/7 3/4/7
f 12/1/8 9/2/8 1/3/8 4/4/8
f 10/1/9 9/2/9 13/3/9 14/4/9
f 11/1/10 10/2/10 14/3/10 15/4/10
f 12/1/11 11/2/11 15/3/11 16/4/11
f 9/1/12 12/2/12 16/3/12 13/4/12
f 14/1/13 13/2/13 5/3/13 6/4/13
f 15/1/14 14/2/14 6/3/14 7/4/14
f 16/1/15 15/2/15 7/3/15 8/4/15
f 13/1/16 16/2/16 8/3/16 5/4/16
f 10/1/17 2/2/17 6/3/17 14/4/17
f 11/1/18 3/2/18 7/3/18 15/4/18
f 12/1/19 4/2/19 8/3/19 16/4/19
f 9/1/20 1/2/20 5/3/20 13/4/20
f 177/5/21 178/6/21 182/7/21 181/8/21
f 178/5/22 179/6/22 183/7/22 182/8/22
f 179/5/23 180/6/23 184/7/23 183/8/23
f 180/5/24 177/6/24 181/7/24 184/8/24
f 185/5/25 186/6/25 178/7/25 177/8/25
f 186/5/26 187/6/26 179/7/26 178/8/26
f 187/5/27 188/6/27 180/7/27 179/8/27
f 188/5/28 185/6/28 177/7/28 180/8/28
f 186/5/29 185/6/29 189/7/29 190/8/29
f 187/5/30 186/6/30 190/7/30 191/8/30
f 188/5/31 187/6/31 191/7/31 192/8/31
f 185/5/32 188/6/32 192/7/32 189/8/32
f 190/5/33 189/6/33 181/7/33 182/8/33
f 191/5/34 190/6/34 182/7/34 183/8/34
f 192/5/35 191/6/35 183/7/35 184/8/35
f 189/5/36 192/6/36 184/7/36 181/8/36
f 186/5/37 178/6/37 182/7/37 190/8/37
f 187/5/38 179/6/38 183/7/38 191/8/38
f 188/5/39 180/6/39 184/7/39 192/8/39
f 185/5/40 177/6/40 181/7/40 189/8/40
f 161/9/41 162/10/41 166/11/41 165/12/41
f 162/9/42 163/10/42 167/11/42 166/12/42
f 163/9/43 164/10/43 168/11/43 167/12/43
f 164/9/44 161/10/44 165/11/44 168/12/44
f 169/9/45 170/10/45 162/11/45 161/12/45
f 170/9/46 171/10/46 163/11/46 162/12/46
f 171/9/47 172/10/47 164/11/47 163/12/47
f 172/9/48 169/10/48 161/11/48 164/12/48
f 170/9/49 169/10/49 173/11/49 174/12/49
f 171/9/50 170/10/50 174/11/50 175/12/50
f 172/9/51 171/10/51 175/11/51 176/12/51
f 169/9/52 172/10/52 176/11/52 173/12/52
f 174/9/53 173/10/53 165/11/53 166/12/53
f 175/9/54 174/10/54 166/11/54 167/12/54
f 176/9/55 175/10/55 167/11/55 168/12/55
f 173/9/56 176/10/56 168/11/56 165/12/56
f 170/9/57 162/10/57 166/11/57 174/12/57
f 171/9/58 163/10/58 167/11/58 175/12/58
f 172/9/59 164/10/59 168/11/59 176/12/59
f 169/9/60 161/10/60 165/11/60 173/12/60
f 145/13/61 146/14/61 150/15/61 149/16/61
f 146/13/62 147/14/62 151/15/62 150/16/62
f 147/13/63 148/14/63 152/15/63 151/16/63
f 148/13/64 145/14/64 149/15/64 152/16/64
f 153/13/65 154/14/65 146/15/65 145/16/65
f 154/13/66 155/14/66 147/15/66 146/16/66
f 155/13/67 156/14/67 148/15/67 147/16/67
f 156/13/68 153/14/68 145/15/68 148/16/68
f 154/13/69 153/14/69 157/15/69 158/16/69
f 155/13/70 154/14/70 158/15/70 159/16/70
f 156/13/71 155/14/71 159/15/71 160/16/71
f 153/13/72 156/14/72 160/15/72 157/16/72
f 158/13/73 157/14/73 149/15/73 150/16/73
f 159/13/74 158/14/74 150/15/74 151/16/74
f 160/13/75 159/14/75 151/15/75 152/16/75
f 157/13/76 160/14/76 152/15/76 149/16/76
f 154/13/77 146/14/77 150/15/77 158/16/77
f 155/13/78 147/14/78 151/15/78 159/16/78
f 156/13/79 148/14/79 152/15/79 160/16/79
f 153/13/80 145/14/80 149/15/80 157/16/80
f 129/17/81 130/18/81 134/19/81 133/20/81
f 130/17/82 131/18/82 135/19/82 134/20/82
f 131/17/83 132/18/83 136/19/83 135/20/83
f 132/17/84 129/18/84 133/19/84 136/20/84
f 137/17/85 138/18/85 130/19/85 129/20/85
f 138/17/86 139/18/86 131/19/86 130/20/86
f 139/17/87 140/18/87 132/19/87 131/20/87
f 140/17/88 137/18/88 129/19/88 132/20/88
f 138/17/89 137/18/89 141/19/89 142/20/89
f 139/17/90 138/18/90 142/19/90 143/20/90
f 140/17/91 139/18/91 143/19/91 144/20/91
f 137/17/92 140/18/92 144/19/92 141/20/92
f 142/17/93 141/18/93 133/19/93 134/20/93
f 143/17/94 142/18/94 134/19/94 135/20/94
f 144/17/95 143/18/95 135/19/95 136/20/95
f 141/17/96 144/18/96 136/19/96 133/20/96
f 138/17/97 130/18/97 134/19/97 142/20/97
f 139/17/98 131/18/98 135/19/98 143/20/98
f 140/17/99 132/18/99 136/19/99 144/20/99
f 137/17/100 129/18/100 133/19/100 141/20/100
f 113/21/101 114/22/101 118/23/101 117/24/101
f 114/21/102 115/22/102 119/23/102 118/24/102
f 115/21/103 116/22/103 120/23/103 119/24/103
f 116/21/104 113/22/104 117/23/104 120/24/104
f 121/21/105 122/22/105 114/23/105 113/24/105
f 122/21/106 123/22/106 115/23/106 114/24/106
f 123/21/107 124/22/107 116/23/107 115/24/107
f 124/21/108 121/22/108 113/23/108 116/24/108
f 122/21/109 121/22/109 125/23/109 126/24/109
f 123/21/110 122/22/110 126/23/110 127/24/110
f 124/21/111 123/22/111 127/23/111 128/24/111
f 121/21/112 124/22/112 128/23/112 125/24/112
f 126/21/113 125/22/113 117/23/113 118/24/113
f 127/21/114 126/22/114 118/23/114 119/24/114
f 128/21/115 127/22/115 119/23/115 120/24/115
f 125/21/116 128/22/116 120/23/116 117/24/116
f 122/21/117 114/22/117 118/23/117 126/24/117
f 123/21/118 115/22/118 119/23/118 127/24/118
f 124/21/119 116/22/119 120/23/119 128/24/119
f 121/21/120 113/22/120 117/23/120 125/24/120
f 97/25/121 98/26/121 102/27/121 101/28/121
f 98/25/122 99/26/122 103/27/122 102/28/122
f 99/25/123 100/26/123 104/27/123 103/28/123
f 100/25/124 97/26/124 101/27/124 104/28/124
f 105/25/125 106/26/125 98/27/125 97/28/125
f 106/25/126 107/26/126 99/27/126 98/28/126
f 107/25/127 108/26/127 100/27/127 99/28/127
f 108/25/128 105/26/128 97/27/128 100/28/128
f 106/25/129 105/26/129 109/27/129 110/28/129
f 107/25/130 106/26/130 110/27/130 111/28/130
f 108/25/131 107/26/131 111/27/131 112/28/131
f 105/25/132 108/26/132 112/27/132 109/28/132
f 110/25/133 109/26/133 101/27/133 102/28/133
f 111/25/134 110/26/134 102/27/134 103/28/134
f 112/25/135 111/26/135 103/27/135 104/28/135
f 109/25/136 112/26/136 104/27/136 101/28/136
f 106/25/137 98/26/137 102/27/137 110/28/137
f 107/25/138 99/26/138 103/27/138 111/28/138
f 108/25/139 100/26/139 104/27/139 112/28/139
f 105/25/140 97/26/140 101/27/140 109/28/140
f 81/29/141 82/30/141 86/31/141 85/32/141
f 82/29/142 83/30/142 87/31/142 86/32/142
f 83/29/143 84/30/143 88/31/143 87/32/143
f 84/29/144 81/30/144 85/31/144 88/32/144
f 89/29/145 90/30/145 82/31/145 81/32/145
f 90/29/146 91/30/146 83/31/146 82/32/146
f 91/29/147 92/30/147 84/31/147 83/32/147
f 92/29/148 89/30/148 81/31/148 84/32/148
f 90/29/149 89/30/149 93/31/149 94/32/149
f 91/29/150 90/30/150 94/31/150 95/32/150
f 92/29/151 91/30/151 95/31/151 96/32/151
f 89/29/152 92/30/152 96/31/152 93/32/152
f 94/29/153 93/30/153 85/31/153 86/32/153
f 95/29/154 94/30/154 86/31/154 87/32/154
f 96/29/155 95/30/155 87/31/155 88/32/155
f 93/29/156 96/30/156 88/31/156 85/32/156
f 90/29/157 82/30/157 86/31/157 94/32/157
f 91/29/158 83/30/158 87/31/158 95/32/158
f 92/29/159 84/30/159 88/31/159 96/32/159
f 89/29/160 81/30/160 85/31/160 93/32/160
f 65/33/161 66/34/161 70/35/161 69/36/161
f 66/33/162 67/34/162 71/35/162 70/36/162
f 67/33/163 68/34/163 72/35/163 71/36/163
f 68/33/164 65/34/164 69/35/164 72/36/164
f 73/33/165 74/34/165 66/35/165 65/36/165
f 74/33/166 75/34/166 67/35/166 66/36/166
f 75/33/167 76/34/167 68/35/167 67/36/167
f 76/33/168 73/34/168 65/35/168 68/36/168
f 74/33/169 73/34/169 77/35/169 78/36/169
f 75/33/170 74/34/170 78/35/170 79/36/170
f 76/33/171 75/34/171 79/35/171 80/36/171
f 73/33/172 76/34/172 80/35/172 77/36/172
f 78/33/173 77/34/173 69/35/173 70/36/173
f 79/33/174 78/34/174 70/35/174 71/36/174
f 80/33/175 79/34/175 71/35/175 72/36/175
f 77/33/176 80/34/176 72/35/176 69/36/176
f 74/33/177 66/34/177 70/35/177 78/36/177
f 75/33/178 67/34/178 71/35/178 79/36/178
f 76/33/179 68/34/179 72/35/179 80/36/179
f 73/33/180 65/34/180 69/35/180 77/36/180
f 49/37/181 50/38/181 54/39/181 53/40/181
f 50/37/182 51/38/182 55/39/182 54/40/182
f 51/37/183 52/38/183 56/39/183 55/40/183
f 52/37/184 49/38/184 53/39/184 56/40/184
f 57/37/185 58/38/185 50/39/185 49/40/185
f 58/37/186 59/38/186 51/39/186 50/40/186
f 59/37/187 60/38/187 52/39/187 51/40/187
f 60/37/188 57/38/188 49/39/188 52/40/188
f 58/37/189 57/38/189 61/39/189 62/40/189
f 59/37/190 58/38/190 62/39/190 63/40/190
f 60/37/191 59/38/191 63/39/191 64/40/191
f 57/37/192 60/38/192 64/39/192 61/40/192
f 62/37/193 61/38/193 53/39/193 54/40/193
f 63/37/194 62/38/194 54/39/194 55/40/194
f 64/37/195 63/38/195 55/39/195 56/40/195
f 61/37/196 64/38/196 56/39/196 53/40/196
f 58/37/197 50/38/197 54/39/197 62/40/197
f 59/37/198 51/38/198 55/39/198 63/40/198
f 60/37/199 52/38/199 56/39/199 64/40/199
f 57/37/200 49/38/200 53/39/200 61/40/200
f 33/41/201 34/42/201 38/43/201 37/44/201
f 34/41/202 35/42/202 39/43/202 38/44/202
f 35/41/203 36/42/203 40/43/203 39/44/203
f 36/41/204 33/42/204 37/43/204 40/44/204
f 41/41/205 42/42/205 34/43/205 33/44/205
f 42/41/206 43/42/206 35/43/206 34/44/206
f 43/41/207 44/42/207 36/43/207 35/44/207
f 44/41/208 41/42/208 33/43/208 36/44/208
f 42/41/209 41/42/209 45/43/209 46/44/209
f 43/41/210 42/42/210 46/43/210 47/44/210
f 44/41/211 43/42/211 47/43/211 48/44/211
f 41/41/212 44/42/212 48/43/212 45/44/212
f 46/41/213 45/42/213 37/43/213 38/44/213
f 47/41/214 46/42/214 38/43/214 39/44/214
f 48/41/215 47/42/215 39/43/215 40/44/215
f 45/41/216 48/42/216 40/43/216 37/44/216
f 42/41/217 34/42/217 38/43/217 46/44/217
f 43/41/218 35/42/218 39/43/218 47/44/218
f 44/41/219 36/42/219 40/43/219 48/44/219
f 41/41/220 33/42/220 37/43/220 45/44/220
f 17/45/221 18/46/221 22/47/221 21/48/221
f 18/45/222 19/46/222 23/47/222 22/48/222
f 19/45/223 20/46/223 24/47/223 23/48/223
f 20/45/224 17/46/224 21/47/224 24/48/224
f 25/45/225 26/46/225 18/47/225 17/48/225
f 26/45/226 27/46/226 19/47/226 18/48/226
f 27/45/227 28/46/227 20/47/227 19/48/227
f 28/45/228 25/46/228 17/47/228 20/48/228
f 26/45/229 25/46/229 29/47/229 30/48/229
f 27/45/230 26/46/230 30/47/230 31/48/230
f 28/45/231 27/46/231 31/47/231 32/48/231
f 25/45/232 28/46/232 32/47/232 29/48/232
f 30/45/233 29/46/233 21/47/233 22/48/233
f 31/45/234 30/46/234 22/47/234 23/48/234
f 32/45/235 31/46/235 23/47/235 24/48/235
f 29/45/236 32/46/236 24/47/236 21/48/236
f 26/45/237 18/46/237 22/47/237 30/48/237
f 27/45/238 19/46/238 23/47/238 31/48/238
f 17/45/239 18/46/239 22/47/239 21/48/239
f 18/45/240 19/46/240 23/47/240 22/48/240




