# WaveFront *.obj file (generated by CINEMA 4D)

mtllib ./ToiletMesh.mtl

v 0.2653 -0.0723 -0.1104
v -0.1588 -0.4504 0.3119
v -0.1111 -0.15 -0.0504
v -0.1623 0.1751 -0.335
v -0.2746 0.1751 0.1765
v 0.1588 -0.4504 -0.0882
v 0.1534 0.1751 -0.3354
v 0.2746 0.1751 0.1766
v -0.2123 -0.0723 0.3704
v 0.2123 -0.0723 0.3704
v -0.1588 -0.4504 -0.0882
v 0.2746 0.5055 0.1766
v -0.2746 0.5055 0.1765
v -0.2746 0.5055 0.4086
v 0.2746 0.5055 0.4086
v 0.1588 -0.4504 0.3119
v 0.2746 0.1751 -0.1992
v -0.2746 0.1751 -0.1992
v -0.2746 0.1751 0.4086
v 0.2746 0.1751 0.4086
v -0.2654 -0.0723 -0.1104
v 0.1111 -0.15 -0.0504
v -0 0.1751 -0.3761
v 0.1109 -0.15 0.2826
v -0.1111 -0.15 0.2826
v 0.1734 -0.0267 -0.3131
v -0.1687 -0.0267 -0.3137
v -0.0004 -0.1183 -0.1963
v -0.1286 -0.3392 -0.0595
v 0.1286 -0.3392 -0.0595
v 0.0036 0.0217 -0.372
v -0.1286 -0.3392 0.2847
v 0.1286 -0.3392 0.2847
v -0.127 -0.4213 -0.063
v 0.127 -0.4213 -0.063
v 0.1588 -0.5 -0.0882
v -0.1588 -0.5 -0.0882
v -0.127 -0.4213 0.2867
v 0.127 -0.4213 0.2867
v 0.1588 -0.5 0.3119
v -0.1588 -0.5 0.3119
# 41 vertices

vn 0.00012500390585 0.00000000000000 -1.00000000000000
vn 0.00000000000000 -0.05096939578652 0.99870020151138
vn 0.00000000000000 0.00000000000000 1.00000000000000
vn 0.00000000000000 -0.10193846374750 0.99479073286057
vn -1.00000000000000 0.00000000000000 0.00000000000000
vn -0.99336671829224 -0.11172133684158 0.02721938118339
vn -0.99663227796555 -0.08200059831142 0.00000000000000
vn 1.00000000000000 0.00000000000000 0.00000000000000
vn 0.99239093065262 -0.12312697619200 0.00000000000000
vn 0.99576044082642 -0.08937593549490 0.02175022847950
vn 0.33331945538521 -0.66667014360428 0.66667014360428
vn -0.81651741266251 -0.40822744369507 0.40822744369507
vn -0.44720107316971 -0.89443343877792 0.00000000000000
vn 0.89443343877792 -0.44720107316971 0.00000000000000
vn 0.00000000000000 1.00000000000000 0.00000000000000
vn 0.00000000000000 0.04618872329593 -0.99893271923065
vn -0.11590935289860 -0.73951983451843 -0.66308027505875
vn 0.08912591636181 -0.55438071489334 -0.82747727632523
vn 0.00000000000000 0.04418852552772 -0.99902319908142
vn -0.00006250123261 -0.90204906463623 -0.43163350224495
vn 0.05706329271197 -0.37975528836250 -0.92332535982132
vn 0.52101600170136 -0.46613931655884 -0.71502196788788
vn -0.62904953956604 -0.58601701259613 -0.51076483726501
vn -0.74599033594131 -0.24972596764565 -0.61736160516739
vn -0.67873454093933 -0.12940926849842 -0.72289186716080
vn 0.00000000000000 0.25909584760666 -0.96585160493851
vn -0.41329330205917 -0.44213789701462 -0.79605448246002
vn 0.82268095016480 -0.09678415954113 -0.56020432710648
vn 0.52695614099503 -0.73108828067780 -0.43339028954506
vn 0.45269325375557 -0.03250041231513 -0.89107382297516
vn -0.10337614268064 -0.05059431120753 -0.99335473775864
vn 0.00000000000000 0.47385010123253 -0.88060551881790
vn 0.00000000000000 0.46213877201080 -0.88680762052536
vn 0.00000000000000 0.23106984794140 -0.97293716669083
vn 0.91244888305664 -0.20984634757042 0.35128560662270
vn 0.70635914802551 0.02381302043796 0.70745295286179
vn 0.99847251176834 0.05525020882487 0.00018750070012
vn 0.47538679838181 0.40347874164581 0.78180068731308
vn 0.91920161247253 0.39378729462624 0.00000000000000
vn 0.91535007953644 0.40265899896622 0.00000000000000
vn 0.66644853353500 0.55347794294357 0.49950829148293
vn 0.79371511936188 -0.60795867443085 0.02006319910288
vn 0.82266968488693 -0.56685298681259 0.04350071027875
vn 0.91264724731445 -0.40438488125801 0.05956395715475
vn 0.99929660558701 -0.03750057518482 0.00000000000000
vn 0.00000000000000 -0.37072786688805 0.92874157428741
vn -0.00009375250374 -0.58070302009583 0.81411546468735
vn -0.61208736896515 -0.48392590880394 0.62543165683746
vn -0.55960655212402 0.50660526752472 0.65588992834091
vn -0.00015625203378 -0.74891602993011 0.66266489028931
vn -0.63777017593384 0.48448410630226 0.59876900911331
vn -0.70517122745514 0.05309487879276 0.70704632997513
vn -0.99984246492386 0.01775053143501 0.00000000000000
vn -0.85036170482636 0.52619862556458 0.00000000000000
vn -0.96030706167221 -0.27894499897957 0.00000000000000
vn -0.96408343315125 0.26559951901436 0.00000000000000
vn -0.89808237552643 -0.43557214736938 0.06103260070086
vn -0.84282159805298 -0.53603702783585 0.04812552034855
vn -0.99929660558701 -0.03750057518482 0.00000000000000
# 59 normals

vt 0.63921600580215 0.47451007366180 0.00000000000000
vt 0.63921600580215 0.66666704416275 0.00000000000000
vt 0.97254902124405 0.66666704416275 0.00000000000000
vt 0.97254902124405 0.47451007366180 0.00000000000000
vt 0.00000000000000 0.00000000000000 0.00000000000000
vt 0.16470600664616 0.67058801651001 0.00000000000000
vt 0.16470600664616 0.47058808803558 0.00000000000000
vt 0.00392200006172 0.47058808803558 0.00000000000000
vt 0.00392200006172 0.67058801651001 0.00000000000000
vt 0.09019599854946 0.00392198562622 0.00000000000000
vt 0.33725500106812 0.00392198562622 0.00000000000000
vt 0.32548999786377 1.00000000000000 0.00000000000000
vt 0.66274499893188 0.70588201284409 0.00000000000000
vt 0.57647097110748 0.62745100259781 0.00000000000000
vt 0.32548999786377 0.62745100259781 0.00000000000000
vt 0.17254899442196 0.62745100259781 0.00000000000000
vt 0.17254899442196 1.00000000000000 0.00000000000000
vt 0.57647097110748 1.00000000000000 0.00000000000000
vt 0.66666698455811 0.92156898975372 0.00000000000000
vt 0.69019597768784 0.81568598747253 0.00000000000000
vt 0.72941201925278 0.11372506618500 0.00000000000000
vt 0.74117600917816 0.24313700199127 0.00000000000000
vt 0.87450999021530 0.24313700199127 0.00000000000000
vt 0.88627499341965 0.11372506618500 0.00000000000000
vt 0.80784302949905 0.26666700839996 0.00000000000000
vt 0.80784302949905 0.36078405380249 0.00000000000000
vt 0.91372501850128 0.32941198348999 0.00000000000000
vt 0.64705902338028 0.29803907871246 0.00000000000000
vt 0.70980399847031 0.47451007366180 0.00000000000000
vt 0.72941201925278 0.05490207672119 0.00000000000000
vt 0.70588201284409 0.32941198348999 0.00000000000000
vt 0.96862697601318 0.29803907871246 0.00000000000000
vt 0.90196102857590 0.47451007366180 0.00000000000000
vt 0.80784302949905 0.47451007366180 0.00000000000000
vt 0.88235300779343 0.05490207672119 0.00000000000000
vt 0.70980399847031 0.03529405593872 0.00000000000000
vt 0.90196102857590 0.03529405593872 0.00000000000000
vt 0.70980399847031 0.00000000000000 0.00000000000000
vt 0.90196102857590 0.00000000000000 0.00000000000000
vt 0.10980399698019 0.24705898761749 0.00000000000000
vt 0.10588199645281 0.11372506618500 0.00000000000000
vt 0.32156899571419 0.11372506618500 0.00000000000000
vt 0.10588199645281 0.05882406234741 0.00000000000000
vt 0.32156899571419 0.05882406234741 0.00000000000000
vt 0.33725500106812 0.03921604156494 0.00000000000000
vt 0.09019599854946 0.03921604156494 0.00000000000000
vt 0.31372600793838 0.24705898761749 0.00000000000000
vt 0.05490199849010 0.30196106433868 0.00000000000000
vt 0.35294100642204 0.30196106433868 0.00000000000000
vt 0.40784299373627 0.47058808803558 0.00000000000000
# 50 texture coordinates

o material_0
usemtl material_0
f 5/1/1 13/2/1 12/3/1
f 12/3/1 8/4/1 5/1/1
f 20/5/2 15/5/3 14/5/3
f 20/5/2 14/5/3 19/5/4
f 13/6/5 5/7/6 19/8/7
f 15/9/8 20/8/9 8/7/10
f 8/7/10 12/6/8 15/9/8
f 13/6/5 19/8/7 14/9/5
f 40/10/11 41/10/12 37/11/13
f 37/11/13 36/11/14 40/10/11
f 8/12/15 4/13/15 18/14/15
f 13/15/15 14/16/15 15/17/15
f 15/17/15 12/12/15 13/15/15
f 8/12/15 17/18/15 7/19/15
f 8/12/15 7/19/15 23/20/15
f 8/12/15 23/20/15 4/13/15
f 18/14/15 5/15/15 8/12/15
f 29/21/16 3/22/17 22/23/18
f 22/23/18 30/24/19 29/21/16
f 28/25/20 31/26/21 26/27/22
f 21/28/23 18/1/24 4/29/25
f 34/30/26 29/21/16 30/24/19
f 31/26/21 28/25/20 27/31/27
f 17/4/28 1/32/29 26/27/22
f 26/27/22 31/26/21 7/33/30
f 4/29/25 23/34/31 27/31/27
f 30/24/19 35/35/32 34/30/26
f 3/22/17 21/28/23 28/25/20
f 11/36/33 34/30/26 35/35/32
f 35/35/32 6/37/34 11/36/33
f 37/38/1 11/36/33 6/37/34
f 6/37/34 36/39/1 37/38/1
f 26/27/22 1/32/29 28/25/20
f 17/4/28 26/27/22 7/33/30
f 3/22/17 28/25/20 22/23/18
f 28/25/20 1/32/29 22/23/18
f 27/31/27 23/34/31 31/26/21
f 7/33/30 31/26/21 23/34/31
f 21/28/23 4/29/25 27/31/27
f 21/28/23 27/31/27 28/25/20
f 24/40/35 33/41/36 30/42/37
f 33/41/36 39/43/38 35/44/39
f 36/11/14 6/45/40 16/46/41
f 35/44/39 30/42/37 33/41/36
f 30/42/37 22/47/42 24/40/35
f 6/45/40 35/44/39 16/46/41
f 39/43/38 16/46/41 35/44/39
f 16/46/41 40/10/11 36/11/14
f 10/48/43 24/40/35 22/47/42
f 22/47/42 1/49/44 10/48/43
f 1/49/44 17/50/45 8/7/10
f 20/8/9 10/48/43 8/7/10
f 1/49/44 8/7/10 10/48/43
f 10/5/46 20/5/2 19/5/4
f 19/5/4 9/5/47 10/5/46
f 33/41/36 24/40/35 25/40/48
f 2/46/49 41/10/12 40/10/11
f 24/5/50 10/5/46 9/5/47
f 38/43/51 2/46/49 16/46/41
f 16/46/41 39/43/38 38/43/51
f 40/10/11 16/46/41 2/46/49
f 39/43/38 33/41/36 32/41/52
f 25/40/48 32/41/52 33/41/36
f 9/5/47 25/5/50 24/5/50
f 32/41/52 38/43/51 39/43/38
f 29/42/53 34/44/54 38/43/51
f 3/47/55 29/42/53 32/41/52
f 34/44/54 11/45/56 2/46/49
f 2/46/49 38/43/51 34/44/54
f 38/43/51 32/41/52 29/42/53
f 25/40/48 9/48/57 21/49/58
f 32/41/52 25/40/48 3/47/55
f 21/49/58 3/47/55 25/40/48
f 41/10/12 2/46/49 11/45/56
f 11/45/56 37/11/13 41/10/12
f 9/48/57 19/8/7 5/7/6
f 18/50/59 21/49/58 5/7/6
f 9/48/57 5/7/6 21/49/58

