#{v,vt,vn,f}~{32+16+16+16,14+22,6+6+6,24+10+10+10}
O cube
v 0.5 -0.5 -0.5
v 0.5 -0.5 0.5
v -0.5 -0.5 0.5
v -0.5 -0.5 -0.5
v -0.5 0.5 -0.5
v -0.5 0.5 0.5
v 0.5 0.5 0.5
v 0.5 0.5 -0.5
v 0.375 0.375 -0.5
v 0.375 0.375 0.375
v -0.375 0.375 0.375
v -0.375 0.375 -0.5
v -0.375 -0.375 -0.5
v -0.375 -0.375 0.375
v 0.375 -0.375 0.375
v 0.375 -0.375 -0.5

v 0.5 0.5 0
v -0.5 0.5 0
v -0.5 -0.5 0
v 0.5 -0.5 0
v 0.375 -0.375 0
v 0.375 0.375 0
v -0.375 0.375 0
v -0.375 -0.375 0
v 0 0.375 0.375
v 0 -0.375 0.375
v 0 -0.5 0.5
v 0 0.5 0.5
v 0 0.5 -0.5
v 0 0.375 -0.5
v 0 -0.375 -0.5
v 0 -0.5 -0.5

v -0.28287 -0.365 -0.17585
v -0.36711 -0.365 0.317
v -0.36711 0.26 0.317
v -0.28287 0.26 -0.17585
v -0.13501 0.26 -0.15058
v -0.21926 0.26 0.34228
v -0.21926 -0.365 0.34228
v -0.13501 -0.365 -0.15058
v -0.17713 -0.365 0.09585
v -0.32499 -0.365 0.07058
v -0.21926 -0.05249 0.34228
v -0.36712 -0.0525 0.317
v -0.17713 0.26 0.09585
v -0.32499 0.26 0.07058
v -0.13501 -0.05249 -0.15058
v -0.28288 -0.0525 -0.17585
v -0.10937 -0.365 -0.17585
v -0.19361 -0.365 0.317
v -0.19361 0.26 0.317
v -0.10937 0.26 -0.17585
v 0.03849 0.26 -0.15058
v -0.04576 0.26 0.34228
v -0.04576 -0.365 0.34228
v 0.03849 -0.365 -0.15058
v -0.00363 -0.365 0.09585
v -0.15149 -0.365 0.07058
v -0.04576 -0.05249 0.34228
v -0.19362 -0.0525 0.317
v -0.00363 0.26 0.09585
v -0.15149 0.26 0.07058
v 0.03849 -0.05249 -0.15058
v -0.10938 -0.0525 -0.17585
v 0.06413 -0.365 -0.17585
v -0.02011 -0.365 0.317
v -0.02011 0.26 0.317
v 0.06413 0.26 -0.17585
v 0.21199 0.26 -0.15058
v 0.12774 0.26 0.34228
v 0.12774 -0.365 0.34228
v 0.21199 -0.365 -0.15058
v 0.16987 -0.365 0.09585
v 0.02201 -0.365 0.07058
v 0.12774 -0.05249 0.34228
v -0.02012 -0.0525 0.317
v 0.16987 0.26 0.09585
v 0.02201 0.26 0.07058
v 0.21199 -0.05249 -0.15058
v 0.06412 -0.0525 -0.17585
v 0.21806 -0.365 -0.2527
v 0.21806 -0.365 0.2473
v 0.21806 0.26 0.2473
v 0.21806 0.26 -0.2527
v 0.36806 0.26 -0.2527
v 0.36806 0.26 0.24731
v 0.36806 -0.365 0.24731
v 0.36806 -0.365 -0.2527
v 0.36806 -0.365 -0.0027
v 0.21806 -0.365 -0.00269
v 0.36806 -0.05249 0.24731
v 0.21805 -0.0525 0.2473
v 0.36806 0.26 -0.0027
v 0.21806 0.26 -0.00269
v 0.36806 -0.05249 -0.2527
v 0.21805 -0.0525 -0.2527


vt 0 0
vt 0.5 0
vt 0.5 1
vt 0 1

vt 0.125 0.125
vt 0.125 0.875
vt 0.375 0.125
vt 0.375 0.875

vt 0.25 0
vt 0.25 0.125
vt 0.25 0.875
vt 0.25 1

vt 0.5 0.75
vt 0 0.75
#bks
vt 0.5 0
vt 1 0
vt 1 0.625
vt 0.5 0.625

vt 0.875 0.84375
vt 0.875 1
vt 0.625 1
vt 0.625 0.84375

vt 0.5 1
vt 0.5 0.84375
vt 0.75 0.84375
vt 0.75 1
vt 0.8125 0.84375
vt 0.8125 1

vt 1 1
vt 0.84375 1
vt 0.84375 0.6875
vt 1 0.6875

vt 0.84375 0.625
vt 1 0.625
vt 1 0.9375
vt 0.84375 0.9375

vn 0 -1 0
vn -1 0 0
vn 0 0 1
vn 1 0 0
vn 0 1 0
vn 0 0 -1
#bk1-3
vn 0.9857 -0 0.16849
vn -0.16849 0 0.9857
vn 0 1 0
vn 0.16849 0 -0.9857
vn -0.9857 0 -0.16849
vn -0 -1 0
#bk4
vn 1 -0 0
vn -0 0 1
vn 0 1 0
vn 0 0 -1
vn -1 0 -0
vn -0 -1 0

s off
f 1/1/1 20/2/1 19/3/1 4/4/1
f 20/3/1 2/4/1 3/1/1 19/2/1
f 4/1/2 19/2/2 18/3/2 5/4/2
f 19/3/2 3/4/2 6/1/2 18/2/2
f 3/1/3 27/2/3 28/3/3 6/4/3
f 27/3/3 2/4/3 7/1/3 28/2/3
f 2/1/4 20/2/4 17/3/4 7/4/4
f 20/3/4 1/4/4 8/1/4 17/2/4
f 7/1/5 17/2/5 18/3/5 6/4/5
f 17/3/5 8/4/5 5/1/5 18/2/5


f 1/1/6 16/5/6 9/6/6 8/4/6
f 12/7/6 5/2/6 8/3/6 9/8/6
f 5/1/6 12/5/6 13/6/6 4/4/6
f 16/7/6 1/2/6 4/3/6 13/8/6

f 13/1/5 24/2/5 21/13/5 16/14/5
f 24/13/5 14/14/5 15/1/5 21/2/5
f 24/1/4 13/2/4 12/13/4 23/14/4
f 14/13/4 24/14/4 23/1/4 11/2/4
f 26/1/6 14/2/6 11/13/6 25/14/6
f 15/13/6 26/14/6 25/1/6 10/2/6
f 21/1/2 15/2/2 10/13/2 22/14/2
f 16/13/2 21/14/2 22/1/2 9/2/2
f 11/1/1 23/2/1 22/13/1 10/14/1
f 23/13/1 12/14/1 9/1/1 22/2/1

f 33/15/11 34/16/11 35/17/11 36/18/11
f 33/19/12 40/20/12 41/21/12 42/22/12
f 42/25/12 41/26/12 39/23/12 34/24/12
f 34/23/8 39/24/8 43/27/8 44/28/8
f 44/23/8 43/24/8 38/27/8 35/28/8
f 35/23/9 38/24/9 45/25/9 46/26/9
f 37/19/9 36/20/9 46/21/9 45/22/9
f 36/33/10 37/34/10 47/35/10 48/36/10
f 40/29/10 33/30/10 48/31/10 47/32/10
f 39/15/7 40/16/7 37/17/7 38/18/7
f 49/15/11 50/16/11 51/17/11 52/18/11
f 49/19/12 56/20/12 57/21/12 58/22/12
f 58/25/12 57/26/12 55/23/12 50/24/12
f 50/23/8 55/24/8 59/27/8 60/28/8
f 60/23/8 59/24/8 54/27/8 51/28/8
f 51/23/9 54/24/9 61/25/9 62/26/9
f 53/19/9 52/20/9 62/21/9 61/22/9
f 52/33/10 53/34/10 63/35/10 64/36/10
f 56/29/10 49/30/10 64/31/10 63/32/10
f 55/15/7 56/16/7 53/17/7 54/18/7
f 65/15/11 66/16/11 67/17/11 68/18/11
f 65/19/12 72/20/12 73/21/12 74/22/12
f 74/25/12 73/26/12 71/23/12 66/24/12
f 66/23/8 71/24/8 75/27/8 76/28/8
f 76/23/8 75/24/8 70/27/8 67/28/8
f 67/23/9 70/24/9 77/25/9 78/26/9
f 69/19/9 68/20/9 78/21/9 77/22/9
f 68/33/10 69/34/10 79/35/10 80/36/10
f 72/29/10 65/30/10 80/31/10 79/32/10
f 71/15/7 72/16/7 69/17/7 70/18/7
f 81/15/17 82/16/17 83/17/17 84/18/17
f 81/19/18 88/20/18 89/21/18 90/22/18
f 90/25/18 89/26/18 87/23/18 82/24/18
f 82/23/14 87/24/14 91/27/14 92/28/14
f 92/23/14 91/24/14 86/27/14 83/28/14
f 83/23/15 86/24/15 93/25/15 94/26/15
f 85/19/15 84/20/15 94/21/15 93/22/15
f 84/33/16 85/34/16 95/35/16 96/36/16
f 88/29/16 81/30/16 96/31/16 95/32/16
f 87/15/13 88/16/13 85/17/13 86/18/13
