O cube
v 0.25 -0.35 -0.3125
v -0.25 -0.35 -0.3125
v -0.25 -0.35 0.3125
v 0.25 -0.35 0.3125
v 0.25 -0.5 0.3125
v -0.25 -0.5 0.3125
v -0.25 -0.5 -0.3125
v 0.25 -0.5 -0.3125
v 0 -0.5 -0.3125
v 0 -0.35 -0.3125
v -0.25 -0.5 0
v -0.25 -0.35 0
v 0 -0.5 0.3125
v 0 -0.35 0.3125
v 0.25 -0.5 0
v 0.25 -0.35 0


vt 0.5 0
vt 1 0
vt 1 0.625
vt 0.5 0.625

vt 0.875 0.84375
vt 0.875 1
vt 0.625 1
vt 0.625 0.84375

vt 0.5 1
vt 0.5 0.84375
vt 0.75 0.84375
vt 0.75 1
vt 0.8125 0.84375
vt 0.8125 1

vt 1 1
vt 0.84375 1
vt 0.84375 0.6875
vt 1 0.6875

vt 0.84375 0.625
vt 1 0.625
vt 1 0.9375
vt 0.84375 0.9375

vn 0 -1 0
vn -1 0 0
vn 0 0 1
vn 1 0 0
vn 0 1 0
vn 0 0 -1

s off
f 1/1/5 2/2/5 3/3/5 4/4/5
f 1/5/6 8/6/6 9/7/6 10/8/6
f 10/11/6 9/12/6 7/9/6 2/10/6
f 2/9/2 7/10/2 11/13/2 12/14/2
f 12/9/2 11/10/2 6/13/2 3/14/2
f 3/9/3 6/10/3 13/11/3 14/12/3
f 5/5/3 4/6/3 14/7/3 13/8/3
f 4/19/4 5/20/4 15/21/4 16/22/4
f 8/15/4 1/16/4 16/17/4 15/18/4
f 7/1/1 8/2/1 5/3/1 6/4/1
