O cube
v 0.5000 -0.5000 0.5000
v 0.5000 -0.2500 0.4375
v 0.4375 -0.2500 0.4375
v 0.4375 -0.2500 0.5000
v 0.5000 -0.0625 0.3750
v 0.3750 -0.0625 0.3750
v 0.3750 -0.0625 0.5000
v 0.5000 0.0000 0.3125
v 0.3125 0.0000 0.3125
v 0.3125 0.0000 0.5000

v 0.5000 0.1250 0.2500
v 0.2500 0.1250 0.2500
v 0.2500 0.1250 0.5000
v 0.5000 0.2500 0.1250
v 0.1250 0.2500 0.1250
v 0.1250 0.2500 0.5000
v 0.5000 0.3125 0.0000
v 0.0000 0.3125 0.0000
v 0.0000 0.3125 0.5000
v 0.5000 0.3750 -0.0625

v -0.0625 0.3750 -0.0625
v -0.0625 0.3750 0.5000
v 0.5000 0.4375 -0.2500
v -0.2500 0.4375 -0.2500
v -0.2500 0.4375 0.5000
v 0.5000 0.5000 -0.5000
v -0.5000 0.5000 -0.5000
v -0.5000 0.5000 0.5000
v 0.5000 0.5000 0.5000
vt 0 1
vt 0 0
vt 0.0625 0.25
vt 0.125 0.4375
vt 0.1875 0.5
vt 0.25 0.625
vt 0.375 0.75
vt 0.5 0.8125
vt 0.5625 0.875
vt 0.75 0.9375

vt 1 1
vt 0 0.3165
vt 0.0625 0.3165
vt 0 0.5742
vt 0.125 0.5742
vt 0 0.7719
vt 0.1875 0.7719
vt 0 0.8602
vt 0.25 0.8602
vt 0.25 0

vt 0.375 0.1875
vt 0 0.1875
vt 0 0.1398
vt 0.625 0.1398
vt 0 0.2281
vt 0.75 0.2281
vt 0 0.4258
vt 0.8125 0.4258
vt 0 0.6834
vt 0.875 0.6834

vt 1 0
vt 1 0.3165
vt 0.9375 0.3165
vt 1 0.5742
vt 0.875 0.5742
vt 1 0.7719
vt 0.8125 0.7719
vt 1 0.8602
vt 0.75 0.8602
vt 0.625 0

vt 1 0.1875
vt 0.625 0.1875
vt 0.625 0.1398
vt 1 0.1398
vt 0.75 0.2281
vt 1 0.2281
vt 0.8125 0.4258
vt 1 0.4258
vt 0.875 0.6834
vt 1 0.6834

vt 0.9375 0.25
vt 0.875 0.4375
vt 0.8125 0.5
vt 0.75 0.625
vt 0.625 0.75
vt 0.5 0.8125
vt 0.4375 0.875
vt 0.25 0.9375

vn 1.0000 0.0000 0.0000
vn 0.0000 -0.2425 -0.9701
vn -0.9701 -0.2425 0.0000
vn 0.0000 0.0000 1.0000
vn 1.0000 0.0000 0.0000
vn 0.0000 -0.3162 -0.9487
vn -0.9487 -0.3162 0.0000
vn 0.0000 0.0000 1.0000
vn 1.0000 0.0000 0.0000
vn 0.0000 -0.7071 -0.7071

vn -0.7071 -0.7071 0.0000
vn 0.0000 0.0000 1.0000
vn 1.0000 0.0000 0.0000
vn 0.0000 -0.4472 -0.8944
vn -0.8944 -0.4472 0.0000
vn 0.0000 0.0000 1.0000
vn 1.0000 0.0000 0.0000
vn 0.0000 -0.7071 -0.7071
vn -0.7071 -0.7071 0.0000
vn 0.0000 0.0000 1.0000

vn 1.0000 0.0000 0.0000
vn 0.0000 -0.8944 -0.4472
vn -0.4472 -0.8944 0.0000
vn 0.0000 0.0000 1.0000
vn 1.0000 0.0000 0.0000
vn 0.0000 -0.7071 -0.7071
vn -0.7071 -0.7071 0.0000
vn 0.0000 0.0000 1.0000
vn 1.0000 0.0000 0.0000
vn 0.0000 -0.9487 -0.3162

vn -0.3162 -0.9487 0.0000
vn 0.0000 0.0000 1.0000
vn 1.0000 0.0000 0.0000
vn 0.0000 -0.9701 -0.2425
vn -0.2425 -0.9701 0.0000
vn 0.0000 0.0000 1.0000
vn 0.0000 1.0000 0.0000
s off
f 29/1/1 1/2/1 2/3/1
f 29/1/5 2/3/5 5/4/5
f 29/1/9 5/4/9 8/5/9
f 29/1/13 8/5/13 11/6/13
f 29/1/17 11/6/17 14/7/17
f 29/1/21 14/7/21 17/8/21
f 29/1/25 17/8/25 20/9/25
f 29/1/29 20/9/29 23/10/29
f 29/1/33 23/10/33 26/11/33

f 1/2/2 3/13/2 2/12/2
f 2/12/6 3/13/6 6/15/6 5/14/6
f 5/14/10 6/15/10 9/17/10 8/16/10
f 8/16/14 9/17/14 12/19/14 11/18/14
f 11/2/18 12/20/18 15/21/18 14/22/18
f 14/23/22 15/24/22 18/26/22 17/25/22
f 17/25/26 18/26/26 21/28/26 20/27/26
f 20/27/30 21/28/30 24/30/30 23/29/30
f 23/29/34 24/30/34 27/11/34 26/1/34

f 1/31/3 4/32/3 3/33/3
f 3/33/7 4/32/7 7/34/7 6/35/7
f 6/35/11 7/34/11 10/36/11 9/37/11
f 9/37/15 10/36/15 13/38/15 12/39/15
f 12/40/19 13/31/19 16/41/19 15/42/19
f 15/43/23 16/44/23 19/46/23 18/45/23
f 18/45/27 19/46/27 22/48/27 21/47/27
f 21/47/31 22/48/31 25/50/31 24/49/31
f 24/49/35 25/50/35 28/11/35 27/1/35

f 29/11/4 4/51/4 1/40/4
f 29/11/8 7/52/8 4/51/8
f 29/11/12 10/53/12 7/52/12
f 29/11/16 13/54/16 10/53/16
f 29/11/20 16/55/20 13/54/20
f 29/11/24 19/56/24 16/55/24
f 29/11/28 22/57/28 19/56/28
f 29/11/32 25/58/32 22/57/32
f 29/11/36 28/1/36 25/58/36

f 26/2/37 27/31/37 28/11/37 29/1/37
