O cube
v 0.5000 -0.5000 -0.5000
v 0.5000 -0.5000 0.0000
v 0.4375 -0.2500 -0.5000
v 0.4375 -0.2500 -0.0313
v 0.3750 -0.0625 -0.5000
v 0.3750 -0.0625 -0.0625
v 0.3125 0.0000 -0.5000
v 0.3125 0.0000 -0.0937
v 0.2500 0.1250 -0.5000
v 0.2500 0.1250 -0.1250
v 0.1250 0.2500 -0.5000
v 0.1250 0.2500 -0.1875
v 0.0000 0.3125 -0.5000
v 0.0000 0.3125 -0.2500
v -0.0625 0.3750 -0.5000
v -0.0625 0.3750 -0.2823
v -0.2500 0.4375 -0.5000
v -0.2500 0.4375 -0.3750
v -0.5000 0.5000 -0.5000
v -0 -0 -0
v 0.5000 0.5000 -0.5000
v 0.5000 0.5000 0.0000
vt 0 1
vt 0 0
vt 0.0625 0.25
vt 0.125 0.4375
vt 0.1875 0.5
vt 0.25 0.625
vt 0.375 0.75
vt 0.5 0.8125
vt 0.5625 0.875
vt 0.75 0.9375

vt 1 1
vt 1 0
vt 0 0.3165
vt 0.4687 0.3165
vt 0 0.5742
vt 0.4375 0.5742
vt 0 0.7719
vt 0.4063 0.7719
vt 0 0.8602
vt 0.375 0.8602

vt 0 0.1875
vt 0.3125 0.1875
vt 0 0.1398
vt 0.25 0.1398
vt 0 0.2281
vt 0.2187 0.2281
vt 0 0.4258
vt 0.125 0.4258
vt 0 0.6834
vt 0 0.5

vt 0.9375 0.25
vt 0.875 0.4375
vt 0.8125 0.5
vt 0.75 0.6125
vt 0.6125 0.75
vt 0.5 0.8125
vt 0.4375 0.875
vt 0.25 0.9375
vt 0 1
vt 0.375 0

vt 0.3125 0
vt 1 0.5
vt 0.5 0
vt 0.5 1

vn 0.0000 0.0000 -1.0000
vn -0.9701 -0.2425 0.0000
vn -0.4472 0.0000 0.8944
vn 0.0000 0.0000 -1.0000
vn -0.9487 -0.3162 0.0000
vn -0.4472 0.0000 0.8944
vn 0.0000 0.0000 -1.0000
vn -0.7071 -0.7071 0.0000
vn -0.4472 0.0000 0.8944
vn 0.0000 0.0000 -1.0000

vn -0.8944 -0.4472 0.0000
vn -0.4472 0.0000 0.8944
vn 0.0000 0.0000 -1.0000
vn -0.7071 -0.7071 0.0000
vn -0.4472 0.0000 0.8944
vn 0.0000 0.0000 -1.0000
vn -0.4472 -0.8944 0.0000
vn -0.4472 0.0000 0.8944
vn 0.0000 0.0000 -1.0000
vn -0.7071 -0.7071 0.0000

vn -0.4472 0.0000 0.8944
vn 0.0000 0.0000 -1.0000
vn -0.3162 -0.9487 0.0000
vn -0.4472 0.0000 0.8944
vn 0.0000 0.0000 -1.0000
vn -0.2425 -0.9701 0.0000
vn -0.4472 0.0000 0.8944
vn 1.0000 0.0000 0.0000
vn 0.0000 1.0000 0.0000

s off
f 21/1/1 1/2/1 3/3/1
f 21/1/4 3/3/4 5/4/4
f 21/1/7 5/4/7 7/5/7
f 21/1/10 7/5/10 9/6/10
f 21/1/13 9/6/13 11/7/13
f 21/1/16 11/7/16 13/8/16
f 21/1/19 13/8/19 15/9/22
f 21/1/22 15/9/22 17/10/22
f 21/1/25 17/10/25 19/11/25

f 1/2/2 2/12/2 4/14/2 3/13/2
f 3/13/5 4/14/5 6/16/5 5/15/5
f 5/15/8 6/16/8 8/18/8 7/17/8
f 7/17/11 8/18/11 10/20/11 9/19/11
f 9/2/14 10/40/14 12/22/14 11/21/14
f 11/2/17 12/41/17 14/24/17 13/23/17
f 13/23/20 14/24/20 16/26/20 15/25/20
f 15/25/23 16/26/23 18/28/23 17/27/23
f 17/27/26 18/28/26 19/29/26

f 22/11/3 4/31/3 2/12/3 
f 22/11/6 6/32/6 4/31/6
f 22/11/9 8/33/9 6/32/9
f 22/11/12 10/34/12 8/33/12
f 22/11/15 12/35/15 10/34/15
f 22/11/18 14/36/18 12/35/18 
f 22/11/21 16/37/21 14/36/21
f 22/11/24 18/38/24 16/37/24
f 22/11/27 19/39/27 18/38/27

f 2/43/28 1/12/28 21/44/28 22/1/28
f 21/2/29 19/12/29 22/1/29
