O cube
#patches
#vts: {35,36,37,38,17,18,19,20,35,36,37,38}
#vs: {21,10,39,50,8,9,38,37,21,7,36,50}
#vns: {27,28,29}
# rotated twice
# 1-7
v 0.5 -0.5 -0.5
v -0.5 -0.5 0.5
v 0.5 -0.5 0.5
v 0.5 0.5 -0.5
v -0.5 0.5 0.5
v 0.5 0.5 0.5
v 0 0 0
# 8-16
v 0 -0.5 0
v 0 -0.5 0.5
v 0.5 -0.5 0

v 0 0.5 0
v 0 0.5 0.5
v 0.5 0.5 0
v 0.5 0 0
v 0 0 0.5
v 0.5 0 0.5
# 17-25
v 0.5 0.5 0.25
v 0.25 0.5 0.5
v 0.25 0.5 0.25
v 0.5 0.75 0.5
v 0.001 0.75 0.5
v 0.5 0.75 0.25
v 0.25 0.75 0.5
v 0.251 0.75 0.25
# 25-32
v 0.5 0 -0.5
v -0.5 0 -0.5
v -0.5 0 0.5
v 0 0 -0.5
v -0.5 0 0
v 0 -0.5 -0.5
v -0.5 -0.5 0
v -0.5 -0.5 -0.5

# 1-4 BL
vt 0 0
vt 0.25 0
vt 0.25 0.25
vt 0 0.25
# 5-8 BR
vt 0.75 0
vt 1 0
vt 1 0.25
vt 0.75 0.25
# 9-12 TR
vt 0.75 0.75
vt 1 0.75
vt 1 1
vt 0.75 1
# 13-16 TL
vt 0 0.75
vt 0.25 0.75
vt 0.25 1
vt 0 1
# 17-20 8x16 rock
vt 0.125 0.25
vt 0.375 0.25
vt 0.375 0.75
vt 0.125 0.75
# 21,22 rock midline
vt 0.125 0.5
vt 0.375 0.5
# 23-26, 27-30 patches
vt 0.2813 0
vt 0.4063 0
vt 0.4063 0.125
vt 0.2813 0.125
vt 0.375 0
vt 0.5 0
vt 0.5 0.125
vt 0.375 0.125
# 31 bottom adjustment 
vt 0.375 0.5
# 32-33 r2 cut
vt 0.375 0.5937
vt 0.125 0.5937

vn 0 0 -1
vn -1 0 0
vn 0 0 1
vn 0 0 1
vn 0 0 1
vn 1 0 0
vn 1 0 0
vn 1 0 0
vn 0 1 0
vn 0 1 0

vn 0 1 0
vn 0 -1 0
vn 0 -1 0
vn 0 -1 0
vn 0 1 0
vn 0 1 0
vn -0.7071 0 -0.7071
vn 0 0 1
vn 0 0 1
vn -0.7071 0 -0.7071

vn -0.7071 0 -0.7071

s off
f 1/18/1 30/22/1 28/21/1 25/17/1
f 31/22/2 2/19/2 27/20/2 29/21/2

f 2/17/3 9/18/3 12/19/3 5/20/3
f 15/1/4 16/2/4 6/3/4 12/4/4
f 9/13/5 3/14/5 16/15/5 15/16/5
f 16/1/6 14/2/6 13/3/6 6/4/6
f 3/15/7 10/16/7 14/13/7 16/14/7
f 10/17/8 1/18/8 4/19/8 13/20/8

f 13/9/9 11/10/9 12/11/9 6/12/9
f 4/17/10 11/22/10 13/21/10
f 11/17/11 5/22/11 12/21/11

f 3/5/12 9/6/12 8/7/12 10/8/12
f 9/17/13 2/18/13 31/31/13 30/20/13
f 10/21/14 8/22/14 30/19/14 1/20/14

f 28/21/15 29/18/15 7/22/15 25/20/15
f 29/21/16 27/22/16 7/20/16

f 4/17/17 25/18/17 27/19/17 5/20/17
f 18/27/18 6/28/18 20/29/18 23/30/18
f 19/23/19 17/24/19 22/25/19 24/26/19
f 19/23/20 12/24/20 21/25/20 24/26/20

f 30/18/21 31/32/21 29/33/21 28/17/21


