O cube
v -0.5 -0.5 -0.5
v 0.5 -0.5 -0.5
v 0.5 -0.5 0.5
v -0.5 -0.5 0.5
v -0.5 0.5 -0.5
v -0.25 0.5 -0.5
v 0 0.5 -0.5
v 0.25 0.5 -0.5
v 0.5 0.5 -0.5
v 0.5 0.5 -0.25
v 0.5 0.5 0
v 0.5 0.5 0.5
v 0.25 0.5 0.5
v 0 0.5 0.5
v -0.25 0.5 0.5
v -0.5 0.5 0.5
v -0.5 0.5 0.25
v -0.5 0.5 0
v -0.5 0.5 -0.25
v -0.25 0.5 -0.375
v 0.25 0.5 -0.25
v -0.25 0.5 -0.125
v -0.0625 0.5 -0.1875
v 0.125 0.5 -0.125
v 0.3125 0.5 -0.0625
v -0.25 0.5 0
v -0.1875 0.5 0.0625
v 0.25 0.5 0.125
v -0.125 0.5 0.125
v -0.375 0.5 0.125
v 0.0625 0.5 0.125
v -0.25 0.5 0.25
v 0 0.5 0.25
v 0.125 0.5 0.25
v -0.25 0.75 -0.5
v 0 0.75 -0.5
v 0.25 0.75 -0.4999
v 0.5 0.75 -0.4999
v 0.5 0.75 -0.25
v 0.5 0.75 0
v 0.5 0.75 0.5
v 0.25 0.75 0.5
v 0 0.75 0.4999
v -0.25 0.75 0.4999
v -0.5 0.75 0.5
v -0.5 0.75 0.25
v -0.5 0.75 0
v -0.5 0.75 -0.25
v -0.25 0.75 -0.375
v 0.25 0.75 -0.25
v -0.25 0.75 -0.125
v -0.0625 0.75 -0.1875
v 0.125 0.75 -0.125
v 0.3125 0.75 -0.0625
v -0.25 0.75 0
v -0.1875 0.75 0.0625
v 0.25 0.75 0.125
v -0.125 0.75 0.125
v -0.375 0.75 0.125
v 0.0625 0.75 0.125
v -0.25 0.75 0.25
v 0 0.75 0.25
v 0.125 0.75 0.25
v -0.5 0.75 -0.5
v -0.4375 0.625 -0.375
v 0.4375 0.625 -0.375
v 0.4375 0.625 0.5
v -0.4375 0.625 0.5
v -0.375 0.6875 -0.5
v 0.5 0.6875 -0.5
v 0.5 0.6875 0.375
v -0.375 0.6875 0.375
v -0.4375 0.75 -0.5
v 0.4375 0.75 -0.5
v 0.4375 0.75 0.375
v -0.4375 0.75 0.375
v -0.5 0 -0.5
v 0 0 -0.5
v 0.5 0 -0.5
v 0.5 0 0
v 0.5 0 0.5
v 0 0 0.5
v -0.5 0 0.5
v -0.5 0 0
v 0 -0.5 -0.5
v 0.5 -0.5 0
v 0 -0.5 0.5
v -0.5 -0.5 0
v 0 -0.5 0
v 0 0.5 0
v 0.25 0.5 0.4375
v 0.25 0.75 0.4375
v -0.25 -0.5 -0.5
v -0.25 -0.5 0
v 0.25 -0.5 0.5
v 0.25 -0.5 0

v 0.25 -0.5 -0.5
v -0.25 -0.5 0.5


vt 1 0
vt 0.75 0
vt 0.75 0.25
vt 1 0.25
vt 0.25 0
vt 0 0
vt 0 0.25
vt 0.25 0.25
vt 1 0.75
vt 0.75 0.75
vt 0.75 1
vt 1 1
vt 0.25 0.75
vt 0 0.75
vt 0 1
vt 0.25 1
vt 0.625 0
vt 0.5 0
vt 0.5 0.125
vt 0.625 0.125
vt 0.375 0
vt 0.375 0.125
vt 0.5625 1
vt 0.75 1
vt 0.75 0.875
vt 0.5625 0.875
vt 0.25 1
vt 0.4375 1
vt 0.4375 0.875
vt 0.25 0.875
vt 0.625 1
vt 0.625 0.875
vt 0.375 1
vt 0.375 0.875
vt 0.7187 0
vt 0.5937 0
vt 0.5937 0.125
vt 0.7187 0.125
vt 0.4062 0
vt 0.2812 0
vt 0.2812 0.125
vt 0.4062 0.125
vt 0 0.375
vt 0.125 0.375
vt 1 0.375
vt 0.875 0.375
vt 0 0.4688
vt 0.125 0.4688
vt 1 0.4688
vt 0.875 0.4688
vt 0 0.25
vt 0 0.5313
vt 0.125 0.5313
vt 0.125 0.25
vt 1 0.5313
vt 1 0.25
vt 0.875 0.25
vt 0.875 0.5313
vt 0 0.5937
vt 0 0.7188
vt 0.125 0.7188
vt 0.125 0.5937
vt 1 0.7188
vt 1 0.5937
vt 0.875 0.5937
vt 0.875 0.7188
vt 0.7187 1
vt 0.7187 0.875
vt 0.2812 1
vt 0.2812 0.875
vt 0.5625 0
vt 0.5625 0.125
vt 0.4375 0
vt 0.4375 0.125
vt 0.75 0
vt 0.75 0.125
vt 0.25 0
vt 0.25 0.125
vt 0 0.5625
vt 0 0.75
vt 0.125 0.75
vt 0.125 0.5625
vt 1 0.75
vt 1 0.5625
vt 0.875 0.5625
vt 0.875 0.75
vt 0.9375 0.5625
vt 0.5 0.125
vt 0.0625 0.5625
vt 0.5 1
vt 0.75 0.625
vt 0.25 0.625
vt 0.25 0.875
vt 0.75 0.875
vt 0.25 0.75
vt 0.125 0.75
vt 0.125 1
vt 0.25 1
vt 1 0.75
vt 0.875 0.75
vt 0.875 1
vt 1 1

vn 0 0 -1
vn 0 0 -1
vn 0 0 -1
vn 0 0 -1
vn 1 0 0
vn 1 0 0
vn 1 0 0
vn 1 0 0
vn 0 0 1
vn 0 0 1
vn 0 0 1
vn 0 0 1
vn -1 0 0
vn -1 0 0
vn -1 0 0
vn -1 0 0
vn 0 -1 0
vn 0 -1 0
vn 0 -1 0
vn 0 -1 0
vn 0 -1 0
vn 0 -1 0
vn 0 1 0
vn 0 1 0
vn 0 0 -1
vn 0 0 -1
vn 0 0 -1
vn 0 0 -1
vn 0.7071 0 0.7071
vn -0.7071 0 -0.7071
vn -1 0 0
vn -0.9487 0 0.3162
vn -0.7071 0 0.7071
vn -0.7071 0 0.7071
vn 0 1 0
vn 0 1 0

s off
f 77/9/1 5/12/1 7/11/1 78/10/1
f 1/9/2 77/12/2 78/11/2 85/10/2
f 78/1/3 7/4/3 9/3/3 79/2/3
f 85/5/4 78/8/4 79/7/4 2/6/4
f 79/1/5 9/4/5 11/3/5 80/2/5
f 2/5/6 79/8/6 80/7/6 86/6/6
f 80/1/7 11/4/7 12/3/7 81/2/7
f 86/5/8 80/8/8 81/7/8 3/6/8
f 81/9/9 12/12/9 14/11/9 82/10/9
f 3/9/10 81/12/10 82/11/10 87/10/10
f 82/1/11 14/4/11 16/3/11 83/2/11
f 87/5/12 82/8/12 83/7/12 4/6/12
f 83/1/13 16/4/13 18/3/13 84/2/13
f 4/5/14 88/6/14 84/7/14 83/8/14
f 84/1/15 18/4/15 5/3/15 77/2/15
f 88/5/16 84/8/16 77/7/16 1/6/16

f 88/97/17 1/96/17 93/95/17 94/98/17
f 94/99/18 93/102/18 85/101/18 89/100/18
f 4/15/19 88/14/19 89/13/19 87/16/19
f 87/99/20 89/102/20 96/101/20 95/100/20
f 95/95/21 96/98/21 86/97/21 3/96/21
f 89/13/22 85/16/22 2/15/22 86/14/22

f 5/92/23 16/91/23 14/94/23 7/93/23
f 7/94/24 14/93/24 12/92/24 9/91/24
f 15/17/25 44/20/25 43/19/25 14/18/25
f 18/31/26 47/32/26 55/25/26 26/24/26
f 21/35/27 50/38/27 39/37/27 10/36/27
f 8/17/28 37/20/28 38/19/28 9/18/28
f 32/51/29 61/54/29 45/44/29 16/43/29
f 19/59/30 48/62/30 64/61/30 5/60/30
f 12/51/31 41/54/31 54/53/31 25/52/31
f 14/23/32 43/26/32 59/25/32 30/24/32
f 21/35/33 50/38/33 36/37/33 7/36/33
f 65/87/34 67/89/34 66/88/34
f 75/87/35 73/89/35 76/88/35












