O cube
v 0.5 -0.5 -0.5
v -0.5 -0.5 -0.5
v -0.5 -0.5 0.5
v 0.5 -0.5 0.5
v 0.5 0.5 -0.5
v 0.25 0.5 -0.5
v 0 0.5 -0.5
v -0.25 0.5 -0.5
v -0.5 0.5 -0.5
v -0.5 0.5 -0.25
v -0.5 0.5 0
v -0.5 0.5 0.5
v -0.25 0.5 0.5
v 0 0.5 0.5
v 0.25 0.5 0.5
v 0.5 0.5 0.5
v 0.5 0.5 0.25
v 0.5 0.5 0
v 0.5 0.5 -0.25
v 0.25 0.5 -0.375
v -0.25 0.5 -0.25
v 0.25 0.5 -0.125
v 0.0625 0.5 -0.1875
v -0.125 0.5 -0.125
v -0.3125 0.5 -0.0625
v 0.25 0.5 0
v 0.1875 0.5 0.0625
v -0.25 0.5 0.125
v 0.125 0.5 0.125
v 0.375 0.5 0.125
v -0.0625 0.5 0.125
v 0.25 0.5 0.25
v 0 0.5 0.25
v -0.125 0.5 0.25
v 0.25 0.75 -0.5
v 0 0.75 -0.5
v -0.25 0.75 -0.4999
v -0.5 0.75 -0.4999
v -0.5 0.75 -0.25
v -0.5 0.75 0
v -0.5 0.75 0.5
v -0.25 0.75 0.5
v 0 0.75 0.4999
v 0.25 0.75 0.4999
v 0.5 0.75 0.5
v 0.5 0.75 0.25
v 0.5 0.75 0
v 0.4999 0.75 -0.25
v 0.25 0.75 -0.375
v -0.25 0.75 -0.25
v 0.25 0.75 -0.125
v 0.0625 0.75 -0.1875
v -0.1249 0.75 -0.125
v -0.3125 0.75 -0.0625
v 0.25 0.75 0
v 0.1875 0.75 0.0625
v -0.25 0.75 0.125
v 0.1251 0.75 0.125
v 0.375 0.75 0.125
v -0.0625 0.75 0.125
v 0.25 0.75 0.25
v 0 0.75 0.25
v -0.125 0.75 0.25
v 0.4999 0.75 -0.5
v 0.4375 0.625 -0.375
v -0.4375 0.625 -0.375
v -0.4375 0.625 0.5
v 0.4375 0.625 0.5
v 0.375 0.6875 -0.5
v -0.5 0.6875 -0.5
v -0.5 0.6875 0.375
v 0.375 0.6875 0.375
v 0.4375 0.75 -0.5
v -0.4375 0.75 -0.5
v -0.4375 0.75 0.375
v 0.4375 0.75 0.375
v 0.5 0 -0.5
v 0 0 -0.5
v -0.5 0 -0.5
v -0.5 0 0
v -0.5 0 0.5
v 0 0 0.5
v 0.5 0 0.5
v 0.5 0 0
v 0 -0.5 -0.5
v -0.5 -0.5 0
v 0 -0.5 0.5
v 0.5 -0.5 0
v 0 -0.5 0
v 0 0.5 0
v -0.25 0.5 0.4375
v -0.25 0.75 0.4375

#93-96
v -0.5 0.5 0.25
v 0.5 -0.5 0.25
v 0 -0.5 0.25
v -0.5 -0.5 0.25

vt 0 0
vt 0.25 0
vt 0.25 0.25
vt 0 0.25
vt 0.75 0
vt 1 0
vt 1 0.25
vt 0.75 0.25
vt 0 0.75
vt 0.25 0.75
vt 0.25 1
vt 0 1
vt 0.75 0.75
vt 1 0.75
vt 1 1
vt 0.75 1
vt 0.375 0
vt 0.5 0
vt 0.5 0.125
vt 0.375 0.125
vt 0.625 0
vt 0.625 0.125
vt 0.4375 1
vt 0.25 1
vt 0.25 0.875
vt 0.4375 0.875
vt 0.75 1
vt 0.5625 1
vt 0.5625 0.875
vt 0.75 0.875
vt 0.375 1
vt 0.375 0.875
vt 0.625 1
vt 0.625 0.875
vt 0.2813 0
vt 0.4063 0
vt 0.4063 0.125
vt 0.2813 0.125
vt 0.5938 0
vt 0.7188 0
vt 0.7188 0.125
vt 0.5938 0.125
vt 1 0.375
vt 0.875 0.375
vt 0 0.375
vt 0.125 0.375
vt 1 0.4688
vt 0.875 0.4688
vt 0 0.4688
vt 0.125 0.4688
vt 1 0.25
vt 1 0.5313
vt 0.875 0.5313
vt 0.875 0.25
vt 0 0.5313
vt 0 0.25
vt 0.125 0.25
vt 0.125 0.5313
vt 1 0.5937
vt 1 0.7188
vt 0.875 0.7188
vt 0.875 0.5937
vt 0 0.7188
vt 0 0.5937
vt 0.125 0.5937
vt 0.125 0.7188
vt 0.2813 1
vt 0.2813 0.875
vt 0.7188 1
vt 0.7188 0.875
vt 0.4375 0
vt 0.4375 0.125
vt 0.5625 0
vt 0.5625 0.125
vt 0.25 0
vt 0.25 0.125
vt 0.75 0
vt 0.75 0.125
vt 1 0.5625
vt 1 0.75
vt 0.875 0.75
vt 0.875 0.5625
vt 0 0.75
vt 0 0.5625
vt 0.125 0.5625
vt 0.125 0.75
#87-90
vt 0.0625 0.5625
vt 0.5 0.125
vt 0.9375 0.5625
vt 0.5 1
#8x16 #91-94
vt 0.25 0.625
vt 0.75 0.625
vt 0.75 0.875
vt 0.25 0.875
#rock/rush and brush\rock 4x8 #95,96
vt 0.875 0.75
vt 0.875 1
#halfrush 8x4 #97,98
vt 0.75 0.125
vt 1 0.125
#half (b)rushtop #99,100
vt 0 0.125
vt 0.25 0.125
# halfrock #101,102
vt 0 0.875
vt 0.25 0.875

vn 0 0 -1
vn 0 0 -1
vn -1 0 0
vn -1 0 0

vn 0 0 1
vn 0 0 1
vn 0 0 1
vn 0 0 1
vn 1 0 0
vn 1 0 0
vn 1 0 0

vn 0 -1 0
vn 0 -1 0
vn 0 -1 0
vn 0 -1 0
vn 0 -1 0
vn 0 1 0
vn 0 1 0
vn 0 1 0
vn 0 1 0
vn 0 1 0

vn 0 0 -1
vn -0.7071 0 0.7071
vn -0.8944 0 0.4472
vn 0.7071 0 0.7071

#Keep {1,6a,8,13}

s off

f 1/94/1 85/91/1 7/92/1 5/93/1
f 85/94/2 2/91/2 9/92/2 7/93/2

f 2/94/3 86/91/3 11/92/3 9/93/3
f 86/94/4 3/91/4 12/92/4 11/93/4

f 81/1/5 82/2/5 14/3/5 12/4/5
f 3/5/6 87/6/6 82/7/6 81/8/6
f 82/1/7 83/2/7 16/3/7 14/4/7
f 87/5/8 4/6/8 83/7/8 82/8/8

f 83/1/9 84/2/9 18/3/9 16/4/9
f 4/5/10 88/6/10 84/7/10 83/8/10
f 88/94/11 1/91/11 5/92/11 18/93/11

f 4/5/12 87/6/12 95/98/12 94/97/12
f 94/95/13 95/96/13 89/16/13 88/13/13
f 87/95/14 3/96/14 96/16/14 95/13/14
f 95/101/15 96/102/15 86/11/15 89/12/15
f 88/91/16 86/92/16 2/93/16 1/94/16

f 5/91/17 9/92/17 11/93/17 18/94/17
f 18/14/18 90/15/18 33/96/18 17/95/18
f 17/99/19 33/100/19 14/3/19 16/4/19
f 90/9/20 11/10/20 93/102/20 33/101/20
f 33/14/21 93/15/21 12/96/21 14/95/21

f 15/17/22 14/18/22 43/19/22 44/20/22
f 32/51/23 16/43/23 45/44/23 61/54/23
f 34/18/24 14/21/24 43/22/24 63/19/24
f 14/23/25 30/24/25 59/25/25 43/26/25


