O cube
v 0.5 -0.5 -0.5
v -0.5 -0.5 -0.5
v -0.5 -0.5 0.5
v 0.5 -0.5 0.5
v 0.5 0.5 -0.5
v 0.25 0.5 -0.5
v 0 0.5 -0.5
v -0.25 0.5 -0.5
v -0.5 0.5 -0.5
v -0.5 0.5 -0.25
v -0.5 0.5 0
v -0.5 0.5 0.5
v -0.25 0.5 0.5
v 0 0.5 0.5
v 0.25 0.5 0.5
v 0.5 0.5 0.5
v 0.5 0.5 0.25
v 0.5 0.5 0
v 0.5 0.5 -0.25
v 0.25 0.5 -0.375
v -0.25 0.5 -0.25
v 0.25 0.5 -0.125
v 0.0625 0.5 -0.1875
v -0.125 0.5 -0.125
v -0.3125 0.5 -0.0625
v 0.25 0.5 0
v 0.1875 0.5 0.0625
v -0.25 0.5 0.125
v 0.125 0.5 0.125
v 0.375 0.5 0.125
v -0.0625 0.5 0.125
v 0.25 0.5 0.25
v 0 0.5 0.25
v -0.125 0.5 0.25
v 0.25 0.75 -0.5
v 0 0.75 -0.5
v -0.25 0.75 -0.4999
v -0.5 0.75 -0.4999
v -0.5 0.75 -0.25
v -0.5 0.75 0
v -0.5 0.75 0.5
v -0.25 0.75 0.5
v 0 0.75 0.5
v 0.25 0.75 0.5
v 0.5 0.75 0.5
v 0.5 0.75 0.25
v 0.5 0.75 0
v 0.5 0.75 -0.25
v 0.25 0.75 -0.375
v -0.25 0.75 -0.25
v 0.25 0.75 -0.125
v 0.0625 0.75 -0.1875
v -0.125 0.75 -0.125
v -0.3125 0.75 -0.0625
v 0.25 0.75 0
v 0.1875 0.75 0.0625
v -0.25 0.75 0.125
v 0.125 0.75 0.125
v 0.375 0.75 0.125
v -0.0625 0.75 0.125
v 0.25 0.75 0.25
v 0 0.75 0.25
v -0.125 0.75 0.25
v 0.5 0.75 -0.5
v 0.4375 0.625 -0.375
v -0.4375 0.625 -0.375
v -0.4375 0.625 0.5
v 0.4375 0.625 0.5
v 0.375 0.6875 -0.5
v -0.5 0.6875 -0.5
v -0.5 0.6875 0.375
v 0.375 0.6875 0.375
v 0.4375 0.75 -0.5
v -0.4375 0.75 -0.5
v -0.4375 0.75 0.375
v 0.4375 0.75 0.375
v 0.5 0 -0.5
v 0 0 -0.5
v -0.5 0 -0.5
v -0.5 0 0
v -0.5 0 0.5
v 0 0 0.5
v 0.5 0 0.5
v 0.5 0 0
v 0 -0.5 -0.5
v -0.5 -0.5 0
v 0 -0.5 0.5
v 0.5 -0.5 0
v 0 -0.5 0
v 0 0.5 0
v -0.25 0.5 0.4375
v -0.25 0.75 0.4375

vt 0 0
vt 0.25 0
vt 0.25 0.25
vt 0 0.25
vt 0.75 0
vt 1 0
vt 1 0.25
vt 0.75 0.25
vt 0 0.75
vt 0.25 0.75
vt 0.25 1
vt 0 1
vt 0.75 0.75
vt 1 0.75
vt 1 1
vt 0.75 1
vt 0.375 0
vt 0.5 0
vt 0.5 0.125
vt 0.375 0.125
vt 0.625 0
vt 0.625 0.125
vt 0.4375 1
vt 0.25 1
vt 0.25 0.875
vt 0.4375 0.875
vt 0.75 1
vt 0.5625 1
vt 0.5625 0.875
vt 0.75 0.875
vt 0.375 1
vt 0.375 0.875
vt 0.625 1
vt 0.625 0.875
vt 0.2813 0
vt 0.4063 0
vt 0.4063 0.125
vt 0.2813 0.125
vt 0.5938 0
vt 0.7188 0
vt 0.7188 0.125
vt 0.5938 0.125
vt 1 0.375
vt 0.875 0.375
vt 0 0.375
vt 0.125 0.375
vt 1 0.4688
vt 0.875 0.4688
vt 0 0.4688
vt 0.125 0.4688
vt 1 0.25
vt 1 0.5313
vt 0.875 0.5313
vt 0.875 0.25
vt 0 0.5313
vt 0 0.25
vt 0.125 0.25
vt 0.125 0.5313
vt 1 0.5937
vt 1 0.7188
vt 0.875 0.7188
vt 0.875 0.5937
vt 0 0.7188
vt 0 0.5937
vt 0.125 0.5937
vt 0.125 0.7188
vt 0.2813 1
vt 0.2813 0.875
vt 0.7188 1
vt 0.7188 0.875
vt 0.4375 0
vt 0.4375 0.125
vt 0.5625 0
vt 0.5625 0.125
vt 0.25 0
vt 0.25 0.125
vt 0.75 0
vt 0.75 0.125
vt 1 0.5625
vt 1 0.75
vt 0.875 0.75
vt 0.875 0.5625
vt 0 0.75
vt 0 0.5625
vt 0.125 0.5625
vt 0.125 0.75
vt 0.0625 0.5625
vt 0.5 0.125
vt 0.9375 0.5625
vt 0.5 1

vn 0 0 -1
vn 0 0 -1
vn 0 0 -1
vn 0 0 -1
vn -1 0 0
vn -1 0 0
vn -1 0 0
vn -1 0 0
vn 0 0 1
vn 0 0 1
vn 0 0 1
vn 0 0 1
vn 1 0 0
vn 1 0 0
vn 1 0 0
vn 1 0 0
vn 0 -1 0
vn 0 -1 0
vn 0 -1 0
vn 0 -1 0
vn 0 1 0
vn 0 1 0
vn 0 1 0
vn 0 1 0
vn 0 0 -1
vn 0 0 -1
vn -0.8944 0 0.4472
vn -1 0 0
vn 0.9487 0 0.3162
vn 0.8944 0 0.4472
vn 0.7071 0 0.7071
vn 0.3162 0 0.9487
vn 0.8944 0 0.4472
vn 0 1 0

s off
f 77/9/1 78/10/1 7/11/1 5/12/1
f 1/9/2 85/10/2 78/11/2 77/12/2
f 78/1/3 79/2/3 9/3/3 7/4/3
f 85/5/4 2/6/4 79/7/4 78/8/4
f 79/1/5 80/2/5 11/3/5 9/4/5
f 2/5/6 86/6/6 80/7/6 79/8/6
f 80/1/7 81/2/7 12/3/7 11/4/7
f 86/5/8 3/6/8 81/7/8 80/8/8
f 81/1/9 82/2/9 14/3/9 12/4/9
f 3/5/10 87/6/10 82/7/10 81/8/10
f 82/11/11 83/12/11 16/9/11 14/10/11
f 87/11/12 4/12/12 83/9/12 82/10/12
f 83/12/13 84/9/13 18/10/13 16/11/13
f 4/10/14 88/11/14 84/12/14 83/9/14
f 84/12/15 77/9/15 5/10/15 18/11/15
f 88/10/16 1/11/16 77/12/16 84/9/16
f 88/9/17 89/10/17 85/11/17 1/12/17
f 4/9/18 87/10/18 89/11/18 88/12/18
f 87/5/19 3/6/19 86/7/19 89/8/19
f 89/5/20 86/6/20 2/7/20 85/8/20
f 18/9/21 90/10/21 14/11/21 16/12/21
f 5/9/22 7/10/22 90/11/22 18/12/22
f 7/13/23 9/14/23 11/15/23 90/16/23
f 90/13/24 11/14/24 12/15/24 14/16/24
f 21/35/25 10/36/25 39/37/25 50/38/25
f 8/17/26 9/18/26 38/19/26 37/20/26
f 34/18/27 14/21/27 43/22/27 63/19/27
f 28/23/28 91/67/28 92/68/28 57/26/28
f 12/51/29 25/52/29 54/53/29 41/54/29
f 24/17/30 28/18/30 57/19/30 53/20/30
f 21/35/31 7/36/31 36/37/31 50/38/31
f 11/75/32 24/71/32 53/72/32 40/76/32
f 13/79/33 31/80/33 60/81/33 42/82/33
f 65/87/34 66/88/34 67/89/34 68/90/34
