O cube
v 0.5 -0.5 -0.5
v -0.5 -0.5 -0.5
v -0.5 -0.1667 -0.1667
v 0.5 -0.1667 -0.1667
v 0.5 0.1667 0.1667
v -0.5 0.1667 0.1667
v -0.5 0.5 0.5
v 0.5 0.5 0.5
v 0.5 0 0.5
v -0.5 0 0.5
v -0.5 -0.5 0.5
v 0.5 -0.5 0.5
v 0.5 -0.5 0
v -0.5 -0.5 0

vt 0.5 0.25
vt 1 0.25
vt 1 0.5
vt 0 0.75
vt 0.5 1
vt 0 1
vt 0 0
vt 0.5 0
vt 0 0.25
vt 1 0
vt 1 1
vn 0 0.7071 -0.7071
vn 0 0 1
vn 0 -1 0
vn -1 0 0
vn 1 0 0
s off
f 1/1/1 2/2/1 3/3/1
f 1/4/1 3/5/1 4/6/1
f 4/2/1 3/1/1 5/3/1
f 5/5/1 3/4/1 6/6/1
f 5/1/1 6/2/1 7/3/1
f 5/4/1 7/5/1 8/6/1
f 10/7/2 9/8/2 8/1/2 7/9/2
f 11/8/2 12/10/2 9/2/2 10/1/2
f 12/8/3 11/10/3 14/2/3 13/1/3
f 2/8/3 1/10/3 13/2/3 14/1/3
f 2/5/4 11/11/4 7/3/4
f 12/11/5 1/5/5 8/3/5









