O cube
v 0.5 -0.5 -0.5
v -0.5 -0.5 -0.5
v -0.5 -0.5 0.5
v 0.5 -0.5 0.5
v -0.5 0.5 0.5
v 0.5 0.5 0.5
v -0.5 -0.1464 -0.1464
v 0.5 -0.1464 -0.1464

vt 0 0
vt 0.5 0
vt 0.5 0.5
vt 0 0.5
vt 1 0
vt 1 0.5
vt 1 1
vt 0.5 1
vt 0 1
vt 0.5 0.25

vt 0 0.25
vt 0 0.456
vt 0.5 0.456

vn 0 0.7071 -0.7071
vn 0 0.7071 -0.7071
vn -1 0 0
vn 0 0 1
vn 1 0 0
vn 0 -1 0

s off
f 1/11/1 2/10/1 7/3/1 8/4/1
f 8/1/2 7/2/2 5/13/2 6/12/2
f 2/3/3 3/8/3 5/9/3
f 3/2/4 4/5/4 6/6/4 5/3/4
f 4/4/5 1/3/5 6/9/5
f 4/3/6 3/6/6 2/7/6 1/8/6

