O cube
v -0.5 -0.5 -0.5
v -0.5 0.5 -0.5
v -0.5 0.5 0.5
v -0.5 -0.5 0.5
v 0 -0.5 -0.5
v 0 0.5 -0.5
v 0.5 0.5 0.5
v 0.5 -0.5 0.5
v 0 0.5 0.5
v 0 -0.5 0.5

vt 0 0
vt 0.5 0
vt 0.5 0.25
vt 0 0.25
vt 0.5 0.5
vt 0.5 1
vt 0 1
vt 0.25 0.5
vt 0 0.5
vt 1 0.5

vt 1 0
vt 1 1
vt 0.75 0.5
vt 0.75 1

vn 0 0 -1
vn 0 1 0
vn 0.8944 0 -0.4472
vn 0 -1 0
vn 0 0 1
vn -1 0 0
vn 0 0 1

f 1/1/1 2/2/1 6/3/1 5/4/1
f 2/5/2 3/6/2 7/7/2 6/8/2
f 5/1/3 6/2/3 7/5/3 8/9/3
f 4/10/4 1/5/4 5/3/4 8/11/4
f 9/1/5 10/2/5 8/3/5 7/4/5
f 1/5/6 4/10/6 3/12/6 2/6/6
f 4/13/7 10/10/7 9/12/7 3/14/7
