O cube
v 0.5 -0.5 -0.5
v -0.5 -0.5 -0.5
v -0.5 -0.5 0.5
v 0.5 -0.5 0.5
v 0.5 0 -0.5
v -0.5 0 -0.5
v -0.1 0 0.3
v 0.5 0 0
v -0.5 0.5 -0.5
v -0.5 0.5 0.5
v 0.5 0.5 0.5
v 0.5 0.5 0
v -0.1 0.5 0.3

vt 0 0
vt 1 0
vt 1 0.5
vt 0.5 0.5
vt 0.5 1
vt 0 1
vt 0 0.5
vt 0.7 0.5
vt 0.7 1
vt 0.1 0.5

vt 0.1 1
vt 1 1
vt 0.6 0.8

vn 1 0 0
vn 1 0 0
vn 0 0 -1
vn -0.4472 0 -0.8894
vn 0.8944 0 -0.4472
vn -1 0 0
vn 0 0 1
vn 0 1 0
vn 0 1 0
vn 0 -1 0
vn 0 1 0

s off
f 4/1/1 1/2/1 5/3/1 8/4/1
f 4/1/2 8/4/2 12/5/2 11/6/2
f 1/1/3 2/2/3 6/3/3 5/7/3
f 8/7/4 7/8/4 13/9/4 12/6/4
f 7/10/5 6/3/5 9/12/5 13/11/5
f 2/1/6 3/2/6 10/12/6 9/6/6
f 3/1/7 4/2/7 11/12/7 10/6/7
f 12/7/8 10/12/8 11/6/8
f 13/13/9 9/2/9 10/12/9
f 4/1/10 3/2/10 2/12/10 1/6/10
f 5/1/11 6/2/11 7/13/11 8/7/11
