O cube
v 0.5 -0.5 -0.5
v -0.5 -0.5 -0.5
v -0.5 -0.5 0.5
v 0.5 -0.5 0.5
v 0.5 0 -0.5
v 0 -0.5 -0.5
v 0.3 -0.5 0.1
v 0.5 -0.5 0
v 0.5 0 0
v 0.3 0 0.1
v 0 0 -0.5
v -0.5 0 -0.5
v -0.5 0 0.5
v 0.5 0 0.5

v -0.5 -0.5 -0.5
v -0.5 -0.5 0.5
v 0.5 -0.5 0.5

vt 0 0
vt 1 0
vt 1 1
vt 0 1
vt 0.5 0.5
vt 0.5 1
vt 1 0.5
vt 0.333 0.5
vt 0.333 1
vt 0 0.5

vt 0.25 0.5
vt 0.25 1
vt 0.2 0.6
vt 0.5 0
vt 0.2 0.4

vn 1 0 0
vn 0.8944 0 -0.4472
vn 0 0 -1
vn -0.4472 0 -0.8944
vn -1 0 0
vn 0 0 1
vn 0 1 0
vn 0 1 0
vn 0 -1 0
vn 0 -1 0

s off
f 17/10/1 8/5/1 9/6/1 14/4/1
f 7/8/2 6/7/2 11/3/2 10/9/2
f 6/5/3 15/7/3 12/3/3 11/6/3
f 8/10/4 7/11/4 10/12/4 9/4/4
f 15/10/5 16/7/5 13/3/5 12/4/5
f 16/1/6 17/2/6 14/3/6 13/4/6
f 9/10/7 13/3/7 14/4/7
f 10/13/8 11/14/8 12/2/8 13/3/8
f 17/1/9 16/2/9 8/10/9
f 7/15/10 16/2/10 15/3/10 6/6/10
