O cube
v 0.5 -0.5 -0.5
v -0.5 -0.5 -0.5
v -0.5 -0.5 0.5
v 0.5 -0.5 0
v 0.5 0 -0.5
v -0.5 0 -0.5
v -0.3 0 -0.1
v 0.5 0.5 -0.5
v -0.3 0.5 -0.1
v -0.5 0.5 -0.5
v 0.5 0.5 0
v -0.5 0.5 0.5

vt 0 0
vt 1 0
vt 1 1
vt 0 1
vt 0.5 0
vt 0.5 1
vt 0 0.5
vt 1 0.5
vt 0.5 0.5
vt 0.4 0.5

vt 0.4 1
vt 0.9 0.5
vt 0.9 1
vt 0.8 0.4

vn 1 0 0
vn 0.8944 0 -0.4472
vn -0.4472 0 -0.8944
vn 0 0 -1
vn -1 0 0
vn 0.4472 0 0.8944
vn 0 1 0
vn 0 1 0
vn 0 1 0
vn 0 -1 0

s off
f 4/5/1 1/2/1 8/3/1 11/6/1
f 7/7/2 6/10/2 10/3/2 9/11/2
f 5/7/3 7/12/3 9/13/3 8/4/3
f 1/1/4 2/2/4 6/8/4 5/7/4
f 2/1/5 3/2/5 12/3/5 10/4/5
f 3/1/6 4/2/6 11/3/6 12/4/6
f 8/1/7 9/14/7 12/3/7 11/7/7
f 9/14/8 10/2/8 12/3/8
f 5/1/9 6/2/9 7/14/9
f 4/7/10 3/2/10 2/3/10 1/4/10
