O cube
v 0.5 -0.5 -0.5
v -0.5 -0.5 -0.5
v -0.5 -0.5 0.5
v 0.5 -0.5 0.5
v 0.5 0 -0.5
v 0 0 -0.5
v 0.1 0 -0.3
v 0.5 0.5 -0.5
v 0 0.5 -0.5
v 0.1 0.5 -0.3
v -0.5 0.5 -0.5
v -0.5 0.5 0.5
v 0.5 0.5 0.5

vt 0 0
vt 1 0
vt 1 1
vt 0 1
vt 0.5 0
vt 0.5 1
vt 0.5 0.5
vt 0.72 0.5
vt 0.72 1
vt 0 0.5

vt 0.45 0.5
vt 0.45 1
vt 0.4 0.2

vn 1 0 0
vn 0.8944 0 -0.4472
vn -0.4472 0 -0.8944
vn 0 0 -1
vn 0 0 -1
vn -1 0 0
vn 0 0 1
vn 0 1 0
vn 0 1 0
vn 0 -1 0
vn 0 1 0

s off
f 4/1/1 1/2/1 8/3/1 13/4/1
f 7/7/2 6/8/2 9/9/2 10/6/2
f 5/10/3 7/11/3 10/12/3 8/4/3
f 1/1/4 2/2/4 6/7/4 5/10/4
f 6/7/5 2/2/5 11/3/5 9/6/5
f 2/1/6 3/2/6 12/3/6 11/4/6
f 3/1/7 4/2/7 13/3/7 12/4/7
f 8/1/8 10/13/8 12/3/8 13/4/8
f 10/13/9 9/5/9 11/2/9 12/3/9
f 4/1/10 3/2/10 2/3/10 1/4/10
f 5/1/11 6/5/11 7/13/11
