O cube
v 0.5 -0.5 0
v 0.3 -0.5 0.1
v 0 -0.5 -0.5
v -0.5 -0.5 -0.5
v -0.5 -0.5 0.5
v 0.5 -0.5 0.5
v 0.3 0 0.1
v 0 0 -0.5
v -0.5 0 -0.5
v -0.5 0 0.5
v 0.5 0.5 0
v -0.5 0.5 0.5
v 0.5 0.5 0.5

vt 0 0
vt 1 0
vt 1 1
vt 0 1
vt 0.5 0
vt 0.5 1
vt 0.333 0
vt 0.333 0.5
vt 1 0.5
vt 0.5 0.5

vt 0.25 0
vt 0.25 0.5
vt 0 0.5
vt 0.2 0.6
vt 0.2 0.4

vn 1 0 0
vn 0.8944 0 0.4472
vn 0 0 -1
vn -0.4472 0 -0.8944
vn -0.4472 0 -0.8944
vn -1 0 0
vn 0 0 1
vn 0 1 0
vn 0 1 0
vn 0 -1 0
vn 0 -1 0

s off
f 6/1/1 1/5/1 11/6/1 13/4/1
f 2/7/2 3/2/2 8/9/2 7/8/2
f 3/5/3 4/2/3 9/9/3 8/10/3
f 1/1/4 2/11/4 7/12/4 11/4/4
f 7/12/5 10/9/5 12/3/5 11/4/5
f 4/1/6 5/2/6 10/9/6 9/13/6
f 5/1/7 6/2/7 13/3/7 12/4/7
f 11/13/8 12/3/8 13/4/8
f 7/14/9 8/5/9 9/2/9 10/3/9
f 6/1/10 5/2/10 1/13/10
f 2/15/11 5/2/11 4/3/11 3/6/11
