O cube
v 0.5 -0.5 -0.5
v -0.3 -0.5 -0.1
v -0.5 -0.5 -0.5
v -0.5 -0.5 0.5
v 0.5 -0.5 0
v -0.5 0 -0.5
v -0.5 0 0
v -0.3 0 -0.1
v -0.5 0 0.5
v 0.5 0.5 -0.5
v -0.5 0.5 0
v -0.5 0.5 0.5
v 0.5 0.5 0

vt 0 0
vt 0.8 0
vt 0.8 0.5
vt 0 1
vt 1 0.5
vt 1 1
vt 0.5 0
vt 1 0
vt 0.5 0.5
vt 0 0.5

vt 0.5 1
vt 0.8 0.4
vt 0.8 0.6

vn -0.4472 0 -0.8944
vn -0.4472 0 -0.8944
vn 0.8944 0 -0.4472
vn -1 0 0
vn 0.4472 0 0.8944
vn 1 0 0
vn 0 1 0
vn 0 1 0
vn 0 -1 0
vn 0 -1 0
vn -1 0 0

s off
f 1/1/1 2/2/1 8/3/1 10/4/1
f 10/4/2 8/3/2 7/5/2 11/6/2
f 2/7/3 3/8/3 6/5/3 8/9/3
f 3/1/4 4/8/4 9/5/4 6/10/4
f 4/1/5 5/8/5 13/6/5 12/4/5
f 5/7/6 1/8/6 10/6/6 13/11/6
f 10/1/7 11/5/7 12/6/7 13/10/7
f 8/12/8 6/8/8 7/5/8
f 2/13/9 4/8/9 3/6/9
f 5/10/10 4/8/10 2/13/10 1/4/10
f 7/9/11 9/5/11 12/6/11 11/11/11
