O cube
v 0.5 -0.5 -0.5
v 0.3 -0.5 -0.1
v -0.5 -0.5 -0.5
v -0.5 -0.5 0.5
v 0.5 -0.5 0.5
v 0.3 0 -0.1
v -0.5 0 -0.5
v -0.5 0 0.5
v 0 0 0.5
v 0.5 0.5 -0.5
v 0 0.5 0.5
v 0.5 0.5 0.5

vt 0 0
vt 1 0
vt 1 1
vt 0 1
vt 0.1 0
vt 0.1 0.5
vt 1 0.5
vt 0.5 0.5
vt 0.45 0
vt 0.45 0.5

vt 0 0.5
vt 0.5 1
vt 0.2 0.4
vt 0.2 0.6

vn 1 0 0
vn 0.4472 0 -0.8944
vn -0.8944 0 -0.4472
vn -0.8944 0 -0.4472
vn -1 0 0
vn 0 0 1
vn 0 0 1
vn 0 1 0
vn 0 1 0
vn 0 -1 0
vn 0 -1 0

s off
f 5/1/1 1/2/1 10/3/1 12/4/1
f 2/5/2 3/2/2 7/7/2 6/6/2
f 1/1/3 2/9/3 6/10/3 10/4/3
f 10/4/4 6/10/4 9/7/4 11/3/4
f 3/1/5 4/2/5 8/7/5 7/11/5
f 4/1/6 5/2/6 9/8/6 8/11/6
f 5/2/7 12/3/7 11/12/7 9/8/7
f 10/1/8 11/12/8 12/4/8
f 6/13/9 7/2/9 8/3/9 9/12/9
f 1/4/10 5/1/10 2/14/10
f 5/1/11 4/2/11 3/3/11 2/14/11
