O cube
v 0.5 -0.5 -0.5
v -0.5 -0.5 -0.5
v -0.5 -0.5 0.5
v 0 -0.5 0.5
v 0 0 -0.5
v -0.5 0 -0.5
v -0.1 0 -0.3
v 0 0.5 -0.5
v -0.5 0.5 -0.5
v -0.1 0.5 -0.3
v -0.5 0.5 0.5
v 0 0.5 0.5
v 0.5 0.5 -0.5

vt 0 0
vt 1 0
vt 1 1
vt 0 1
vt 0.5 0.5
vt 0.5 1
vt 1 0.5
vt 0.9 0.5
vt 0.9 1
vt 0.75 0.5

vt 0.75 1
vt 0.5 0
vt 0.6 0.2

vn 0.8944 0 0.4472
vn 0 0 -1
vn 0 0 -1
vn 0.4472 0 -0.8944
vn -0.8944 0 -0.4472
vn -1 0 0
vn 0 0 1
vn 0 1 0
vn 0 1 0
vn 0 1 0
vn 0 -1 0

s off
f 4/1/1 1/2/1 13/3/1 12/4/1
f 1/1/2 5/5/2 8/6/2 13/4/2
f 1/1/3 2/2/3 6/7/3 5/5/3
f 7/5/4 6/8/4 9/9/4 10/6/4
f 5/10/5 7/7/5 10/3/5 8/11/5
f 2/1/6 3/2/6 11/3/6 9/4/6
f 3/1/7 4/12/7 12/6/7 11/4/7
f 13/1/8 8/12/8 10/13/8 12/6/8
f 10/13/9 9/2/9 11/3/9 12/6/9
f 5/12/10 6/2/10 7/13/10
f 4/12/11 3/2/11 2/3/11 1/4/11
