O cube
v 0.5 -0.5 -0.5
v 0 -0.5 -0.5
v -0.3 -0.5 0.1
v -0.5 -0.5 0
v -0.5 -0.5 0.5
v 0 -0.5 0.5
v -0.3 0 0.1
v -0.5 0 0
v -0.5 0 0.5
v 0 0.5 -0.5
v -0.5 0.5 0.5
v 0 0.5 0.5
v 0.5 0.5 -0.5

vt 0 0
vt 1 0
vt 1 1
vt 0 1
vt 0.5 0
vt 0.5 1
vt 0.75 0
vt 0.75 0.5
vt 0.5 0.5
vt 0.666 0

vt 0.666 0.5
vt 1 0.5
vt 0.8 0.6
vt 0.8 0.4

vn 0.8944 0 0.4472
vn 0 0 -1
vn 0.4472 0 -0.8944
vn -0.8944 0 -0.4472
vn -1 0 0
vn 0 0 1
vn 0 1 0
vn 0 1 0
vn 0 -1 0
vn 0 -1 0
vn -0.8944 0 0.4472

s off
f 6/1/1 1/2/1 13/3/1 12/4/1
f 1/1/2 2/5/2 10/6/2 13/4/2
f 3/5/3 4/7/3 8/8/3 7/9/3
f 2/1/4 3/10/4 7/11/4 10/4/4
f 4/5/5 5/2/5 9/12/5 8/9/5
f 5/1/6 6/5/6 12/6/6 11/4/6
f 13/1/7 10/5/7 11/3/7 12/6/7
f 7/13/8 8/12/8 9/3/8
f 1/4/9 6/5/9 3/14/9 2/6/9
f 6/5/10 5/2/10 4/12/10 3/14/10
f 10/4/11 7/11/11 9/12/11 11/4/11

