O cube
v 0.5 -0.5 -0.5
v -0.5 -0.5 -0.5
v -0.5 -0.5 0.5
v 0.5 -0.5 0.5
v 0.5 -0.5 -0.5
v -0.5 -0.5 -0.5
v 0.3 -0.5 -0.1
v 0.5 0 -0.5
v -0.5 0 -0.5
v 0.3 0 -0.1
v -0.5 0 0.5
v 0.5 0 0.5

v 0.5 -0.5 0.5
v -0.5 -0.5 0.5

vt 0 0
vt 1 0
vt 1 1
vt 0 1
vt 1 0.5
vt 0 0.5
vt 0.1 0.5
vt 0.1 1
vt 0.45 0.5
vt 0.45 1

vt 0.2 0.4
vt 0.2 0.6

vn 1 0 0
vn 0.4472 0 -0.8944
vn 0 -1 0
vn -0.8944 0 -0.4472
vn -1 0 0
vn 0 0 1
vn 0 1 0
vn 0 1 0
vn 0 -1 0

s off
f 13/6/1 5/5/1 8/3/1 12/4/1
f 7/7/2 6/5/2 9/3/2 10/8/2
f 13/1/3 7/12/3 5/4/3
f 5/6/4 7/9/4 10/10/4 8/4/4
f 6/6/5 14/5/5 11/3/5 9/4/5
f 14/6/6 13/5/6 12/3/6 11/4/6
f 8/1/7 10/11/7 12/4/7
f 10/11/8 9/2/8 11/3/8 12/4/8
f 13/1/9 14/2/9 6/3/9 7/12/9
