O cube
v 0.5 -0.5 -0.5
v 0 -0.5 -0.5
v -0.1 -0.5 -0.3
v -0.5 -0.5 -0.5
v -0.5 -0.5 0.5
v 0.5 -0.5 0.5
v -0.1 0 -0.3
v -0.5 0 -0.5
v -0.5 0 0.5
v 0.5 0.5 -0.5
v 0 0.5 -0.5
v -0.5 0.5 0.5
v 0.5 0.5 0.5

vt 0 0
vt 1 0
vt 1 1
vt 0 1
vt 0.5 0
vt 0.5 1
vt 0.5 0.5
vt 0.9 0
vt 0.9 0.5
vt 0.2 0

vt 0.2 0.5
vt 1 0.5
vt 0 0.5
vt 0.6 0.2
vt 0.6 0.8

vn 1 0 0
vn 0.4472 0 -0.8944
vn 0 0 -1
vn -0.8944 0 -0.4472
vn -0.8944 0 -0.4472
vn -1 0 0
vn 0 0 1
vn 0 1 0
vn 0 1 0
vn 0 -1 0
vn 0 -1 0

s off
f 6/1/1 1/2/1 10/3/1 13/4/1
f 3/5/2 4/8/2 8/9/2 7/7/2
f 1/1/3 2/5/3 11/6/3 10/4/3
f 2/1/4 3/10/4 7/11/4 11/4/4
f 11/4/5 7/11/5 9/12/5 12/3/5
f 4/1/6 5/2/6 9/12/6 8/13/6
f 5/1/7 6/2/7 13/3/7 12/4/7
f 10/1/8 11/5/8 12/3/8 13/4/8
f 7/14/9 8/2/9 9/3/9
f 1/4/10 6/1/10 3/15/10 2/6/10
f 6/1/11 5/2/11 4/3/11 3/15/11
