O cube
v 0.5 -0.5 -0.5
v 0.1 -0.5 0.3
v -0.5 -0.5 0
v -0.5 -0.5 0.5
v 0.5 -0.5 0.5
v 0.1 0 0.3
v -0.5 0 0
v -0.5 0 0.5
v 0 0 0.5
v 0.5 0.5 -0.5
v 0 0.5 0.5
v 0.5 0.5 0.5

vt 0 0
vt 1 0
vt 1 1
vt 0 1
vt 0.333 0
vt 0.333 0.5
vt 1 0.5
vt 0.5 0.5
vt 0 0.5
vt 0.5 1

vt 0.8 0
vt 0.8 0.5
vt 0.5 0
vt 0.4 0.8
vt 0.4 0.2

vn 1 0 0
vn 0.4472 0 -0.8944
vn -0.8944 0 -0.4472
vn -1 0 0
vn 0 0 1
vn 0 0 1
vn 0 1 0
vn 0 1 0
vn 0 -1 0
vn 0 -1 0
vn -0.8944 0 -0.4472

s off
f 5/1/1 1/2/1 10/3/1 12/4/1
f 2/5/2 3/2/2 7/7/2 6/6/2
f 1/1/3 2/11/3 6/12/3 10/4/3
f 3/13/4 4/2/4 8/7/4 7/8/4
f 4/1/5 5/2/5 9/8/5 8/9/5
f 9/8/6 5/2/6 12/3/6 11/10/6
f 10/1/7 11/10/7 12/4/7
f 6/14/8 7/7/8 8/3/8 9/10/8
f 1/4/9 5/1/9 2/15/9
f 5/1/10 4/2/10 3/7/10
f 10/4/11 6/12/11 9/7/11 11/3/11
