O cube
v 0.5 -0.5 -0.5
v -0.5 -0.5 -0.5
v -0.5 -0.5 0.5
v 0 -0.5 0.5
v 0 -0.5 -0.5
v -0.5 -0.5 -0.5
v -0.5 -0.5 0
v -0.3 -0.5 0.1
v 0 0 -0.5
v -0.3 0 0.1
v -0.5 0 0
v -0.5 0 0.5
v 0 0 0.5
v 0.5 0 -0.5

vt 0 0
vt 1 0
vt 1 1
vt 0 1
vt 0.5 0.5
vt 0.5 1
vt 0.75 0.5
vt 0.75 1
vt 0.5 1
vt 1 0.5

vt 0 0.5
vt 0.5 0
vt 0.666 0.5
vt 0.666 1
vt 0.8 0.6
vt 0.8 0.4

vn 0.8944 0 0.4472
vn 0.4472 0 -0.8944
vn 0 0 -1
vn 0 -1 0
vn -0.8944 0 -0.4472
vn 0 -1 0
vn -1 0 0
vn 0 0 1
vn 0 1 0
vn 0 1 0

s off
f 4/11/1 1/10/1 14/3/1 13/4/1
f 8/5/2 7/7/2 11/8/2 10/6/2
f 1/11/3 5/5/3 9/9/3 14/4/3
f 1/4/4 4/12/4 8/16/4 5/9/4
f 5/11/5 8/13/5 10/14/5 9/4/5
f 4/12/6 3/2/6 7/10/6 8/16/6
f 7/5/7 3/10/7 12/3/7 11/9/7
f 3/11/8 4/5/8 13/9/8 12/4/8
f 14/1/9 9/12/9 10/15/9 13/9/9
f 13/9/10 10/15/10 11/10/10 12/3/10
