O cube
v 0.5 -0.5 -0.5
v -0.5 -0.5 -0.5
v -0.5 -0.5 0.5
v 0.5 -0.5 0.5
v 0 -0.5 -0.5
v -0.5 -0.5 -0.5
v -0.5 -0.5 0
v -0.3 -0.5 0.1
v 0 0 -0.5
v -0.3 0 0.1
v -0.5 0 0
v -0.5 0 0.5
v 0.5 0 0.5
v 0.5 0 -0.5

vt 0 0
vt 1 0
vt 1 1
vt 0 1
vt 0.5 0.5
vt 0.75 0.5
vt 0.75 1
vt 0.5 1
vt 1 0.5
vt 0.666 0.5

vt 0.666 1
vt 0 0.5
vt 0.5 0
vt 0.8 0.6

vn 1 0 0
vn 0.4472 0 -0.8944
vn 0 0 -1
vn -0.8944 0 -0.4472
vn 0 0 1
vn 0 1 0
vn 0 1 0
vn 0 -1 0
vn 0 -1 0
vn -1 0 0

s off
f 4/12/1 1/9/1 14/3/1 13/4/1
f 8/5/2 7/6/2 11/7/2 10/8/2
f 1/12/3 5/5/3 9/8/3 14/4/3
f 5/12/4 8/10/4 10/11/4 9/4/4
f 3/12/5 4/9/5 13/3/5 12/4/5
f 14/1/6 9/13/6 10/14/6 13/4/6
f 13/4/7 11/9/7 12/3/7
f 4/1/8 3/2/8 7/9/8
f 4/1/9 8/14/9 5/8/9 1/3/9
f 7/5/10 3/2/10 12/3/10 11/8/10
