O cube
v 0.5 -0.5 -0.5
v -0.5 -0.5 -0.5
v -0.5 -0.5 0
v 0.5 -0.5 0.5
v 0.5 -0.5 -0.5
v -0.5 -0.5 -0.5
v 0.3 -0.5 -0.1
v 0.5 0 -0.5
v 0.3 0 -0.1
v -0.5 0 -0.5
v -0.5 0 0
v 0.5 0 0.5

v 0.5 -0.5 0.5
v -0.5 -0.5 0

vt 0 0
vt 1 0
vt 1 1
vt 0 1
vt 0.5 0.5
vt 0.333 0.5
vt 0.333 1
vt 1 0.5
vt 0.45 0.5
vt 0.45 1

vt 0 0.5
vt 0.5 0
vt 0.5 1
vt 0.2 0.4
vt 0.2 0.6

vn 1 0 0
vn 0.4472 0 -0.8944
vn 0 -1 0
vn -0.8944 0 -0.4472
vn -1 0 0
vn -0.4472 0 0.8944
vn 0 1 0
vn 0 1 0
vn 0 -1 0

s off
f 13/11/1 5/8/1 8/3/1 12/4/1
f 7/6/2 6/8/2 10/3/2 9/7/2
f 13/1/3 7/15/3 5/4/3
f 5/11/4 7/9/4 9/10/4 8/4/4
f 6/5/5 14/8/5 11/3/5 10/13/5
f 14/11/6 13/8/6 12/3/6 11/4/6
f 8/1/7 9/14/7 12/4/7
f 9/14/8 10/2/8 11/8/8 12/4/8
f 13/1/9 14/8/9 6/3/9 7/15/9
