O cube
v 0.5 -0.5 -0.5
v -0.5 -0.5 -0.5
v -0.5 -0.5 0
v 0.5 -0.5 0.5
v 0 -0.5 -0.5
v -0.5 -0.5 -0.5
v -0.1 -0.5 -0.3
v 0 0 -0.5
v -0.1 0 -0.3
v -0.5 0 -0.5
v 0.5 0 -0.5
v -0.5 0 0
v 0.5 0 0.5

v 0.5 -0.5 -0.5
v 0.5 -0.5 0.5
v -0.5 -0.5 0

vt 0 0
vt 1 0
vt 1 1
vt 0 1
vt 0.5 0.5
vt 0.9 0.5
vt 0.9 1
vt 0.5 1
vt 1 0.5
vt 0.25 0.5

vt 0.25 1
vt 0.5 0
vt 0.6 0.2
vt 0.6 0.8
vt 0 0.5

vn 1 0 0
vn 0.4472 0 -0.8944
vn 0 0 -1
vn 0 -1 0
vn -0.8944 0 -0.4472
vn -1 0 0
vn -0.4472 0 0.8944
vn 0 1 0
vn 0 1 0
vn 0 -1 0

s off
f 15/15/1 14/9/1 11/3/1 13/4/1
f 7/5/2 6/6/2 10/7/2 9/8/2
f 14/15/3 5/5/3 8/8/3 11/4/3
f 14/4/4 15/1/4 7/14/4 5/8/4
f 5/10/5 7/5/5 9/8/5 8/11/5
f 6/15/6 16/9/6 12/3/6 10/8/6
f 16/15/7 15/9/7 13/3/7 12/4/7
f 13/4/8 11/1/8 8/12/8 9/13/8
f 13/4/9 9/13/9 10/2/9 12/9/9
f 15/1/10 16/9/10 6/3/10 7/14/10
