O cube
v 0.5 -0.5 -0.5
v 0 -0.5 -0.5
v -0.3 -0.5 0.1
v -0.5 -0.5 0
v -0.5 -0.5 0.5
v 0.5 -0.5 0.5
v 0.5 0 -0.5
v 0 0 -0.5
v -0.3 0 0.1
v 0.5 0 0.5
v 0.5 0.5 0.5
v -0.5 0.5 0
v -0.5 0.5 0.5

vt 0 0
vt 1 0
vt 1 1
vt 0 1
vt 0.5 0.5
vt 1 0.5
vt 0 0.5
vt 0.9 0.5
vt 0.9 0
vt 0.5 0

vt 0.666 0
vt 0.666 0.5
vt 0.5 1
vt 0.8 0.6
vt 0.8 0.4

vn 1 0 0
vn 0.4472 0 -0.8944
vn 0.4472 0 -0.8944
vn 0 0 -1
vn -0.8944 0 -0.4472
vn -1 0 0
vn 0 0 1
vn 0 1 0
vn 0 1 0
vn 0 -1 0
vn 0 -1 0

s off
f 6/1/1 1/2/1 7/6/1 10/7/1
f 10/7/2 9/8/2 12/3/2 11/4/2
f 9/8/3 3/9/3 4/2/3 12/3/3
f 1/1/4 2/10/4 8/5/4 7/7/4
f 2/1/5 3/11/5 9/12/5 8/7/5
f 4/10/6 5/2/6 13/3/6 12/13/6
f 5/1/7 6/2/7 11/3/7 13/4/7
f 11/4/8 12/6/8 13/3/8
f 10/4/9 7/1/9 8/10/9 9/14/9
f 6/1/10 5/2/10 4/6/10
f 6/1/11 3/15/11 2/13/11 1/4/11
