O cube
v 0.5 -0.5 -0.5
v -0.3 -0.5 -0.1
v -0.5 -0.5 -0.5
v -0.5 -0.5 0.5
v 0.5 -0.5 0.5
v 0.5 0 -0.5
v -0.3 0 -0.1
v 0 0 0.5
v 0.5 0 0.5
v -0.5 0.5 -0.5
v -0.5 0.5 0.5
v 0 0.5 0.5

vt 0 0
vt 1 0
vt 1 1
vt 0 1
vt 0.5 0.5
vt 1 0.5
vt 0 0.5
vt 0.5 1
vt 0.666 0.5
vt 0.666 0

vt 0.9 0
vt 0.9 0.5
vt 0.8 0.4
vt 0.8 0.6

vn 1 0 0
vn 0.8944 0 -0.4472
vn 0.8944 0 -0.4472
vn -0.4472 0 -0.8944
vn -1 0 0
vn 0 0 1
vn 0 0 1
vn 0 1 0
vn 0 1 0
vn 0 -1 0
vn 0 -1 0

s off
f 5/1/1 1/2/1 6/6/1 9/7/1
f 8/7/2 7/9/2 10/3/2 12/4/2
f 7/9/3 2/10/3 3/2/3 10/3/3
f 1/1/4 2/11/4 7/12/4 6/7/4
f 3/1/5 4/2/5 11/3/5 10/4/5
f 4/1/6 8/5/6 12/8/6 11/4/6
f 4/1/7 5/2/7 9/6/7 8/5/7
f 12/8/8 10/2/8 11/3/8
f 9/4/9 6/1/9 7/13/9 8/8/9
f 5/1/10 4/2/10 2/14/10 1/4/10
f 4/2/11 3/3/11 2/14/11
