O cube
v 0.5 -0.5 -0.5
v -0.5 -0.5 -0.5
v -0.5 -0.5 0.5
v 0.5 -0.5 0.5
v 0 0 -0.5
v -0.5 0 -0.5
v -0.5 0 0
v 0.1 0 -0.3
v 0 0.5 -0.5
v 0.1 0.5 -0.3
v -0.5 0.5 0
v -0.5 0.5 0.5
v 0.5 0.5 0.5
v 0.5 0.5 -0.5

vt 0 0
vt 1 0
vt 1 1
vt 0 1
vt 0.5 0.5
vt 0.5 0
vt 0.5 1
vt 1 0.5
vt 0.4 0.5
vt 0.4 1

vt 0 0.5
vt 0.25 0.5
vt 0.25 1
vt 0.4 0.2

vn 1 0 0
vn 0 0 -1
vn 0 0 -1
vn -0.4472 0 -0.8944
vn -1 0 0
vn -1 0 0
vn -0.8944 0 0.4472
vn 0 0 1
vn 0 1 0
vn 0 1 0
vn 0 1 0
vn 0 -1 0

s off
f 4/1/1 1/2/1 14/3/1 13/4/1
f 1/1/2 5/5/2 9/7/2 14/4/2
f 1/1/3 2/2/3 6/8/3 5/5/3
f 8/9/4 7/8/4 11/3/4 10/10/4
f 2/1/5 3/2/5 7/5/5 6/11/5
f 7/5/6 3/2/6 12/3/6 11/7/6
f 5/12/7 8/5/7 10/7/7 9/13/7
f 3/1/8 4/2/8 13/3/8 12/4/8
f 13/4/9 14/1/9 11/8/9 12/3/9
f 14/1/10 9/6/10 10/14/10
f 8/14/11 5/6/11 6/2/11 7/8/11
f 4/1/12 3/2/12 2/3/12 1/4/12
