O cube
v 0.5 -0.5 -0.5
v -0.5 -0.5 -0.5
v -0.5 -0.5 0.5
v 0.5 -0.5 0
v 0 -0.5 -0.5
v -0.5 0 -0.5
v -0.5 -0.5 0
v 0.1 -0.5 -0.3
v 0 0 -0.5
v 0.1 0 -0.3
v -0.5 0 0
v -0.5 0 0.5
v 0.5 0 0
v 0.5 0 -0.5

v 0.5 -0.5 -0.5
v 0.5 -0.5 0
v -0.5 -0.5 0.5

vt 0 0
vt 1 0
vt 1 1
vt 0 1
vt 0.5 0.5
vt 0.5 0
vt 0.5 1
vt 1 0.5
vt 0.4 0.5
vt 0.4 1

vt 0 0.5
vt 0.25 0.5
vt 0.25 1
vt 0.4 0.2
vt 0.4 0.8

vn 1 0 0
vn 0 0 -1
vn -0.4472 0 -0.8944
vn -1 0 0
vn -0.8944 0 0.4472
vn 0.4472 0 0.8944
vn 0 1 0
vn 0 1 0
vn 0 -1 0
vn 0 -1 0

s off
f 16/5/1 15/8/1 14/3/1 13/7/1
f 15/11/2 5/5/2 9/7/2 14/4/2
f 8/9/3 7/8/3 11/3/3 10/10/3
f 7/5/4 17/8/4 12/3/4 11/7/4
f 5/12/5 8/5/5 10/7/5 9/13/5
f 17/11/6 16/8/6 13/3/6 12/4/6
f 13/11/7 14/1/7 11/8/7 12/3/7
f 14/1/8 9/6/8 10/14/8
f 16/11/9 17/2/9 7/8/9 8/15/9
f 16/11/10 8/15/10 5/7/10 15/4/10
