O cube
v 0.5000 -0.5000 -0.5000
v 0.3955 -0.5000 -0.4945
v 0.2921 -0.5000 -0.4781
v 0.1910 -0.5000 -0.4511
v 0.0933 -0.5000 -0.4135
v 0.0000 -0.5000 -0.3660
v -0.0878 -0.5000 -0.3090
v -0.1691 -0.5000 -0.2431
v -0.2431 -0.5000 -0.1691
v -0.3090 -0.5000 -0.0878
v -0.3660 -0.5000 0.0000
v -0.4135 -0.5000 0.0933
v -0.4511 -0.5000 0.1910
v -0.4781 -0.5000 0.2921
v -0.4945 -0.5000 0.3955
v -0.5000 -0.5000 0.5000

v 0.5000 0.5000 -0.5000
v 0.3955 0.5000 -0.4945
v 0.2921 0.5000 -0.4781
v 0.1910 0.5000 -0.4511
v 0.0933 0.5000 -0.4135
v 0.0000 0.5000 -0.3660
v -0.0878 0.5000 -0.3090
v -0.1691 0.5000 -0.2431
v -0.2431 0.5000 -0.1691
v -0.3090 0.5000 -0.0878
v -0.3660 0.5000 0.0000
v -0.4135 0.5000 0.0933
v -0.4511 0.5000 0.1910
v -0.4781 0.5000 0.2921
v -0.4945 0.5000 0.3955
v -0.5000 0.5000 0.5000

v 0.5000 -0.5000 0.5000
v 0.5000 0.5000 0.5000





vt 0 1
vt 0.1045 0.9945
vt 0.2079 0.9781
vt 0.309 0.9511
vt 0.4067 0.9135
vt 0.5 0.866
vt 0.5878 0.809
vt 0.6691 0.7431
vt 0.7431 0.6691
vt 0.809 0.5878
vt 0.866 0.5
vt 0.9135 0.4067
vt 0.9511 0.309
vt 0.9781 0.2079
vt 0.9945 0.1045





vt 0 0
vt 0 1
vt 0.125 0
vt 0.125 1
vt 0.25 0
vt 0.25 1
vt 0.375 0
vt 0.375 1
vt 0.5 0
vt 0.5 1
vt 0.625 0
vt 0.625 1
vt 0.75 0
vt 0.75 1
vt 0.875 0
vt 0.875 1
vt 1 0
vt 1 1


vt 0 0
vt 0 1
vt 0.125 0
vt 0.125 1
vt 0.25 0
vt 0.25 1
vt 0.375 0
vt 0.375 1
vt 0.5 0
vt 0.5 1
vt 0.625 0
vt 0.625 1
vt 0.75 0
vt 0.75 1
vt 0.875 0
vt 0.875 1
vt 1 0
vt 1 1

vt 0 0
vt 0.1045 0.0055
vt 0.2079 0.0219
vt 0.309 0.0489
vt 0.4067 0.0865
vt 0.5 0.134
vt 0.5878 0.191
vt 0.6691 0.2569
vt 0.7431 0.3309
vt 0.809 0.4122
vt 0.866 0.5
vt 0.9135 0.5933
vt 0.9511 0.691
vt 0.9781 0.7921
vt 0.9945 0.8955
vt 1 1

vn 0.000 -1.000 0.000
vn 0.000 -1.000 0.000
vn 0.000 -1.000 0.000
vn 0.000 -1.000 0.000
vn 0.000 -1.000 0.000
vn 0.000 -1.000 0.000
vn 0.000 -1.000 0.000
vn 0.000 -1.000 0.000
vn 0.000 -1.000 0.000
vn 0.000 -1.000 0.000
vn 0.000 -1.000 0.000
vn 0.000 -1.000 0.000
vn 0.000 -1.000 0.000
vn 0.000 -1.000 0.000
vn 0.000 -1.000 0.000

vn 0.000 0.000 -1.000
vn -0.1045 0 -0.9945
vn -0.2079 0 -0.9781
vn -0.309 0 -0.9511
vn -0.4067 0 -0.9135
vn -0.5 0 -0.866
vn -0.5878 0 -0.809
vn -0.6691 0 -0.7431
vn -0.7431 0 -0.6691
vn -0.809 0 -0.5878
vn -0.866 0 -0.5
vn -0.9135 0 -0.4067
vn -0.9511 0 -0.309
vn -0.9781 0 -0.2079
vn -0.9945 0 -0.1045

vn 0.000 1.000 0.000
vn 0.000 1.000 0.000
vn 0.000 1.000 0.000
vn 0.000 1.000 0.000
vn 0.000 1.000 0.000
vn 0.000 1.000 0.000
vn 0.000 1.000 0.000
vn 0.000 1.000 0.000
vn 0.000 1.000 0.000
vn 0.000 1.000 0.000
vn 0.000 1.000 0.000
vn 0.000 1.000 0.000
vn 0.000 1.000 0.000
vn 0.000 1.000 0.000
vn 0.000 1.000 0.000

vn 1 0 0
vn 0 0 1

s off
f 33/52/1 2/2/1 1/1/1
f 33/52/2 3/3/2 2/2/2
f 33/52/3 4/4/3 3/3/3
f 33/52/4 5/5/4 4/4/4
f 33/52/5 6/6/5 5/5/5
f 33/52/6 7/7/6 6/6/6
f 33/52/7 8/8/7 7/7/7
f 33/52/8 9/9/8 8/8/8
f 33/52/9 10/10/9 9/9/9
f 33/52/10 11/11/10 10/10/10
f 33/52/11 12/12/11 11/11/11
f 33/52/12 13/13/12 12/12/12
f 33/52/13 14/14/13 13/13/13
f 33/52/14 15/15/14 14/14/14
f 33/52/15 16/50/15 15/15/15

f 1/16/16 2/18/16 18/19/16 17/17/16
f 2/18/17 3/20/17 19/21/17 18/19/17
f 3/20/18 4/22/18 20/23/18 19/21/18
f 4/22/19 5/24/19 21/25/19 20/23/19
f 5/24/20 6/26/20 22/27/20 21/25/20
f 6/26/21 7/28/21 23/29/21 22/27/21
f 7/28/22 8/30/22 24/31/22 23/29/22
f 8/30/23 9/32/23 25/33/23 24/31/23

f 9/34/24 10/36/24 26/37/24 25/35/24
f 10/36/25 11/38/25 27/39/25 26/37/25
f 11/38/26 12/40/26 28/41/26 27/39/26
f 12/40/27 13/42/27 29/43/27 28/41/27
f 13/42/28 14/44/28 30/45/28 29/43/28
f 14/44/29 15/46/29 31/47/29 30/45/29
f 15/46/30 16/48/30 32/49/30 31/47/30

f 34/1/31 17/52/31 18/53/31
f 34/1/32 18/53/32 19/54/32
f 34/1/33 19/54/33 20/55/33
f 34/1/34 20/55/34 21/56/34
f 34/1/35 21/56/35 22/57/35

f 34/1/36 22/57/36 23/58/36
f 34/1/37 23/58/37 24/59/37

f 34/1/38 24/59/38 25/60/38
f 34/1/39 25/60/39 26/61/39
f 34/1/40 26/61/40 27/62/40
f 34/1/41 27/62/41 28/63/41
f 34/1/42 28/63/42 29/64/42
f 34/1/43 29/64/43 30/65/43
f 34/1/44 30/65/44 31/66/44
f 34/1/45 31/66/45 32/67/45

f 33/52/46 1/50/46 17/51/46 34/17/46
f 16/52/47 33/50/47 34/51/47 32/17/47
