O cube
v 0	0.309 0.5
v 0	0.309 -0.5
v 0	-0.309 0.5
v 0	-0.309 -0.5
v 0.309	0.5	0
v 0.309	-0.5 0
v -0.309 0.5 0
v -0.309 -0.5 0
v 0.5 0 0.309
v 0.5 0 -0.309
v -0.5 0 0.309
v -0.5 0 -0.309

vt 0.1 0.1
vt 0.9 0.1
vt 0.5 0.9

vn 0.3568 0 0.9342
vn 0 0.9342 0.3568
vn -0.5774 0.5774 0.5774
vn 0.5774 0.5774 0.5774
vn -0.3568 0 0.934
vn -0.3568 0 -0.9342
vn 0.5774 0.5774 -0.5774
vn 0 0.9342 -0.3568
vn 0.3568 0 -0.9342
vn -0.5774 0.5774 -0.5774
vn 0.5774 -0.5774 0.5774
vn 0 -0.9342 0.3568
vn -0.5774 -0.5774 0.5774
vn 0 -0.9342 -0.3568
vn -0.5774 -0.5774 -0.5774
vn 0.5774 -0.5774 -0.5774
vn 0.9342 0.3568 0
vn 0.9342 -0.3568 0
vn -0.9342 0.3568 0
vn -0.9342 -0.3568 0

s off
f 1/1/1 3/2/1 9/3/1
f 1/1/2 5/2/2 7/3/2
f 1/1/3 7/2/3 11/3/3
f 1/1/4 9/2/4 5/3/4
f 1/1/5 11/2/5 3/3/5
f 2/1/6 4/2/6 12/3/6
f 2/1/7 5/2/7 10/3/7
f 2/1/8 7/2/8 5/3/8
f 2/1/9 10/2/9 4/3/9
f 2/1/10 12/2/10 7/3/10
f 3/1/11 6/2/11 9/3/11
f 3/1/12 8/2/12 6/3/12
f 3/1/13 11/2/13 8/3/13
f 4/1/14 6/2/14 8/3/14
f 4/1/15 8/2/15 12/3/15
f 4/1/16 10/2/16 6/3/16
f 5/1/17 9/2/17 10/3/17
f 6/1/18 10/2/18 9/3/18
f 7/1/19 12/2/19 11/3/19
f 8/1/20 11/2/20 12/3/20

