o Cube
v -0.500000 -0.500000 0.500000
v -0.500000 -0.500000 -0.500000
v 0.500000 -0.500000 -0.500000
v 0.500000 -0.500000 0.500000
v -0.500000 0.000000 0.500000
v -0.500000 0.000000 -0.500000
v 0.500000 0.000000 -0.500000
v -0.500000 0.500000 0.500000
v 0.500000 0.500000 -0.500000
v 0.500000 0.500000 0.500000

v 0.5 0 0
v 0 0 0.5
v 0 0.5 0.5
v 0.5 0.5 0

vt 1.0000 0.0000
vt 1.0000 1.0000
vt 0.0000 1.0000
vt 0.0000 0.0000
vt 0.0000 0.5000
vt 1.0000 0.5000
vt 1.0000 1.0000
vt 0.0000 1.0000
vt 0.0000 0.5000
vt 0.0000 0.0000
vt 1.0000 0.0000
vt 1.0000 0.5000
vt 0.0000 0.0000
vt 0.0000 0.5000
vt 1.0000 0.0000
vt 1.0000 1.0000
vt 1.0000 0.5000
vt 1.0000 1.0000
vt 0.0000 1.0000
vt 0.0000 0.0000
vt 0.0000 1.0000
vt 0.0000 0.0000
vt 1.0000 0.0000
vt 1.0000 1.0000
vt 0.0000 0.0000
vt 1.0000 0.0000

vt 0.5 0.5
vt 0.5 1
vt 0 0.5

vn 0.0000 -1.0000 -0.0000
vn -0.7071 0.0000 -0.7071
vn -1.0000 0.0000 -0.0000
vn 0.0000 -0.0000 -1.0000
vn -0.0000 0.0000 1.0000
vn 1.0000 0.0000 0.0000
vn 0.0000 1.0000 -0.0000
s off
f 1/1/1 2/2/1 3/3/1 4/4/1
f 11/27/2 12/6/2 13/2/2 14/28/2
f 1/1/3 5/6/3 6/9/3 2/10/3
f 2/11/4 6/12/4 7/5/4 3/13/4
f 12/27/5 4/15/5 10/16/5
f 11/27/6 14/28/6 10/19/6
f 10/19/7 14/29/7 13/28/7
f 10/16/5 13/28/5 12/27/5
f 1/22/5 4/15/5 12/27/5 5/14/5
f 6/23/7 5/24/7 12/28/7 11/29/7 7/25/7
f 4/4/6 3/26/6 7/17/6 11/27/6
f 11/27/6 10/19/6 4/4/6
