O cube
v -0.5000 -0.5000 0.5000
v 0.5000 -0.5000 0.5000
v 0.5000 -0.5000 -0.5000
v -0.5000 -0.5000 0.0000
v 0.5000 -0.5000 0.0000
v -0.5000 0.0000 0.5000
v -0.5000 0.0000 0.0000
v 0.5000 0.0000 -0.5000
v 0.5000 0.0000 0.0000
v 0.5000 0.0000 0.5000
v -0.5000 0.5000 0.5000
v 0.5000 0.5000 0.0000
v 0.5000 0.5000 0.5000
vt 0 0
vt 1 0
vt 1 0.5
vt 0 0.5
vt 1 1
vt 0 1
vt 0.5 0.5
vt 0.5 1
vt 0.5 0
vn 0.000 -1.000 0.000
vn 0.000 -1.000 0.000
vn 0.000 0.000 1.000
vn 1.000 0.000 0.000
vn 1.000 0.000 0.000
vn -0.4472 0.000 -0.8944
vn -0.4472 0.000 -0.8944
vn -1.000 0.000 0.000
vn 0.000 1.000 0.000
vn 0.000 1.000 0.000
vn 0.000 1.000 0.000
s off
f 2/1/1 1/2/1 4/3/1 5/4/1
f 5/4/2 4/3/2 3/6/2
f 1/1/3 2/2/3 13/5/3 11/6/3
f 10/4/4 9/7/4 12/8/4 13/6/4
f 2/1/5 3/2/5 8/3/5 10/4/5
f 3/1/6 4/2/6 7/3/6 8/4/6
f 9/4/7 6/3/7 11/5/7 12/6/7
f 4/9/8 1/2/8 6/3/8 7/7/8
f 13/6/9 12/4/9 11/5/9
f 9/4/10 7/3/10 6/5/10
f 9/4/11 8/1/11 7/3/11
