O cube
v 0 -0.5 -0.5
v -0.5 -0.5 -0.5
v -0.5 -0.5 0.5
v 0.5 -0.5 0.5
v -0.5 0 -0.5
v -0.5 0 0.5
v 0 0 0.5
v 0.5 0 0.5
v 0.5 0 -0.5
v 0 0 -0.5
v -0.5 0.5 -0.5
v 0 0.5 0.5
v 0.5 0.5 0.5
v 0.5 0.5 -0.5
v 0 0.5 -0.5

vt 0 0
vt 1 0
vt 1 1
vt 0 1
vt 0.5 0.5
vt 0 0.5
vt 1 0.5
vt 0.5 0
vt 0.5 1

vn 0.8944 0 -0.4472
vn 0 0 -1
vn -1 0 0
vn -0.8944 0 0.4472
vn 0 0 1
vn 0 0 1
vn 0 1 0
vn 0 1 0
vn 0 -1 0

s off
f 4/1/1 1/2/1 15/3/1 13/4/1
f 1/8/2 2/2/2 11/3/2 15/9/2
f 2/1/3 3/2/3 6/7/3 5/6/3
f 5/6/4 7/7/4 12/3/4 11/4/4
f 3/1/5 4/2/5 7/5/5 6/6/5
f 4/2/6 13/3/6 12/9/6 7/5/6
f 15/8/7 11/2/7 12/9/7 13/4/7
f 7/9/8 5/2/8 6/3/8
f 4/1/9 3/2/9 2/3/9 1/9/9
