O cube
v 0.5000 -0.5000 -0.5000
v 0.5000 -0.5000 0.5000
v 0.0000 -0.5000 -0.5000
v -0.5000 -0.5000 0.5000
v 0.5000 0.0000 -0.5000
v 0.5000 0.0000 0.5000
v 0.0000 0.0000 0.5000
v 0.0000 0.0000 -0.5000
v -0.5000 0.0000 0.5000
v 0.5000 0.5000 -0.5000
v 0.0000 0.5000 0.5000
v 0.5000 0.5000 0.5000
v 0.0000 -0.5000 0.5000
vt 0 0
vt 1 0
vt 0 0.5
vt 1 0.5
vt 1 1
vt 0.5 0.5
vt 0.5 0
vt 0.5 1
vt 0 1
vn 0.0000 -1.0000 0.0000
vn 0.0000 -1.0000 0.0000
vn 1.0000 0.0000 0.0000
vn 0.0000 0.0000 -1.0000
vn -0.8944 0 -0.4472
vn -0.8944 0 -0.4472
vn 0.0000 0.0000 1.0000
vn 0.0000 0.0000 1.0000
vn 0.0000 1.0000 0.0000
vn 0.0000 1.0000 0.0000
vn 0.0000 1.0000 0.0000
s off
f 1/1/1 2/2/1 13/4/1 3/3/1
f 3/3/2 13/4/2 4/5/2
f 2/1/3 1/2/3 10/5/3 12/9/3
f 1/1/4 3/7/4 8/6/4 5/3/4
f 3/1/5 4/2/5 9/4/5 8/3/5
f 5/3/6 7/4/6 11/5/6 10/9/6
f 7/6/7 6/4/7 12/5/7 11/8/7
f 4/1/8 2/2/8 6/4/8 9/3/8
f 10/9/9 11/4/9 12/5/9
f 8/3/10 7/4/10 5/9/10
f 8/3/11 9/2/11 7/4/11
