O cube
v 0.5 -0.5 -0.5
v -0.5 -0.5 -0.5
v -0.5 -0.5 0
v 0.5 -0.5 0.5
v -0.5 0 -0.5
v 0.5 0 -0.5
v 0.5 0 0
v -0.5 0 0
v 0.5 0 0.5
v -0.5 0 0.5
v -0.5 0.5 -0.5
v 0.5 0.5 0
v 0.5 0.5 0.5
v -0.5 0.5 0.5

vt 0 0
vt 1 0
vt 1 1
vt 0 1
vt 0.5 0.5
vt 1 0.5
vt 0.5 1
vt 0 0.5
vt 0.5 0

vn 1 0 0
vn 1 0 0
vn 0.4472 0 -0.8944
vn 0 0 -1
vn -1 0 0
vn -1 0 0
vn -0.4472 0 0.8944
vn 0 0 1
vn 0 1 0
vn 0 1 0
vn 0 -1 0
vn 0 -1 0

s off
f 4/1/1 1/2/1 6/6/1 7/5/1
f 4/1/2 7/5/2 12/7/2 13/4/2
f 7/8/3 5/6/3 11/3/3 12/4/3
f 1/1/4 2/2/4 5/6/4 6/8/4
f 2/1/5 3/9/5 8/5/5 11/4/5
f 11/4/6 8/5/6 10/6/6 14/3/6
f 3/1/7 4/2/7 9/6/7 8/8/7
f 10/8/8 9/6/8 13/3/8 14/4/8
f 12/8/9 11/2/9 14/3/9 13/4/9
f 7/8/10 6/1/10 5/2/10
f 4/1/11 3/6/11 2/3/11 1/4/11
f 9/1/12 10/2/12 8/6/12
