O cube
v 0.5 -0.5 -0.5
v 0.5 -0.5 0.5
v -0.5 -0.5 0.5
v -0.5 -0.5 -0.5
v 0.5 0 -0.5
v 0.5 0 0.5
v -0.5 0 0.5
v 0.5 0.5 -0.5
v -0.5 0.5 0.5
v -0.5 0.5 -0.5
v 0 0.5 -0.5
v -0.5 0.5 0
v -0.5 0 0
v 0 0 -0.5
v -0.5 0 -0.5

vt 0 0
vt 1 0
vt 1 1
vt 0 1
vt 0.5 1
vt 0 0.5
vt 1 0.5
vt 0.5 0
vt 0.5 0.5

vn 0 -1 0
vn 0.7071 0 0.7071
vn 0 0 -1
vn -1 0 0
vn 0 1 0
vn -0.7071 0 -0.7071

f 1/1/1 3/3/1 4/4/1
f 3/1/2 1/2/2 8/3/2 9/4/2
f 1/1/3 4/2/3 15/7/3 14/9/3
f 1/1/3 14/9/3 11/5/3 8/4/3
f 13/9/4 3/2/4 9/3/4 12/5/4
f 4/1/4 3/2/4 13/9/4 15/6/4
f 9/1/5 8/3/5 11/5/5 12/6/5
f 13/6/5 14/5/5 15/4/5
f 14/9/6 13/7/6 12/3/6 11/5/6
