O cube
v 0.5 -0.5 -0.5
v -0.5 -0.5 -0.5
v -0.5 -0.5 0.5
v 0.5 -0.5 0.5
v 0.5 0 -0.5
v -0.5 0 -0.5
v -0.5 0 0
v -0.5 0 0.5
v 0.5 0 0.5
v 0.5 0.5 0.5
v -0.5 0.5 0
v -0.5 0.5 0.5
vt 0 0
vt 1 0
vt 1 1
vt 0 1
vt 1 0.5
vt 0 0.5
vt 0.5 0.5
vt 0.5 1
vt 1 0.5
vn 0 -1 0
vn 1 0 0
vn 0 0 -1
vn 0.4472 0 -0.8944
vn -1 0 0
vn -1 0 0
vn 0 0 1
vn 0 1 0
vn 0 1 0
s off
f 4/1/1 3/2/1 2/3/1 1/4/1
f 4/1/2 1/2/2 5/5/2 9/6/2
f 1/1/3 2/2/3 6/5/3 5/6/3
f 9/6/4 7/5/4 11/3/4 10/4/4
f 2/1/5 3/2/5 8/5/5 6/6/5
f 7/7/6 8/5/6 12/3/6 11/8/6
f 3/1/7 4/2/7 10/3/7 12/4/7
f 10/4/8 11/9/8 12/3/8
f 5/1/9 6/2/9 7/9/9 9/4/9
