O cube
v 0 -0.5 -0.5
v -0.5 -0.5 -0.5
v -0.5 -0.5 0.5
v 0.5 -0.5 0.5
v -0.5 0 -0.5
v -0.5 0 0.5
v 0 0 0.5
v 0.5 0 0.5
v 0.5 0 -0.5
v 0 0 -0.5
v -0.5 0.5 -0.5
v 0 0.5 0.5
v 0.5 0.5 0.5
v 0.5 0.5 -0.5

vt 0 0
vt 1 0
vt 1 1
vt 0 1
vt 0.5 0.5
vt 0 0.5
vt 1 0.5
vt 0.5 0
vt 0.5 1

vn 1 0 0
vn 0.8944 0 -0.4472
vn 0 0 -1
vn 0 0 -1
vn -1 0 0
vn -0.8944 0 0.4472
vn 0 0 1
vn 0 0 1
vn 0 1 0
vn 0 1 0
vn 0 -1 0
vn 0 -1 0

s off
f 8/6/1 9/7/1 14/3/1 13/4/1
f 4/1/2 1/2/2 10/7/2 8/6/2
f 9/6/3 10/5/3 11/3/3 14/4/3
f 1/8/4 2/2/4 11/3/4 10/5/4
f 2/1/5 3/2/5 6/7/5 5/6/5
f 5/6/6 7/7/6 12/3/6 11/4/6
f 3/1/7 4/2/7 7/5/7 6/6/7
f 4/2/8 13/3/8 12/9/8 7/5/8
f 14/1/9 11/2/9 12/9/9 13/4/9
f 7/9/10 5/2/10 6/3/10
f 4/1/11 3/2/11 2/3/11 1/9/11
f 8/1/12 10/9/12 9/4/12
