O cube
v -0.5 0 0.5
v 0.5 0.5 0.5
v 0.5 -0.5 0.5
v -0.5 -0.5 0.5
v -0.5 0 0
v 0.5 0.5 0
v 0.5 0 0
v 0.5 -0.5 0
v 0.5 -0.5 -0.5
v -0.5 -0.5 -0.5
v -0.5 0 -0.5
v 0.5 0 -0.5

vt 0 0
vt 1 0
vt 1 1
vt 0 0.5
vt 0.5 0
vt 0.5 1
vt 1 0.5
vt 0 1
vt 0.5 0.5

vn 0 0 1
vn -1 0 0
vn -0.4472 0.8944 0
vn 0.4472 0.8944 0
vn 1 0 0
vn 0 -1 0
vn 0 0 -1
vn 0 0 -1

s off
f 4/1/1 3/2/1 2/3/1 1/4/1
f 4/1/2 1/5/2 11/6/2 10/2/2
f 1/1/3 2/2/3 6/7/3 5/4/3
f 5/4/4 8/7/4 9/3/4 11/8/4
f 2/1/5 3/2/5 8/7/5 6/4/5
f 3/1/6 4/2/6 10/3/6 9/8/6
f 11/4/7 9/3/7 10/8/7
f 5/4/8 6/2/8 8/3/8
