O cube
v 0.5 -0.5 -0.5
v 0.5 -0.5 0.5
v -0.5 -0.5 0.5
v -0.5 -0.5 -0.5
v 0.5 0 -0.5
v 0.5 0 0.5
v -0.5 0 0.5
v 0.5 0.5 -0.5
v -0.5 0.5 0.5
v -0.5 0.5 -0.5
v 0 0.5 -0.5
v -0.5 0.5 0
v -0.5 0 0
v 0 0 -0.5
v -0.5 0 -0.5

vt 0 0
vt 1 0
vt 1 1
vt 0 1
vt 0.5 1
vt 0 0.5
vt 1 0.5
vt 0.5 0
vt 0.5 0.5

vn 0 -1 0
vn 0.7071 0 0.7071
vn 1 0 0
vn 0 0 1
vn 0 0 -1
vn -1 0 0
vn 0 1 0
vn 0 1 0
vn 0 1 0
vn -0.7071 0 -0.7071

f 1/1/1 2/2/1 3/3/1 4/4/1
f 7/1/2 5/2/2 8/7/2 9/6/2
f 2/1/3 1/2/3 5/7/3 6/6/3 
f 3/1/4 2/2/4 6/7/4 7/6/4
f 1/1/5 4/2/5 15/7/5 14/9/5
f 1/1/5 14/9/5 11/5/5 8/4/5
f 13/9/6 3/2/6 9/3/6 12/5/6
f 4/1/6 3/2/6 13/9/6 15/6/6
f 9/1/7 8/3/7 11/5/7 12/6/7
f 13/6/8 14/5/8 15/4/8
f 7/1/9 6/2/9 5/3/9 
f 14/9/10 13/7/10 12/3/10 11/5/10
