O cube
v -0.5 0.5 0.5
v 0.5 0 0.5
v 0.5 -0.5 0.5
v -0.5 -0.5 0.5
v -0.5 0.5 0
v 0.5 0 0
v -0.5 0 0
v -0.5 -0.5 0
v -0.5 -0.5 -0.5
v -0.5 0 -0.5
v 0.5 0 -0.5
v 0.5 -0.5 -0.5

v -0.5 0 0.5

vt 0 0
vt 1 0
vt 1 1
vt 0 1
vt 1 0.5
vt 0 0.5
vt 0.5 0.5
vt 0.5 1
vt 0.5 0

vn 0 0 1
vn -1 0 0
vn -0.4472 0.8944 0
vn 0 1 0
vn 1 0 0
vn 0 -1 0
vn 0 0 -1
vn 0 0 -1

s off
f 4/1/1 3/2/1 2/5/1 13/6/1
f 8/1/2 4/9/2 13/7/2 7/6/2
f 8/6/3 6/5/3 11/3/3 9/4/3
f 13/1/4 2/2/4 6/5/4 7/6/4
f 2/9/5 3/2/5 12/3/5 11/8/5
f 3/1/6 4/2/6 9/3/6 12/4/6
f 11/5/7 12/3/7 9/4/7
f 8/4/8 7/6/8 6/5/8
