O cube
v -0.5 -0.5 0.5
v -0.1 -0.5 0.3
v -0.2 -0.5 0.1
v 0.2 -0.5 -0.1
v 0.5 -0.5 0.5
v -0.5 0 0.5
v -0.1 0 0.3
v 0 0 0.5
v 0 0.5 0.5
v 0.4 0.5 0.3
v 0.5 0.5 0.5

vt 1 0
vt 0 0
vt 0 1
vt 1 1
vt 0.5 0.5
vt 0 0.5
vt 0.5 1
vt 0.75 0.5
vt 0.75 0
vt 1 0.5

vt 1 1
vt 0.5 0
vt 0.55 0
vt 0.55 0.5
vt 0.667 0
vt 0.25 1
vt 0.8 0.8
vt 0.8 0.4
vt 0.8 0.6
vt 0.4 0.3

vt 0.6 0.7

vn 0 0 1
vn 0 0 1
vn -0.8944 0 0.4472
vn -0.8944 0 0.4472
vn -0.4472 0 -0.8944
vn -0.4472 0.4082 -0.8165
vn 0.8944 0 -0.4472
vn 0 1 0
vn 0 1 0
vn 0 -1 0
vn 0 -1 0

s off
f 5/1/1 8/5/1 6/6/1 1/2/1
f 5/1/2 11/4/2 9/7/2 8/5/2
f 8/10/3 9/11/3 7/8/3
f 2/9/4 7/8/4 3/12/4
f 1/1/5 6/10/5 7/14/5 2/13/5
f 3/12/6 9/7/6 10/3/6 4/2/6
f 4/15/7 10/16/7 11/3/7 5/2/7
f 11/4/8 10/17/8 9/10/8
f 8/10/9 7/18/9 6/1/9
f 5/1/10 1/4/10 2/19/10
f 5/1/11 2/19/11 3/21/11 4/20/11
