O cube
v 0.5 -0.5 0
v -0.3 -0.5 -0.4
v -0.5 -0.5 0
v 0.5 -0.5 0.5
v -0.1 0 -0.3
v -0.3 0 0.1
v 0.1 0 0.3
v 0.3 0 -0.1
v 0.5 0.5 0
v 0.3 0.5 0.4
v 0.5 0.5 0.5

vt 0 0
vt 1 0
vt 1 1
vt 0 1
vt 0.75 0.5
vt 0.25 0.5
vt 0.5 0
vt 0.5 1
vt 0 0.5
vt 0.5 0.5

vt 0.6 0.5
vt 0.2 0.5
vt 0.8 1
vt 0.2 0.9
vt 0.2 0.4
vt 0.6 0.2
vt 0.8 0.6
vt 0.4 0.8
vt 0.8 0.9
vt 1 0.5

vn 1 0 0
vn 0.4472 0 -0.8944
vn 0.4472 0 -0.8944
vn -0.8165 0.4082 -0.4472
vn -0.8165 0.4082 -0.4472
vn -0.4472 0 0.8944
vn -0.4472 0 0.8944
vn 0 1 0
vn 0 1 0
vn 0 -1 0

s off
f 4/1/1 1/7/1 9/8/1 11/4/1
f 9/4/2 1/1/2 8/6/2
f 1/1/3  2/2/3 5/5/3 8/6/3
f 8/9/4 7/10/4 10/8/4 9/4/4
f 2/1/5 3/7/5 6/10/5 5/9/5
f 3/1/6 4/2/6 7/11/6 6/12/6
f 7/11/7 4/2/7 11/3/7 10/13/7
f 11/4/8 9/9/8 10/14/8
f 8/15/9 5/16/9 6/17/9 7/18/9
f 4/1/10 3/20/10 2/19/10 1/9/10
