O cube
v 0.00000 -0.50000 0.38197
v 0.36327 -0.50000 0.11803
v 0.22451 -0.50000 -0.30902
v -0.22451 -0.50000 -0.30902
v -0.36327 -0.50000 0.11803

v 0.00000 -0.11803 0.61803
v 0.36327 0.11803 0.50000
v 0.58779 -0.11803 0.19098
v 0.58779 0.11803 -0.19098
v 0.36327 -0.11803 -0.50000
v 0.00000 0.11803 -0.61803
v -0.36327 -0.11803 -0.50000
v -0.58779 0.11803 -0.19098
v -0.58779 -0.11803 0.19098
v -0.36327 0.11803 0.50000

v 0.22451 0.50000 0.30902
v 0.36327 0.50000 -0.11803
v 0.00000 0.50000 -0.38197
v -0.36327 0.50000 -0.11803
v -0.22451 0.50000 0.30902
vt 0.79389 0.09549
vt 0.97553 0.34549
vt 0.97553 0.65451
vt 0.79389 0.90451
vt 0.50000 1.00000
vt 0.20611 0.90451
vt 0.02447 0.65451
vt 0.02447 0.34549
vt 0.20611 0.09549
vt 0.50000 0.00000
vn 0.0000 -1.0000 0.0000
vn 0.0000 -1.0000 0.0000
vn 0.0000 -1.0000 0.0000
vn 0.0000 1.0000 0.0000
vn 0.0000 1.0000 0.0000
vn 0.0000 1.0000 0.0000
vn 0.5257 -0.4472 0.7236
vn 0.5257 -0.4472 0.7236
vn 0.5257 -0.4472 0.7236
vn 0.8507 -0.4472 -0.2764
vn 0.8507 -0.4472 -0.2764
vn 0.8507 -0.4472 -0.2764
vn 0.0000 -0.4472 -0.8944
vn 0.0000 -0.4472 -0.8944
vn 0.0000 -0.4472 -0.8944
vn -0.8507 -0.4472 -0.2764
vn -0.8507 -0.4472 -0.2764
vn -0.8507 -0.4472 -0.2764
vn -0.5257 -0.4472 0.7236
vn -0.5257 -0.4472 0.7236
vn -0.5257 -0.4472 0.7236
vn 0.0000 0.4472 0.8944
vn 0.0000 0.4472 0.8944
vn 0.0000 0.4472 0.8944
vn 0.8507 0.4472 0.2764
vn 0.8507 0.4472 0.2764
vn 0.8507 0.4472 0.2764
vn 0.5257 0.4472 -0.7236
vn 0.5257 0.4472 -0.7236
vn 0.5257 0.4472 -0.7236
vn -0.5257 0.4472 -0.7236
vn -0.5257 0.4472 -0.7236
vn -0.5257 0.4472 -0.7236
vn -0.8507 0.4472 0.2764
vn -0.8507 0.4472 0.2764
vn -0.8507 0.4472 0.2764
s off
f 1/5/1 5/3/1 4/1/1
f 1/5/2 4/1/2 3/9/2
f 1/5/3 3/9/3 2/7/3

f 18/5/4 19/7/4 20/9/4
f 18/5/5 20/9/5 16/1/5
f 18/5/6 16/1/6 17/3/6

f 7/5/7 2/1/7 8/3/7
f 7/3/8 1/7/8 2/9/8
f 7/9/9 6/1/9 1/3/9

f 9/3/10 3/9/10 10/1/10
f 9/9/11 2/3/11 3/5/11
f 9/1/12 8/3/12 2/5/12

f 11/1/13 4/7/13 12/9/13
f 11/5/14 3/9/14 4/1/14
f 11/5/15 10/7/15 3/9/15

f 13/3/16 5/9/16 14/1/16
f 13/7/17 4/1/17 5/3/17
f 13/7/18 12/9/18 4/1/18

f 15/7/19 1/3/19 6/5/19
f 15/1/20 5/5/20 1/7/20
f 15/3/21 14/5/21 5/7/21

f 6/1/22 7/3/22 16/5/22
f 6/5/23 16/9/23 20/1/23
f 6/7/24 20/3/24 15/5/24

f 8/9/25 9/1/25 17/3/25
f 8/1/26 17/5/26 16/7/26
f 8/9/27 16/5/27 7/7/27

f 10/7/28 11/9/28 18/1/28
f 10/7/29 18/1/29 17/3/29
f 10/1/30 17/7/30 9/9/30

f 12/3/31 13/5/31 19/7/31
f 12/3/32 19/7/32 18/9/32
f 12/3/33 18/9/33 11/1/33

f 14/5/34 15/7/34 20/9/34
f 14/9/35 20/3/35 19/5/35
f 14/9/36 19/5/36 13/7/36
