O cube
v 0.5 -0.5 -0.5
v -0.5 -0.5 -0.5
v -0.5 0 -0.5
v 0.5 0 -0.5
v -0.5 -0.5 0.5
v 0.5 -0.5 0.5
v 0.5 0 0.5
v -0.5 0 0.5

v 0.4687 0 -0.4375
v -0.4687 0 -0.4375
v -0.4687 0 0.4375
v 0.4687 0 0.4375
v 0.1875 0 -0.0625
v -0.1875 0 -0.0625
v -0.3125 0 0
v -0.1875 0 0.0625
v 0.1875 0 0.0625
v 0.3125 0 0
v 0.25 -0.0625 0
v -0.25 -0.0625 0

v 0.5 -0.25 -0.5
v -0.5 -0.25 -0.5
v -0.5 -0.25 0.5
v 0.5 -0.25 0.5
v 0.25 -0.5 -0.5
v 0 -0.5 -0.5
v -0.25 -0.5 -0.5
v -0.25 -0.5 0.5
v 0 -0.5 0.5
v 0.25 -0.5 0.5

vt 0 0
vt 1 0
vt 1 1
vt 0 1
vt 0.3125 0.4375
vt 0.3125 0.5
vt 0.3125 0.5625
vt 0.6875 0.4375
vt 0.6875 0.5
vt 0.6875 0.5625

vt 0.0313 0.0625
vt 0.9687 0.0625
vt 0.9687 0.9375
vt 0.0313 0.9375
vt 0.1875 0.5
vt 0.8125 0.5
vt 0 0.25
vt 1 0.25
vt 0 0.75
vt 1 0.75

vt 0.25 0
vt 0.25 1
vt 0.75 0
vt 0.75 1

vn 0.46502 0.81373 0.34871
vn 0 0.70711 0.70711
vn -0.46502 0.81373 0.34871
vn 0.6856 0.6856 -0.24478
vn 0.6856 0.6856 0.24478
vn -0.46502 0.81373 -0.34871
vn 0 0.70711 -0.70711
vn 0.46502 0.81373 -0.34871
vn -0.6856 0.6856 0.24478
vn -0.6856 0.6856 -0.24478
vn 0 1 0
vn 0 0 -1
vn -1 0 0
vn 0 0 1
vn 1 0 0
vn 0 -1 0

s off
f 9/5/1 13/8/1 19/9/1
f 13/10/2 14/7/2 20/6/2 19/9/2
f 20/7/3 14/6/3 10/9/3
f 10/9/4 15/6/4 20/5/4
f 20/7/5 15/6/5 11/9/5
f 11/10/6 16/7/6 20/6/6
f 16/5/7 17/8/7 19/9/7 20/6/7
f 19/9/8 17/10/8 12/7/8
f 12/5/9 18/8/9 19/9/9
f 19/9/10 18/10/10 9/7/10
f 4/1/11 3/2/11 10/12/11 14/8/11 13/5/11 9/11/11
f 3/2/11 8/3/11 11/13/11 15/16/11 10/12/11
f 8/3/11 7/4/11 12/14/11 17/7/11 16/10/11 11/13/11
f 7/4/11 4/1/11 9/11/11 18/15/11 12/14/11
f 1/19/12 2/20/12 22/3/12 21/4/12
f 21/1/12 22/2/12 3/18/12 4/17/12
f 22/1/13 2/21/13 5/22/13 23/4/13
f 3/3/13 22/24/13 23/23/13 8/2/13
f 5/18/14 6/17/14 24/1/14 23/2/14 
f 23/3/14 24/4/14 7/19/14 8/20/14
f 24/23/15 6/2/15 1/3/15 21/24/15
f 7/22/15 24/4/15 21/1/15 4/21/15
f 27/1/16 28/2/16 5/18/16 2/17/16
f 26/19/16 29/20/16 28/3/16 27/4/16
f 25/21/16 30/22/16 29/4/16 26/1/16
f 1/24/16 6/23/16 30/2/16 25/3/16
