O cube
v 0.5 -0.5 -0.5
v 0 0 -0.5
v -0.5 0 0
v -0.5 -0.5 0.5
v 0.5 -0.5 0.5
v 0.5 0.5 -0.5
v 0 0.5 -0.5
v -0.5 0.5 0
v -0.5 0.5 0.5
v 0.5 0.5 0.5
v -0.5 -0.5 0
v 0 -0.5 -0.5
v -0.5 0 -0.5
v -0.5 -0.5 -0.5

vt 0 0.5
vt 0.5 0.5
vt 0.5 1
vt 0 1
vt 0.75 0.5
vt 0.75 1
vt 0.6667 0.5
vt 0.8333 0.5
vt 0.6667 1
vt 0.8333 1

vt 0.5 0
vt 1 0
vt 1 0.5
vt 0 0.25
vt 0.25 0
vt 1 0.75
vt 0.75 0.75
vt 0.5 0.75
vt 0 0.25
vt 0.25 0

vt 0 0
vt 1 1
vt 0.2929 0
vt 0.2929 0.5

vn 0 -1 0
vn 0 0 -1
vn -0.7071 0 -0.7071
vn -1 0 0
vn 0 0 1
vn 1 0 0
vn 0 1 0
vn 0 0 -1
vn -1 0 0
vn 0 1 0

s off
f 1/1/1 5/2/1 4/3/1 14/4/1
f 1/2/2 12/5/2 7/6/2 6/3/2
f 2/9/3 3/7/3 8/8/3 7/10/3
f 11/5/4 4/13/4 9/22/4 8/6/4
f 4/11/5 5/12/5 10/13/5 9/2/5
f 5/11/6 1/12/6 6/13/6 10/2/6
f 6/1/7 7/14/7 8/15/7 9/11/7 10/2/7
f 12/5/8 14/13/8 13/16/8 2/17/8
f 14/2/9 11/5/9 3/17/9 13/18/9
f 2/19/10 13/21/10 3/20/10
