O cube
v 0.5 -0.5 0.5
v 0.5 0 0.5
v 0.5 0.5 0.5
v -0.5 0.5 0.5
v -0.5 0 0.5
v -0.5 -0.5 0.5
v -0.5 0.5 0
v -0.5 0 0
v -0.5 0 -0.5
v -0.5 -0.5 -0.5

vt 0 0
vt 1 0
vt 1 1
vt 0 1
vt 0.5 0
vt 0.5 1
vt 0 0.5
vt 1 0.5
vt 0.5 0.5
vn 0 0 1
vn 0 -1 0
vn 0.7071 0 -0.7071
vn 0.4472 0 -0.8944
vn 0 1 0
vn 0 1 0
vn -1 0 0
vn -1 0 0
s off
f 4/1/1 6/2/1 1/3/1 3/4/1
f 1/1/2 6/2/2 10/3/2
f 2/5/3 1/2/3 10/3/3 9/6/3
f 3/1/4 2/5/4 8/6/4 7/4/4
f 4/1/5 3/2/5 7/7/5
f 8/7/6 2/2/6 9/4/6
f 5/5/7 4/2/7 7/8/7 8/9/7
f 6/1/8 5/5/8 9/6/8 10/4/8
