O cube
v 0.5000 -0.5000 -0.5000
v 0.0000 -0.5000 -0.5000
v -0.5000 -0.5000 -0.5000
v -0.5000 -0.5000 0.5000
v 0.0000 -0.5000 0.5000
v 0.5000 -0.5000 0.5000
v -0.5000 0.0000 0.5000
v 0.0000 0.0000 0.5000
v 0.0000 0.5000 0.5000
v 0.5000 0.5000 0.5000
vt 0 0
vt 1 0
vt 1 1
vt 0 1
vt 0.5 0
vt 0.5 1
vt 1 0.5
vt 0.5 0.5
vt 0 0.5
vn 0.000 -1.000 0.000
vn 1.000 0.000 0.000
vn 0.000 0.7071 -0.7071
vn 0.000 0.8944 -0.4472
vn -1.000 0.000 0.000
vn -1.000 0.000 0.000
vn 0.000 0.000 1.000
vn 0.000 0.000 1.000
s off
f 6/1/1 4/2/1 3/3/1 1/4/1
f 6/1/2 1/2/2 10/4/2
f 1/1/3 2/5/3 9/6/3 10/4/3
f 2/5/4 3/2/4 7/3/4 8/6/4
f 3/1/5 4/2/5 7/7/5
f 2/1/6 8/7/6 9/3/6
f 4/1/7 5/5/7 8/8/7 7/9/7
f 5/5/8 6/2/8 10/3/8 9/6/8
