O cube
v -0.5 -0.5 0.5
v -0.5 -0.5 0
v 0.5 -0.5 -0.5
v 0.5 -0.5 0.5
v 0.5 0 -0.5
v 0 0.5 0.5
v 0.5 0.5 0.5
v 0 0 0

vt 0 0
vt 1 0
vt 1 1
vt 0 1
vt 0.5 1
vt 0.5 0
vt 1 0.5
vt 0 0.5
vt 0.75 0.75
vt 0.25 0.75

vt 0.25 0.25
vt 0.5 0.5

vn 0 0 1
vn -0.8944 0.4472 0
vn -0.5774 0.5774 -0.5774
vn -0.4472 0 -0.8944
vn 0 0.8944 -0.4472
vn 1 0 0
vn 0 -1 0
vn -0.5774 0.5774 -0.5774
vn -0.5774 0.5774 -0.5774

s off
f 4/1/1 7/4/1 6/5/1 1/2/1
f 1/1/2 6/4/2 2/6/2
f 2/6/3 6/4/3 8/12/3
f 2/1/4 5/7/4 3/2/4
f 5/2/5 6/5/5 7/3/5
f 3/1/6 5/8/6 7/3/6 4/2/6
f 1/1/7 2/8/7 3/3/7 4/2/7
f 2/1/8 8/12/8 5/7/8
f 6/5/9 5/2/9 8/12/9
