O cube
v -0.5 -0.5 -0.5
v -0.5 0 -0.5
v -0.5 0 0.5
v -0.5 -0.5 0.5
v 0 0 0.5
v 0 -0.5 0.5
v 0.5 -0.5 -0.5
v 0.5 0 -0.5
v 0.5 0 0.5
v 0.5 -0.5 0.5

vt 0 0
vt 1 0
vt 1 1
vt 0 1
vt 0 0.5
vt 1 0.5
vt 0.5 0
vt 0.5 0.5
vt 0.5 1

vn 0.8944 0 -0.4472
vn 0 1 0
vn 0 0 1
vn 0 -1 0
vn -1 0 0
vn 1 0 0
vn -0.8944 0 -0.4472

s off
f 1/1/1 2/7/1 5/9/1 6/4/1
f 2/1/2 3/2/2 5/6/2
f 3/1/3 4/7/3 10/9/3 9/4/3
f 4/1/4 1/2/4 6/5/4
f 4/1/5 3/7/5 2/9/5 1/4/5
f 8/4/2 5/6/2 9/3/2
f 6/5/4 7/3/4 10/4/4
f 7/1/6 8/7/6 9/9/6 10/4/6
f 6/3/7 5/9/7 8/7/7 7/2/7
