O cube
v 0.5000 -0.5000 -0.5000
v -0.5000 -0.5000 -0.5000
v -0.5000 -0.5000 0.5000
v 0.5000 -0.5000 0.5000
v 0.0000 -0.5000 -0.5000
v 0.5000 0.0000 -0.5000
v 0.0000 0.0000 -0.5000
v 0.0000 0.5000 -0.5000
v -0.5000 0.5000 -0.5000
v 0.5000 0.5000 0.5000
v 0.0000 0.5000 0.5000
v -0.5000 0.5000 0.5000
vt 0 0
vt 0.5 0
vt 0.5 0.5
vt 0 0.5
vt 1 0
vt 1 0.5
vt 1 1
vt 0.5 1
vt 1 0.75
vt 0.25 0

vt 0.25 0.25
vt 0 0.25
vt 0.25 0.5
vt 0 1
vt 0.75 0
vt 0.75 0.5
vn 0.0000 -1.0000 0.0000
vn 1.0000 0.0000 0.0000
vn 0.0000 0.0000 -1.0000
vn 0.0000 0.0000 -1.0000
vn -1.0000 0.0000 0.0000
vn 0.0000 0.0000 1.0000
vn 0.0000 0.8944 -0.4472
vn 0.0000 1.0000 0.0000
vn 1.0000 0.0000 0.0000

s off
f 3/2/1 2/5/1 1/6/1 4/3/1
f 4/3/2 1/6/2 6/9/2 10/8/2
f 1/1/3 5/10/3 7/11/3 6/12/3
f 5/10/4 2/2/4 9/3/4 8/13/4
f 2/4/5 3/3/5 12/8/5 9/14/5
f 12/10/6 3/15/6 4/16/6 10/13/6
f 6/1/7 7/10/7 11/13/7 10/4/7
f 8/10/8 9/2/8 12/3/8 11/13/8
f 11/8/9 7/9/9 8/7/9
