O cube
v 0.5 -0.5 -0.5
v -0.5 -0.5 -0.5
v -0.5 -0.5 0.5
v 0.5 -0.5 0.5
v 0.5 0 -0.5
v -0.5 0 -0.5
v -0.5 0 0
v -0.5 0.5 0.5
v 0.5 0.5 0.5
v 0.5 0 0

vt 0 0
vt 1 0
vt 1 1
vt 0 1
vt 0 0.707
vt 1 0.707
vt 0 0.5
vt 0.5 0.5
vt 1 0.5

vn 0 0 -1
vn -1 0 0
vn -1 0 0
vn 0 0 1
vn 1 0 0
vn 1 0 0
vn 0 1 0
vn 0 0.7071 -0.7071
vn 0 -1 0

s off
f 1/1/1 2/2/1 6/9/1 5/7/1
f 2/1/2 3/2/2 7/8/2 6/7/2
f 7/8/3 3/2/3 8/3/3
f 3/1/4 4/2/4 9/3/4 8/4/4
f 4/1/5 10/8/5 9/4/5
f 4/1/6 1/2/6 5/9/6 10/8/6
f 5/7/7 6/9/7 7/3/7 10/4/7
f 10/1/8 7/2/8 8/6/8 9/5/8
f 4/1/9 3/2/9 2/3/9 1/4/9

