O cube
v 0.5 -0.5 -0.5
v 0 -0.5 0.5
v -0.5 -0.5 0.5
v -0.5 -0.5 0
v -0.25 -0.5 0
v 0 -0.5 -0.5
v 0.5 0 -0.5
v 0 0 0.5
v -0.5 0 0.5
v -0.5 0 0
v -0.25 0 0
v 0 0 -0.5

vt 0 0
vt 1 0
vt 1 1
vt 0 1
vt 0 0.5
vt 1 0.5
vt 0.5 0.5
vt 0.5 0
vt 0.25 0
vt 0.25 0.5

vt 0.5 0.25
vt 0.5 0.75
vt 0.5 1

vn 0.8944 0 0.4472
vn 0 0 1
vn -1 0 0
vn 0 0 -1
vn -0.8944 0 -0.4472
vn 0 0 -1
vn 0 -1 0
vn 0 -1 0
vn 0 1 0
vn 0 1 0

s off
f 1/1/1 7/5/1 8/6/1 2/2/1
f 2/8/2 8/7/2 9/6/2 3/2/2
f 3/1/3 9/5/3 10/7/3 4/8/3
f 4/1/4 10/5/4 11/10/4 5/9/4
f 5/8/5 11/7/5 12/6/5 6/2/5
f 6/8/6 12/7/6 7/6/6 1/2/6
f 5/11/7 6/5/7 1/4/7 2/6/7
f 4/8/8 5/11/8 2/6/8 3/2/8
f 7/1/9 12/5/9 11/12/9 8/6/9
f 11/12/10 10/13/10 9/3/10 8/6/10
