O cube
v 0.5 -0.5 -0.5
v -0.5 -0.5 -0.5
v -0.5 -0.5 0
v 0.5 -0.5 0
v 0.5 0.5 0.5
v -0.5 0.5 0.5
v -0.5 0 0.5
v 0.5 0 0.5
v 0.5 0.2071 0.2071
v -0.5 0.2071 0.2071

v 0.5 0.25 0.25
v -0.5 0.25 0.25


vt 0 0
vt 1 0
vt 1 1
vt 0 1
vt 0.5 0
vt 1 0.5
vt 0 0.5
vt 0 0.4375
vt 1 0.414
vt 0 0.707

vt 1 0.6875
vt 0.707 0.707
vt 0.293 0.707
vt 0 0.3125
vt 1 0.3125
vt 0.25 0.75
vt 0.75 0.75

vn 0 0.707 -0.707
vn -1 0 0
vn 0 -0.707 0.707
vn 1 0 0
vn 0 0.707 0.707
vn 0 -1 0

s off
f 1/1/1 2/2/1 12/3/1 11/4/1
f 2/1/2 3/5/2 7/6/2 12/17/2
f 3/1/3 4/2/3 8/11/3 7/10/3
f 4/5/4 1/2/4 11/16/4 8/7/4
f 7/1/5 8/2/5 11/15/5 12/14/5
f 2/1/6 1/2/6 4/6/6 3/7/6
