O cube
v 0.5 -0.5 -0.5
v 0.5 -0.5 0.5
v 0.5 0.5 0.5
v 0 -0.5 0
v 0 -0.5 0.5
v 0 0 0.5
v -0.5 -0.5 -0.5
v -0.5 -0.5 0
v -0.5 0 0.5
v -0.5 0.5 0.5
v -0.5 -0.25 -0.25
v 0 -0.25 -0.25
v 0 -0.5 -0.5
v -0.5 0.25 0.25
v 0 0.25 0.25
v 0 0.5 0.5
v 0.5 -0.5 0
v 0.5 0 0.5

vt 0 0
vt 1 0
vt 1 0.5
vt 0 0.5
vt 1 1
vt 0 1
vt 0.5 0.5
vt 0 0.5
vt 1 0.5
vt 0.5 1

vt 0.25 0.25
vt 0.5 0
vt 1 0.5
vt 0.75 0.75
vt 0.75 0.5
vt 0.75 1

vn 0 -1 0
vn 0 0 1
vn 0 0.7071 -0.7071
vn 1 0 0
vn -1 0 0
vn -1 0 0
vn 0 0.7071 -0.7071
vn 0 0.7071 0.7071
vn 0 -0.7071 0.7071

s off
f 1/1/1 17/12/1 8/10/1 7/6/1
f 18/12/2 3/2/2 16/3/2 6/7/2
f 3/1/3 1/2/3 13/3/3 16/4/3
f 1/6/4 3/2/4 18/13/4 17/10/4
f 12/11/5 4/12/5 6/13/5 16/5/5
f 7/1/6 8/12/6 11/11/6
f 12/15/7 13/13/7 7/5/7 11/16/7
f 4/15/8 12/13/8 11/5/8 8/16/8
f 17/1/9 18/12/9 6/7/9 4/8/9
