O cube
v 0.5 -0.5 0.5
v -0.5 -0.5 0.5
v -0.5 -0.5 -0.5
v 0.5 -0.5 -0.5
v 0.5 0 0.5
v 0 0 0.5
v 0.5 0 -0.5
v 0.5 0.5 -0.5
v 0 0.5 0.5
v -0.5 0.5 0.5
v 0 0.5 -0.5
v -0.5 0 0.5
v -0.5 0 -0.5
v 0 0 -0.5

vt 0 0
vt 1 0
vt 1 1
vt 0 1
vt 0 0.5
vt 0.5 0
vt 1 0.5
vt 0.5 1
vt 0.5 0.5

vn 0 0 1
vn -1 0 0
vn -0.8944 0 -0.4472
vn 0 0 -1
vn 0.8944 0 0.4472
vn 1 0 0
vn 0 1 0
vn 0 -1 0

s off
f 1/1/1 5/5/1 6/9/1 2/2/1
f 6/9/1 9/8/1 10/3/1 2/2/1
f 2/1/2 12/5/2 13/7/2 3/2/2
f 12/5/3 10/4/3 11/3/3 14/7/3
f 3/1/4 13/5/4 14/9/4 4/2/4
f 14/9/4 11/8/4 8/3/4 4/2/4
f 7/5/5 8/4/5 9/3/5 6/7/5
f 4/1/6 7/5/6 5/7/6 1/2/6
f 9/6/7 8/4/7 11/8/7 10/2/7
f 7/4/7 6/6/7 5/1/7
f 14/8/7 13/3/7 12/2/7
f 4/1/8 1/4/8 2/3/8 3/2/8
