O cube
v -0.5 -0.5 0.5
v -0.5 0.5 0
v -0.5 0.3 -0.4
v -0.5 -0.5 0
v 0 -0.5 0.5
v 0 0.5 0
v 0 0.3 -0.4
v 0 -0.5 0

v 0.5 0.5 -0.5
v 0.5 -0.5 0
v 0.5 -0.3 0.4
v 0.5 0.5 0
v 0 0.5 -0.5
v 0 -0.5 0
v 0 -0.3 0.4
v 0 0.5 0

vt 0 0
vt 1 0
vt 1 1
vt 0 1
vt 1 0.5
vt 0 0.5
vt 0.5 0
vt 0.5 0.5
vt 0.5 1
vt 0.2 0

vt 0.2 0.5
vt 0.9 0.8
vt 0.9 0.2
vt 0.1 0.8
vt 0.1 0.2

vn 0 0.4472 0.8944
vn 0 0.8944 -0.4472
vn 0 -0.4472 -0.8944
vn 0 -1 0
vn -1 0 0
vn 1 0 0
vn 0 -0.4472 -0.8944
vn 0 -0.8944 0.4472
vn 0 0.4472 0.8944
vn 0 1 0
vn 1 0 0
vn -1 0 0

s off
f 1/1/1 5/6/1 6/5/1 2/2/1
f 2/7/2 6/8/2 7/5/2 3/2/2
f 3/10/3 7/11/3 8/5/3 4/2/3
f 4/7/4 8/8/4 5/5/4 1/2/4
f 1/1/5 2/9/5 3/12/5 4/7/5
f 5/1/6 8/7/6 15/15/6 

f 9/1/7 10/2/7 14/5/7 13/6/7
f 10/7/8 11/2/8 15/5/8 14/8/8
f 11/10/9 12/2/9 16/5/9 15/11/9
f 12/7/10 9/2/10 13/5/10 16/8/10
f 9/1/11 12/7/11 11/12/11 10/9/11
f 13/4/12 7/14/12 16/9/12 


