O cube
v 0.5000 -0.5000 0.5000
v -0.3787 -0.5000 0.5000
v 0.5000 -0.5000 -0.3787
v 0.5000 0.5000 0.5000
v -0.3787 0.5000 0.5000
v 0.5000 0.5000 -0.3787
vt 0 0
vt 0.8787 0
vt 0 0.8787
vt 0 1
vt 0.8787 1

vt 0 0.8787
vt 1 0
vt 1 1
vt 0.1213 0
vt 0.1213 1

vt 0 0.1213
vn 0.0000 -1.0000 0.0000
vn 1.0000 0.0000 0.0000
vn -0.7071 0.0000 -0.7071
vn 0.0000 0.0000 1.0000
vn 0.0000 1.0000 0.0000
s off
f 1/1/1 2/2/1 3/3/1
f 1/1/2 3/2/2 6/5/2 4/3/2
f 3/1/3 2/7/3 5/8/3 6/4/3
f 2/9/4 1/7/4 4/8/4 5/10/4
f 6/11/5 5/5/5 4/4/5
