O cube
v 0.5000 -0.5000 0.5000
v -0.5000 -0.5000 0.5000
v -0.5000 -0.5000 -0.5000
v 0.5000 -0.5000 -0.5000
v -0.6213 -0.5000 0.3536
v -0.6213 -0.5000 -0.3536
v 0.5000 0.5000 0.5000
v -0.5000 0.5000 0.5000
v -0.5000 0.5000 -0.5000
v 0.5000 0.5000 -0.5000
v -0.6213 0.5000 0.3536
v -0.6213 0.5000 -0.3536
v -0.5000 -0.5000 0.0000
v -0.5000 0.5000 0.0000
vt 0 0
vt 0 1
vt 1 1
vt 1 0
vt 0 0.5

vt 0.1213 0.1213
vt 0.1213 0.8787
vt 0.1465 0
vt 0.1465 1
vt 0.3827 0

vt 0.3827 1
vt 0.5292 0
vt 0.5292 1
vn 0.0000 -1.0000 0.0000
vn 0.0000 -1.0000 0.0000
vn 0.0000 -1.0000 0.0000
vn 1.0000 0.0000 0.0000
vn 0.0000 0.0000 -1.0000
vn -0.7071 0.0000 -0.7071
vn -0.924 0.0000 -0.3827
vn -0.924 0.0000 0.3827
vn -0.7071 0.0000 0.7071
vn 0.0000 0.0000 1.0000
vn 0.0000 1.0000 0.0000
vn 0.0000 1.0000 0.0000
vn 0.0000 1.0000 0.0000
s off
f 1/1/1 2/2/1 3/3/1 4/4/1
f 2/1/2 5/6/2 13/5/2
f 3/2/3 13/5/3 6/7/3
f 1/1/4 4/2/4 10/3/4 7/4/4
f 4/1/5 3/2/5 9/3/5 10/4/5
f 3/1/6 6/8/6 12/9/6 9/2/6
f 13/1/7 5/10/7 11/11/7 14/2/7
f 6/8/8 13/12/8 14/13/8 12/9/8
f 5/10/9 2/12/9 8/13/9 11/11/9
f 2/1/10 1/2/10 7/3/10 8/4/10
f 10/1/11 9/2/11 8/3/11 7/4/11
f 9/1/12 12/6/12 14/5/12
f 14/5/13 11/7/13 8/2/13
