O cube
v -0.5000 -0.5000 0.5000
v 0.0000 -0.5000 -0.5000
v -0.5000 -0.5000 -0.5000
v -0.3536 -0.5000 -0.6464
v -0.5000 0.0000 0.5000
v 0.5000 0.0000 0.5000
v 0.5000 0.0000 -0.5000
v 0.0000 0.0000 -0.5000
v -0.5000 0.0000 -0.5000
v 0.3536 0.0000 -0.6464
v -0.3536 0.0000 -0.6464
v -0.5000 0.5000 0.5000
v 0.5000 0.5000 0.5000
v 0.5000 0.5000 -0.5000
v 0.0000 0.5000 -0.5000
v 0.3536 0.5000 -0.6464
vt 0 0
vt 1 0
vt 1 0.5
vt 0 0.5
vt 1 1

vt 0 1
vt 0.2021 0.5
vt 0.2021 1
vt 0.5848 0.5
vt 0.5848 1

vt 0.5848 0
vt 0.3827 0
vt 0.3827 0.5
vt 0.5 0
vt 0.1464 0.8536

vt 0.5 1
vt 0.8536 0.8536
vt 0.8536 0.1464
vt 0.1464 0.1464

vn 0.8944 0.0000 0.4472
vn 1.0000 0.0000 0.0000
vn 0.7071 0.0000 -0.7071
vn -0.3827 0.0000 -0.9240
vn 0.3827 0.0000 -0.9240
vn -0.7071 0.0000 -0.7071
vn -0.8944 0.0000 -0.4472
vn -1.0000 0.0000 0.0000
vn 0.0000 0.0000 1.0000
vn 0.0000 1.0000 0.0000
vn 0.0000 1.0000 0.0000
vn 0.0000 1.0000 0.0000
vn 0.0000 1.0000 0.0000
vn 0.0000 1.0000 0.0000
vn 0.0000 -1.0000 0.0000
vn 0.0000 -1.0000 0.0000
vn 0.0000 -1.0000 0.0000
vn 0.0000 -1.0000 0.0000
vn 0.0000 -1.0000 0.0000
s off
f 1/1/1 2/2/1 8/3/1 5/4/1
f 6/4/2 7/3/2 14/5/2 13/6/2
f 7/4/3 10/7/3 16/8/3 14/6/3
f 10/7/4 8/9/4 15/10/4 16/8/4
f 2/1/5 4/12/5 11/13/5 8/4/5
f 4/12/6 3/11/6 9/9/6 11/13/6
f 8/4/7 5/3/7 12/5/7 15/6/7
f 3/1/8 1/2/8/ 5/3/8 9/4/8
f 5/4/9 6/3/9 13/5/9 12/6/9
f 14/1/10 15/14/10 13/6/10

f 15/14/11 12/5/11 13/6/11
f 14/6/12 16/15/12 15/16/12
f 8/14/13 9/2/13 5/5/13
f 8/16/14 11/17/14 9/5/14
f 2/16/15 1/2/15 3/5/15
f 2/14/16 3/2/16 4/18/16
f 6/1/17 5/2/17 8/16/17
f 7/6/18 6/1/18 8/16/18
f 7/1/19 8/14/19 10/19/19
