O cube
v 0.5000 -0.5000 -0.5000
v -0.5000 -0.5000 0.0000
v -0.5000 -0.5000 -0.5000
v -0.6464 -0.5000 -0.3536
v 0.5000 0.0000 -0.5000
v 0.5000 0.0000 0.5000
v -0.5000 0.0000 0.5000
v -0.5000 0.0000 0.0000
v -0.5000 0.0000 -0.5000
v -0.6464 0.0000 0.3536
v -0.6464 0.0000 -0.3536
v 0.5000 0.5000 -0.5000
v 0.5000 0.5000 0.5000
v -0.5000 0.5000 0.5000
v -0.5000 0.5000 0.0000
v -0.6464 0.5000 0.3536
vt 0 0.5
vt 0 1
vt 1 0.5
vt 1 1
vt 0.1464 0.3536

vt 0 0
vt 1 0
vt 0.3827 0.5
vt 0.3827 1
vt 0.3827 0

vt 0.2021 0
vt 0.2021 0.5
vt 0.5291 0
vt 0.5291 0.5
vt 0.5291 1

vt 0.1464 0.8536
vt 0.1464 0.1464

vn 0.000 -1.000 0.000
vn 0.000 -1.000 0.000
vn -0.4472 0.0000 -0.8944
vn 0.0000 0.0000 -1.0000
vn -0.924 0.0000 -0.3827
vn -0.7071 0.0000 -0.7071
vn -0.7071 0.0000 0.7071
vn -0.924 0.0000 0.3827
vn 0.0000 0.0000 1.0000
vn 0.0000 1.0000 0.0000 
vn 0.0000 1.0000 0.0000
vn 0.0000 1.0000 0.0000
vn 0.0000 1.0000 0.0000
vn 0.0000 1.0000 0.0000
vn 0.0000 -1.0000 0.0000
vn 0.0000 -1.0000 0.0000
vn 0.0000 -1.0000 0.0000
vn 1.0000 0.0000 0.0000
vn 0.4472 0.0000 0.8944
s off
f 1/2/1 2/3/1 3/4/1
f 3/4/2 2/3/2 4/5/2
f 5/1/3 8/3/3 15/4/3 12/2/3
f 1/6/4 3/7/4 9/3/4 5/1/4
f 8/1/5 10/8/5 16/9/5 15/2/5
f 3/6/6 4/11/6 11/12/6 9/1/6
f 10/8/7 7/14/7 14/15/7 16/9/7
f 4/11/8 2/13/8 8/14/8 11/12/8
f 7/1/9 6/3/9 13/4/9 14/2/9
f 12/6/10 15/3/10 13/2/10

f 13/2/11 15/3/11 14/4/11
f 14/4/12 15/3/12 16/16/12
f 5/1/13 9/7/13 8/3/13
f 9/6/14 11/17/14 8/1/14
f 5/2/15 6/6/15 8/3/15
f 8/3/16 6/6/16 7/7/16
f 8/1/17 7/6/17 10/17/17
f 6/1/18 5/3/18 12/4/18 13/2/18
f 2/6/19 1/7/19 5/3/19 8/1/19
