O cube
v 0.5000 -0.5000 0.0000
v -0.5000 -0.5000 0.0000
v -0.5000 -0.5000 -0.5000
v 0.5000 -0.5000 -0.5000
v -0.6464 -0.5000 -0.3536
v 0.5000 0.0000 0.0000
v -0.5000 0.0000 0.0000
v -0.5000 0.0000 -0.5000
v 0.5000 0.0000 -0.5000
v -0.6464 0.0000 -0.3536
v 0.5000 0.0000 0.5000
v -0.5000 0.0000 0.5000
v -0.6464 0.0000 0.3536
v 0.5000 0.5000 0.5000
v -0.5000 0.5000 0.5000
v -0.5000 0.5000 0.0000
v 0.5000 0.5000 0.0000
v -0.6464 0.5000 0.3536
vt 0 0
vt 1 0
vt 1 0.5
vt 0 0.5
vt 0.1464 0.3536

vt 0.5 0.5
vt 0.5 1
vt 0 1
vt 0.5 0
vt 1 1

vt 0.2021 0.5
vt 0.2021 1
vt 0.2021 0
vt 0.5848 0
vt 0.5846 0.5

vt 0.5848 1
vt 0.1464 0.1464
vt 0.1464 0.6464
vt 0.3827 0.5
vt 0.3827 1
vt 0.1464 0.8827
vn 0.0000 -1.0000 0.0000
vn 0.0000 -1.0000 0.0000
vn 0.0000 -1.0000 0.0000
vn 0.0000 -1.0000 0.0000
vn 1.0000 0.0000 0.0000
vn 1.0000 0.0000 0.0000
vn 0.0000 0.0000 -1.0000
vn 0.0000 0.0000 -1.0000
vn -0.924 0.0000 -0.3828
vn -0.7071 0.0000 -0.7071
vn -0.7071 0.0000 0.7071
vn -0.924 0.0000 0.3828
vn 0.0000 0.0000 1.0000
vn 0.0000 0.0000 1.0000
vn 0.0000 1.0000 0.0000
vn 0.0000 1.0000 0.0000
vn 0.0000 1.0000 0.0000
vn 0.0000 1.0000 0.0000
s off
f 11/1/1 12/2/1 7/3/1 6/4/1
f 12/1/2 13/17/2 7/4/2
f 1/4/3 2/3/3 3/10/3 4/8/3
f 2/1/4 5/5/4 3/4/4
f 11/4/5 6/6/5 17/7/5 14/8/5
f 1/9/6 4/2/6 9/3/6 6/6/6
f 6/4/7 7/3/7 16/10/7 17/8/7
f 4/1/8 3/2/8 8/3/8 9/4/8
f 7/4/9 13/19/9 18/20/9 16/8/9
f 3/1/10 5/13/10 10/11/10 8/4/10
f 13/19/11 12/15/11 15/16/11 18/20/11
f 5/13/12 2/14/12 7/15/12 10/11/12
f 12/4/13 11/3/13 14/10/13 15/8/13

f 2/1/14 1/2/14 6/3/14 7/4/14
f 17/4/15 16/3/15 15/10/15 14/8/15
f 9/1/16 8/2/16 7/3/16 6/4/16
f 16/4/17 18/21/17 15/8/17
f 8/1/18 10/17/18 7/4/18
