O cube
v 0.0000 -0.5000 0.5000
v 0.0000 -0.5000 -0.5000
v -0.5000 -0.5000 -0.5000
v -0.5000 -0.5000 0.5000
v -0.3536 -0.5000 -0.6464
v 0.0000 0.0000 0.5000
v 0.0000 0.0000 -0.5000
v -0.5000 0.0000 -0.5000
v -0.5000 0.0000 0.5000
v -0.3536 0.0000 -0.6464

v 0.5000 -0.5000 0.5000
v 0.5000 -0.5000 -0.5000
v 0.3536 -0.5000 -0.6464
v 0.5000 0.5000 0.5000
v 0.5000 0.5000 -0.5000
v 0.0000 0.5000 -0.5000
v 0.0000 0.5000 0.5000
v 0.3536 0.5000 -0.6464
vt 0 0.5
vt 1 0.5
vt 1 1
vt 0 1
vt 0 0
vt 1 0
vt 0.2071 0.5
vt 0.2071 1
vt 0.3827 0
vt 0.3827 0.5

vt 0.5898 0
vt 0.5898 0.5
vt 0.5898 1
vt 0.5 0
vt 0.5 0.5
vt 0.5 1
vt 0.1464 0.8536
vt 0.8536 0.8536
vt 0.1464 0.1464
vt 0.8536 0.1464

vt 0 0
vt 0 1
vt 1 1
vt 0 1
vt 0.5 0
vt 0.5 1
vt 0.2071 0
vn 1.0000 0.0000 0.0000
vn 1.0000 0.0000 0.0000
vn 0.7071 0.0000 -0.7071
vn -0.3828 0.0000 -0.924
vn 0.3828 0.0000 -0.924
vn -0.7071 0.0000 -0.7071
vn -1.0000 0.0000 0.0000
vn -1.0000 0.0000 0.0000
vn 0.0000 0.0000 1.0000
vn 0.0000 0.0000 1.0000
vn 0.0000 1.0000 0.0000
vn 0.0000 1.0000 0.0000
vn 0.0000 1.0000 0.0000
vn 0.0000 1.0000 0.0000
vn 0.0000 -1.0000 0.0000
vn 0.0000 -1.0000 0.0000
vn 0.0000 -1.0000 0.0000
s off
f 11/21/1 12/22/1 15/23/1 14/24/1
f 1/5/2 2/6/2 7/2/2 6/1/2
f 12/5/3 13/27/3 18/8/3 15/4/3
f 13/27/4 2/11/4 16/13/4 18/8/4
f 2/5/5 5/9/5 10/10/5 7/1/5
f 5/9/6 3/11/6 8/12/6 10/10/6
f 7/1/7 6/2/7 17/3/7 16/4/7
f 3/5/8 4/6/8 9/2/8 8/1/8
f 4/5/9 1/14/9 6/15/9 9/1/9
f 1/21/10 11/25/10 14/26/10 17/4/10

f 15/5/11 16/14/11 17/16/11 14/4/11
f 7/14/12 8/6/12 9/3/12 6/16/12
f 15/4/13 18/17/13 16/16/13
f 7/16/14 10/18/14 8/3/14
f 11/21/15 4/22/15 3/23/15 12/24/15
f 12/5/16 2/14/16 13/19/16
f 2/14/17 3/6/17 5/20/17
