O cube
v -0.5 0 0.5
v -0.5 0 -0.5
v 0.5 0 0
v 0.6213 0 0.3536
v 0.5 0 0.5
v -0.5 -0.5 0.5
v -0.5 -0.5 -0.5
v 0.5 -0.5 0
v 0.6213 -0.5 0.3536
v 0.5 -0.5 0.5

vt 0 0
vt 1 0
vt 0.5 1
vt 0 1
vt 0.1464 0.1464

vt 0.5 0
vt 1 0.5
vt 0 0.5
vt 0.1465 0
vt 0.1465 0.5

vt 0.5292 0
vt 0.5292 0.5
vt 1 1
vt 0.1464 0.8536

vn -0.4472 0 -0.8944
vn 0 1 0
vn 0 1 0
vn 0 0 1
vn 0.7071 0 0.7071
vn 0.924 0 -0.3827
vn 0 -1 0
vn 0 -1 0

s off
f 8/1/1 6/2/1 1/7/1 3/8/1
f 1/1/2 5/4/2 3/3/2
f 5/1/3 4/5/3 3/6/3
f 1/1/4 6/8/4 10/7/4 5/2/4
f 5/1/5 10/8/5 9/10/5 4/9/5
f 4/9/6 9/10/6 8/12/6 3/11/6
f 10/1/7 6/4/7 8/6/7
f 10/4/8 8/3/8 9/14/8

